<?xml version="1.0" encoding="utf-8" standalone="yes"?>
<!DOCTYPE svg PUBLIC "-//W3C//DTD SVG 1.1//EN" "http://www.w3.org/Graphics/SVG/1.1/DTD/svg11.dtd">
<svg width="888" height="574" viewBox="0 0 888 574" style="fill:none;stroke:none;fill-rule:evenodd;clip-rule:evenodd;stroke-linecap:round;stroke-linejoin:round;stroke-miterlimit:1.5;" version="1.1" xmlns="http://www.w3.org/2000/svg" xmlns:xlink="http://www.w3.org/1999/xlink"><style class="text-font-style fontImports" data-font-family="Roboto">@import url('https://fonts.googleapis.com/css2?family=Roboto:wght@400;700&amp;display=block');</style><g id="items" style="isolation: isolate"><g id="blend" style="mix-blend-mode: normal"><g id="g-root-cp_4_g-4_4m7ak4i07pj-fill" data-item-order="-393112" transform="translate(535, 320)"><g id="cp_4_g-4_4m7ak4i07pj-fill" stroke="none" fill="#f79438"><g><path d="M 47 52C 47.000001 75.19596 65.804041 94.000001 89.000001 94.000001C 112.19596 94.000001 131.000001 75.19596 131.000001 52.000001C 131.000001 28.804041 112.19596 10.000001 89.000001 10.000001C 65.804041 10.000001 47.000001 28.804041 47.000001 52.000001"></path></g></g><g id="cp_4_g-4_4m7ak4i07pj-fill" stroke="none" fill="#f79438"><g><path d="M 10 10.1102L 38 10C 38 10 33.4506 14.8106 29.5566 22.0887C 25.6625 29.3668 24.0892 36 24.0892 36L 10 10.1102Z"></path></g></g></g><g id="g-root-cp_3_g-3_1upwr584i08ap-fill" data-item-order="-393106" transform="translate(535, 200)"><g id="cp_3_g-3_1upwr584i08ap-fill" stroke="none" fill="#a6da37"><g><path d="M 47 52C 47.000001 75.19596 65.804041 94.000001 89.000001 94.000001C 112.19596 94.000001 131.000001 75.19596 131.000001 52.000001C 131.000001 28.804041 112.19596 10.000001 89.000001 10.000001C 65.804041 10.000001 47.000001 28.804041 47.000001 52.000001"></path></g></g><g id="cp_3_g-3_1upwr584i08ap-fill" stroke="none" fill="#a6da37"><g><path d="M 10 93.8898L 38 94C 38 94 33.4506 89.1894 29.5566 81.9113C 25.6625 74.6332 24.0892 68 24.0892 68L 10 93.8898Z"></path></g></g></g><g id="g-root-cp_2_g-2_1hf2pv04i06pv-fill" data-item-order="-393100" transform="translate(212, 200)"><g id="cp_2_g-2_1hf2pv04i06pv-fill" stroke="none" fill="#1ac3fb"><g><path d="M 10 52C 10.000001 75.19596 28.804041 94.000001 52.000001 94.000001C 75.19596 94.000001 94.000001 75.19596 94.000001 52.000001C 94.000001 28.804041 75.19596 10.000001 52.000001 10.000001C 28.804041 10.000001 10.000001 28.804041 10.000001 52.000001"></path></g></g><g id="cp_2_g-2_1hf2pv04i06pv-fill" stroke="none" fill="#1ac3fb"><g><path d="M 131 93.8898L 103 94C 103 94 107.5494 89.1894 111.4435 81.9113C 115.3375 74.6332 116.9108 68 116.9108 68L 131 93.8898Z"></path></g></g></g><g id="g-root-cp_1_g-1_18jfpm44i07il-fill" data-item-order="-393094" transform="translate(212, 320)"><g id="cp_1_g-1_18jfpm44i07il-fill" stroke="none" fill="#4f91fc"><g><path d="M 10 52C 10.000001 75.19596 28.804041 94.000001 52.000001 94.000001C 75.19596 94.000001 94.000001 75.19596 94.000001 52.000001C 94.000001 28.804041 75.19596 10.000001 52.000001 10.000001C 28.804041 10.000001 10.000001 28.804041 10.000001 52.000001"></path></g></g><g id="cp_1_g-1_18jfpm44i07il-fill" stroke="none" fill="#4f91fc"><g><path d="M 131 10.1102L 103 10C 103 10 107.5494 14.8106 111.4435 22.0887C 115.3375 29.3668 116.9108 36 116.9108 36L 131 10.1102Z"></path></g></g></g><g id="g-root-cp_end_g-end_v8lobw4i05xr-fill" data-item-order="-393088" transform="translate(350, 217)"><g id="cp_end_g-end_v8lobw4i05xr-fill" stroke="none" fill="#3bc482"><g><path d="M 10 94C 10.000002 140.391921 47.608083 178.000002 94.000002 178.000002C 140.391921 178.000002 178.000002 140.391921 178.000002 94.000002C 178.000002 47.608083 140.391921 10.000002 94.000002 10.000002C 47.608083 10.000002 10.000002 47.608083 10.000002 94.000002"></path></g></g></g><g id="g-root-tx__mcyo304i07i8-fill" data-item-order="0" transform="translate(272, 38)"><g id="tx__mcyo304i07i8-fill" stroke="none" fill="#000000"><g><text style="font: 20px &quot;Roboto&quot;, sans-serif; white-space: pre;" font-size="20px" font-family="'Roboto', sans-serif"><tspan x="16.69" y="34" dominant-baseline="ideographic">Benefits of investing in hackathons</tspan></text></g></g></g><g id="g-root-tx__18efwx84i1m9u-fill" data-item-order="0" transform="translate(26, 110)"><g id="tx__18efwx84i1m9u-fill" stroke="none" fill="#1ac3fb"><g><text style="font: bold 20px &quot;Roboto&quot;, sans-serif; white-space: pre;" font-weight="bold" font-size="20px" font-family="'Roboto', sans-serif"><tspan x="14.42" y="34" dominant-baseline="ideographic">Accelerating </tspan><tspan x="33.87" y="58" dominant-baseline="ideographic">innovation</tspan></text></g></g></g><g id="g-root-tx_hr_dl2ics4i06bk-fill" data-item-order="0" transform="translate(698, 146)"><g id="tx_hr_dl2ics4i06bk-fill" stroke="none" fill="#a6da37"><g><text style="font: bold 20px &quot;Roboto&quot;, sans-serif; white-space: pre;" font-weight="bold" font-size="20px" font-family="'Roboto', sans-serif"><tspan x="12" y="34" dominant-baseline="ideographic">Strengthening </tspan><tspan x="12" y="58" dominant-baseline="ideographic">the HR brand</tspan></text></g></g></g><g id="g-root-tx__v3lvn04i1koz-fill" data-item-order="0" transform="translate(26, 170)"><g id="tx__v3lvn04i1koz-fill" stroke="none" fill="#000000"><g><text style="font: 15px &quot;Roboto&quot;, sans-serif; white-space: pre;" font-size="15px" font-family="'Roboto', sans-serif"><tspan x="56.77" y="31" dominant-baseline="ideographic">Accelerating </tspan><tspan x="70.63" y="49" dominant-baseline="ideographic">innovation </tspan><tspan x="15.78" y="67" dominant-baseline="ideographic">processes through </tspan><tspan x="23.73" y="85" dominant-baseline="ideographic">crowdsourcing of </tspan><tspan x="104.02" y="103" dominant-baseline="ideographic">ideas</tspan></text></g></g></g><g id="g-root-tx_hr_9lzzg4i07wh-fill" data-item-order="0" transform="translate(698, 206)"><g id="tx_hr_9lzzg4i07wh-fill" stroke="none" fill="#000000"><g><text style="font: 15px &quot;Roboto&quot;, sans-serif; white-space: pre;" font-size="15px" font-family="'Roboto', sans-serif"><tspan x="12" y="31" dominant-baseline="ideographic">Strengthening HR </tspan><tspan x="12" y="49" dominant-baseline="ideographic">brand among </tspan><tspan x="12" y="67" dominant-baseline="ideographic">students</tspan></text></g></g></g><g id="g-root-tx_2_dj733g4i07b8-fill" data-item-order="0" transform="translate(242, 224)"><g id="tx_2_dj733g4i07b8-fill" stroke="none" fill="#2c2c2c"><g><text style="font: bold 30px &quot;Roboto&quot;, sans-serif; white-space: pre;" font-weight="bold" font-size="30px" font-family="'Roboto', sans-serif"><tspan x="13.39" y="46" dominant-baseline="ideographic">2</tspan></text></g></g></g><g id="g-root-tx_3_qu14do4i08w3-fill" data-item-order="0" transform="translate(602, 224)"><g id="tx_3_qu14do4i08w3-fill" stroke="none" fill="#2c2c2c"><g><text style="font: bold 30px &quot;Roboto&quot;, sans-serif; white-space: pre;" font-weight="bold" font-size="30px" font-family="'Roboto', sans-serif"><tspan x="13.39" y="46" dominant-baseline="ideographic">3</tspan></text></g></g></g><g id="g-root-tx__1urs6ek4i07b5-fill" data-item-order="0" transform="translate(362, 278)"><g id="tx__1urs6ek4i07b5-fill" stroke="none" fill="#000000"><g><text style="font: bold 20px &quot;Roboto&quot;, sans-serif; white-space: pre;" font-weight="bold" font-size="20px" font-family="'Roboto', sans-serif"><tspan x="14.18" y="34" dominant-baseline="ideographic">Benefits to the </tspan><tspan x="38.69" y="58" dominant-baseline="ideographic">company</tspan></text></g></g></g><g id="g-root-tx__8wid0s4i1n2k-fill" data-item-order="0" transform="translate(26, 338)"><g id="tx__8wid0s4i1n2k-fill" stroke="none" fill="#4f91fc"><g><text style="font: bold 20px &quot;Roboto&quot;, sans-serif; white-space: pre;" font-weight="bold" font-size="20px" font-family="'Roboto', sans-serif"><tspan x="15.65" y="34" dominant-baseline="ideographic">Access to </tspan><tspan x="42.18" y="58" dominant-baseline="ideographic">talents</tspan></text></g></g></g><g id="g-root-tx_1_1qdu3jg4i06bx-fill" data-item-order="0" transform="translate(242, 344)"><g id="tx_1_1qdu3jg4i06bx-fill" stroke="none" fill="#2c2c2c"><g><text style="font: bold 30px &quot;Roboto&quot;, sans-serif; white-space: pre;" font-weight="bold" font-size="30px" font-family="'Roboto', sans-serif"><tspan x="13.39" y="46" dominant-baseline="ideographic">1</tspan></text></g></g></g><g id="g-root-tx_4_145hmr04i07b6-fill" data-item-order="0" transform="translate(602, 344)"><g id="tx_4_145hmr04i07b6-fill" stroke="none" fill="#2c2c2c"><g><text style="font: bold 30px &quot;Roboto&quot;, sans-serif; white-space: pre;" font-weight="bold" font-size="30px" font-family="'Roboto', sans-serif"><tspan x="13.39" y="46" dominant-baseline="ideographic">4</tspan></text></g></g></g><g id="g-root-tx_rd_1d2dl644i07wu-fill" data-item-order="0" transform="translate(698, 338)"><g id="tx_rd_1d2dl644i07wu-fill" stroke="none" fill="#f79438"><g><text style="font: bold 20px &quot;Roboto&quot;, sans-serif; white-space: pre;" font-weight="bold" font-size="20px" font-family="'Roboto', sans-serif"><tspan x="12" y="34" dominant-baseline="ideographic">Reduced R&amp;D </tspan><tspan x="12" y="58" dominant-baseline="ideographic">costs</tspan></text></g></g></g><g id="g-root-tx__1q6yvl84i1m2t-fill" data-item-order="0" transform="translate(26, 398)"><g id="tx__1q6yvl84i1m2t-fill" stroke="none" fill="#000000"><g><text style="font: 15px &quot;Roboto&quot;, sans-serif; white-space: pre;" font-size="15px" font-family="'Roboto', sans-serif"><tspan x="44.78" y="31" dominant-baseline="ideographic">Direct access to </tspan><tspan x="21.17" y="49" dominant-baseline="ideographic">talented developers </tspan><tspan x="68.3" y="67" dominant-baseline="ideographic">and creators</tspan></text></g></g></g><g id="g-root-tx__mg31ik4i07wv-fill" data-item-order="0" transform="translate(698, 398)"><g id="tx__mg31ik4i07wv-fill" stroke="none" fill="#000000"><g><text style="font: 15px &quot;Roboto&quot;, sans-serif; white-space: pre;" font-size="15px" font-family="'Roboto', sans-serif"><tspan x="12" y="28" dominant-baseline="ideographic">Reduction of </tspan><tspan x="12" y="46" dominant-baseline="ideographic">research and </tspan><tspan x="12" y="64" dominant-baseline="ideographic">development costs </tspan><tspan x="12" y="82" dominant-baseline="ideographic">through the use of </tspan><tspan x="12" y="100" dominant-baseline="ideographic">off-the-shelf </tspan><tspan x="12" y="118" dominant-baseline="ideographic">prototypes</tspan></text></g></g></g><g id="g-root-cp_4_g-4_4m7ak4i07pj-stroke" data-item-order="-393112" transform="translate(535, 320)"><g id="cp_4_g-4_4m7ak4i07pj-stroke" fill="none" stroke-linecap="round" stroke-linejoin="round" stroke-miterlimit="4" stroke="#2c2c2c" stroke-width="2"><g><path d="M 47 52C 47.000001 75.19596 65.804041 94.000001 89.000001 94.000001C 112.19596 94.000001 131.000001 75.19596 131.000001 52.000001C 131.000001 28.804041 112.19596 10.000001 89.000001 10.000001C 65.804041 10.000001 47.000001 28.804041 47.000001 52.000001"></path></g></g><g id="cp_4_g-4_4m7ak4i07pj-stroke" fill="none" stroke-linecap="round" stroke-linejoin="round" stroke-miterlimit="4" stroke="#2c2c2c" stroke-width="2"><g><path d="M 10 10.1102L 38 10C 38 10 33.4506 14.8106 29.5566 22.0887C 25.6625 29.3668 24.0892 36 24.0892 36L 10 10.1102Z"></path></g></g></g><g id="g-root-cp_3_g-3_1upwr584i08ap-stroke" data-item-order="-393106" transform="translate(535, 200)"><g id="cp_3_g-3_1upwr584i08ap-stroke" fill="none" stroke-linecap="round" stroke-linejoin="round" stroke-miterlimit="4" stroke="#2c2c2c" stroke-width="2"><g><path d="M 47 52C 47.000001 75.19596 65.804041 94.000001 89.000001 94.000001C 112.19596 94.000001 131.000001 75.19596 131.000001 52.000001C 131.000001 28.804041 112.19596 10.000001 89.000001 10.000001C 65.804041 10.000001 47.000001 28.804041 47.000001 52.000001"></path></g></g><g id="cp_3_g-3_1upwr584i08ap-stroke" fill="none" stroke-linecap="round" stroke-linejoin="round" stroke-miterlimit="4" stroke="#2c2c2c" stroke-width="2"><g><path d="M 10 93.8898L 38 94C 38 94 33.4506 89.1894 29.5566 81.9113C 25.6625 74.6332 24.0892 68 24.0892 68L 10 93.8898Z"></path></g></g></g><g id="g-root-cp_2_g-2_1hf2pv04i06pv-stroke" data-item-order="-393100" transform="translate(212, 200)"><g id="cp_2_g-2_1hf2pv04i06pv-stroke" fill="none" stroke-linecap="round" stroke-linejoin="round" stroke-miterlimit="4" stroke="#2c2c2c" stroke-width="2"><g><path d="M 10 52C 10.000001 75.19596 28.804041 94.000001 52.000001 94.000001C 75.19596 94.000001 94.000001 75.19596 94.000001 52.000001C 94.000001 28.804041 75.19596 10.000001 52.000001 10.000001C 28.804041 10.000001 10.000001 28.804041 10.000001 52.000001"></path></g></g><g id="cp_2_g-2_1hf2pv04i06pv-stroke" fill="none" stroke-linecap="round" stroke-linejoin="round" stroke-miterlimit="4" stroke="#2c2c2c" stroke-width="2"><g><path d="M 131 93.8898L 103 94C 103 94 107.5494 89.1894 111.4434 81.9113C 115.3375 74.6332 116.9108 68 116.9108 68L 131 93.8898Z"></path></g></g></g><g id="g-root-cp_1_g-1_18jfpm44i07il-stroke" data-item-order="-393094" transform="translate(212, 320)"><g id="cp_1_g-1_18jfpm44i07il-stroke" fill="none" stroke-linecap="round" stroke-linejoin="round" stroke-miterlimit="4" stroke="#2c2c2c" stroke-width="2"><g><path d="M 10 52C 10.000001 75.19596 28.804041 94.000001 52.000001 94.000001C 75.19596 94.000001 94.000001 75.19596 94.000001 52.000001C 94.000001 28.804041 75.19596 10.000001 52.000001 10.000001C 28.804041 10.000001 10.000001 28.804041 10.000001 52.000001"></path></g></g><g id="cp_1_g-1_18jfpm44i07il-stroke" fill="none" stroke-linecap="round" stroke-linejoin="round" stroke-miterlimit="4" stroke="#2c2c2c" stroke-width="2"><g><path d="M 131 10.1102L 103 10C 103 10 107.5494 14.8106 111.4434 22.0887C 115.3375 29.3668 116.9108 36 116.9108 36L 131 10.1102Z"></path></g></g></g><g id="g-root-cp_end_g-end_v8lobw4i05xr-stroke" data-item-order="-393088" transform="translate(350, 217)"><g id="cp_end_g-end_v8lobw4i05xr-stroke" fill="none" stroke-linecap="round" stroke-linejoin="round" stroke-miterlimit="4" stroke="#2c2c2c" stroke-width="2"><g><path d="M 10 94C 10.000002 140.391921 47.608083 178.000002 94.000002 178.000002C 140.391921 178.000002 178.000002 140.391921 178.000002 94.000002C 178.000002 47.608083 140.391921 10.000002 94.000002 10.000002C 47.608083 10.000002 10.000002 47.608083 10.000002 94.000002"></path></g></g></g><g id="g-root-tx__mcyo304i07i8-stroke" data-item-order="0" transform="translate(272, 38)"></g><g id="g-root-tx__18efwx84i1m9u-stroke" data-item-order="0" transform="translate(26, 110)"></g><g id="g-root-tx_hr_dl2ics4i06bk-stroke" data-item-order="0" transform="translate(698, 146)"></g><g id="g-root-tx__v3lvn04i1koz-stroke" data-item-order="0" transform="translate(26, 170)"></g><g id="g-root-tx_hr_9lzzg4i07wh-stroke" data-item-order="0" transform="translate(698, 206)"></g><g id="g-root-tx_2_dj733g4i07b8-stroke" data-item-order="0" transform="translate(242, 224)"></g><g id="g-root-tx_3_qu14do4i08w3-stroke" data-item-order="0" transform="translate(602, 224)"></g><g id="g-root-tx__1urs6ek4i07b5-stroke" data-item-order="0" transform="translate(362, 278)"></g><g id="g-root-tx__8wid0s4i1n2k-stroke" data-item-order="0" transform="translate(26, 338)"></g><g id="g-root-tx_1_1qdu3jg4i06bx-stroke" data-item-order="0" transform="translate(242, 344)"></g><g id="g-root-tx_4_145hmr04i07b6-stroke" data-item-order="0" transform="translate(602, 344)"></g><g id="g-root-tx_rd_1d2dl644i07wu-stroke" data-item-order="0" transform="translate(698, 338)"></g><g id="g-root-tx__1q6yvl84i1m2t-stroke" data-item-order="0" transform="translate(26, 398)"></g><g id="g-root-tx__mg31ik4i07wv-stroke" data-item-order="0" transform="translate(698, 398)"></g></g></g></svg>