<?xml version="1.0" encoding="utf-8" standalone="yes"?>
<!DOCTYPE svg PUBLIC "-//W3C//DTD SVG 1.1//EN" "http://www.w3.org/Graphics/SVG/1.1/DTD/svg11.dtd">
<svg width="888" height="574" viewBox="0 0 888 574" style="fill:none;stroke:none;fill-rule:evenodd;clip-rule:evenodd;stroke-linecap:round;stroke-linejoin:round;stroke-miterlimit:1.5;" version="1.1" xmlns="http://www.w3.org/2000/svg" xmlns:xlink="http://www.w3.org/1999/xlink"><style class="text-font-style fontImports" data-font-family="Roboto">@import url('https://fonts.googleapis.com/css2?family=Roboto:wght@400;700&amp;display=block');</style><g id="items" style="isolation: isolate"><g id="blend" style="mix-blend-mode: normal"><g id="g-root-cp_4_g-4_4m7ak4i07pj-fill" data-item-order="-393112" transform="translate(535, 320)"><g id="cp_4_g-4_4m7ak4i07pj-fill" stroke="none" fill="#f79438"><g><path d="M 47 52C 47.000001 75.19596 65.804041 94.000001 89.000001 94.000001C 112.19596 94.000001 131.000001 75.19596 131.000001 52.000001C 131.000001 28.804041 112.19596 10.000001 89.000001 10.000001C 65.804041 10.000001 47.000001 28.804041 47.000001 52.000001"></path></g></g><g id="cp_4_g-4_4m7ak4i07pj-fill" stroke="none" fill="#f79438"><g><path d="M 10 10.1102L 38 10C 38 10 33.4506 14.8106 29.5566 22.0887C 25.6625 29.3668 24.0892 36 24.0892 36L 10 10.1102Z"></path></g></g></g><g id="g-root-cp_3_g-3_1upwr584i08ap-fill" data-item-order="-393106" transform="translate(535, 200)"><g id="cp_3_g-3_1upwr584i08ap-fill" stroke="none" fill="#a6da37"><g><path d="M 47 52C 47.000001 75.19596 65.804041 94.000001 89.000001 94.000001C 112.19596 94.000001 131.000001 75.19596 131.000001 52.000001C 131.000001 28.804041 112.19596 10.000001 89.000001 10.000001C 65.804041 10.000001 47.000001 28.804041 47.000001 52.000001"></path></g></g><g id="cp_3_g-3_1upwr584i08ap-fill" stroke="none" fill="#a6da37"><g><path d="M 10 93.8898L 38 94C 38 94 33.4506 89.1894 29.5566 81.9113C 25.6625 74.6332 24.0892 68 24.0892 68L 10 93.8898Z"></path></g></g></g><g id="g-root-cp_2_g-2_1hf2pv04i06pv-fill" data-item-order="-393100" transform="translate(212, 200)"><g id="cp_2_g-2_1hf2pv04i06pv-fill" stroke="none" fill="#1ac3fb"><g><path d="M 10 52C 10.000001 75.19596 28.804041 94.000001 52.000001 94.000001C 75.19596 94.000001 94.000001 75.19596 94.000001 52.000001C 94.000001 28.804041 75.19596 10.000001 52.000001 10.000001C 28.804041 10.000001 10.000001 28.804041 10.000001 52.000001"></path></g></g><g id="cp_2_g-2_1hf2pv04i06pv-fill" stroke="none" fill="#1ac3fb"><g><path d="M 131 93.8898L 103 94C 103 94 107.5494 89.1894 111.4435 81.9113C 115.3375 74.6332 116.9108 68 116.9108 68L 131 93.8898Z"></path></g></g></g><g id="g-root-cp_1_g-1_18jfpm44i07il-fill" data-item-order="-393094" transform="translate(212, 320)"><g id="cp_1_g-1_18jfpm44i07il-fill" stroke="none" fill="#4f91fc"><g><path d="M 10 52C 10.000001 75.19596 28.804041 94.000001 52.000001 94.000001C 75.19596 94.000001 94.000001 75.19596 94.000001 52.000001C 94.000001 28.804041 75.19596 10.000001 52.000001 10.000001C 28.804041 10.000001 10.000001 28.804041 10.000001 52.000001"></path></g></g><g id="cp_1_g-1_18jfpm44i07il-fill" stroke="none" fill="#4f91fc"><g><path d="M 131 10.1102L 103 10C 103 10 107.5494 14.8106 111.4435 22.0887C 115.3375 29.3668 116.9108 36 116.9108 36L 131 10.1102Z"></path></g></g></g><g id="g-root-cp_end_g-end_v8lobw4i05xr-fill" data-item-order="-393088" transform="translate(350, 217)"><g id="cp_end_g-end_v8lobw4i05xr-fill" stroke="none" fill="#3bc482"><g><path d="M 10 94C 10.000002 140.391921 47.608083 178.000002 94.000002 178.000002C 140.391921 178.000002 178.000002 140.391921 178.000002 94.000002C 178.000002 47.608083 140.391921 10.000002 94.000002 10.000002C 47.608083 10.000002 10.000002 47.608083 10.000002 94.000002"></path></g></g></g><g id="g-root-tx__mcyo304i07i8-fill" data-item-order="0" transform="translate(272, 38)"><g id="tx__mcyo304i07i8-fill" stroke="none" fill="#f4f4f4"><g><text style="font: 20px &quot;Roboto&quot;, sans-serif; white-space: pre;" font-size="20px" font-family="'Roboto', sans-serif"><tspan x="16.69" y="34" dominant-baseline="ideographic">Benefits of investing in hackathons</tspan></text></g></g></g><g id="g-root-tx__18efwx84i1m9u-fill" data-item-order="0" transform="translate(26, 110)"><g id="tx__18efwx84i1m9u-fill" stroke="none" fill="#1ac3fb"><g><text style="font: bold 20px &quot;Roboto&quot;, sans-serif; white-space: pre;" font-weight="bold" font-size="20px" font-family="'Roboto', sans-serif"><tspan x="14.42" y="34" dominant-baseline="ideographic">Accelerating </tspan><tspan x="33.87" y="58" dominant-baseline="ideographic">innovation</tspan></text></g></g></g><g id="g-root-tx_hr_dl2ics4i06bk-fill" data-item-order="0" transform="translate(698, 146)"><g id="tx_hr_dl2ics4i06bk-fill" stroke="none" fill="#a6da37"><g><text style="font: bold 20px &quot;Roboto&quot;, sans-serif; white-space: pre;" font-weight="bold" font-size="20px" font-family="'Roboto', sans-serif"><tspan x="12" y="34" dominant-baseline="ideographic">Strengthening </tspan><tspan x="12" y="58" dominant-baseline="ideographic">the HR brand</tspan></text></g></g></g><g id="g-root-tx__v3lvn04i1koz-fill" data-item-order="0" transform="translate(26, 170)"><g id="tx__v3lvn04i1koz-fill" stroke="none" fill="#e5f8ff"><g><text style="font: 15px &quot;Roboto&quot;, sans-serif; white-space: pre;" font-size="15px" font-family="'Roboto', sans-serif"><tspan x="56.77" y="31" dominant-baseline="ideographic">Accelerating </tspan><tspan x="70.63" y="49" dominant-baseline="ideographic">innovation </tspan><tspan x="15.78" y="67" dominant-baseline="ideographic">processes through </tspan><tspan x="23.73" y="85" dominant-baseline="ideographic">crowdsourcing of </tspan><tspan x="104.02" y="103" dominant-baseline="ideographic">ideas</tspan></text></g></g></g><g id="g-root-tx_hr_9lzzg4i07wh-fill" data-item-order="0" transform="translate(698, 206)"><g id="tx_hr_9lzzg4i07wh-fill" stroke="none" fill="#f2ffd7"><g><text style="font: 15px &quot;Roboto&quot;, sans-serif; white-space: pre;" font-size="15px" font-family="'Roboto', sans-serif"><tspan x="12" y="31" dominant-baseline="ideographic">Strengthening HR </tspan><tspan x="12" y="49" dominant-baseline="ideographic">brand among </tspan><tspan x="12" y="67" dominant-baseline="ideographic">students</tspan></text></g></g></g><g id="g-root-tx_2_dj733g4i07b8-fill" data-item-order="0" transform="translate(242, 224)"><g id="tx_2_dj733g4i07b8-fill" stroke="none" fill="#2c2c2c"><g><text style="font: bold 30px &quot;Roboto&quot;, sans-serif; white-space: pre;" font-weight="bold" font-size="30px" font-family="'Roboto', sans-serif"><tspan x="13.39" y="46" dominant-baseline="ideographic">2</tspan></text></g></g></g><g id="g-root-tx_3_qu14do4i08w3-fill" data-item-order="0" transform="translate(602, 224)"><g id="tx_3_qu14do4i08w3-fill" stroke="none" fill="#2c2c2c"><g><text style="font: bold 30px &quot;Roboto&quot;, sans-serif; white-space: pre;" font-weight="bold" font-size="30px" font-family="'Roboto', sans-serif"><tspan x="13.39" y="46" dominant-baseline="ideographic">3</tspan></text></g></g></g><g id="g-root-tx__1urs6ek4i07b5-fill" data-item-order="0" transform="translate(362, 278)"><g id="tx__1urs6ek4i07b5-fill" stroke="none" fill="#2c2c2c"><g><text style="font: bold 20px &quot;Roboto&quot;, sans-serif; white-space: pre;" font-weight="bold" font-size="20px" font-family="'Roboto', sans-serif"><tspan x="14.18" y="34" dominant-baseline="ideographic">Benefits to the </tspan><tspan x="38.69" y="58" dominant-baseline="ideographic">company</tspan></text></g></g></g><g id="g-root-tx__8wid0s4i1n2k-fill" data-item-order="0" transform="translate(26, 338)"><g id="tx__8wid0s4i1n2k-fill" stroke="none" fill="#4f91fc"><g><text style="font: bold 20px &quot;Roboto&quot;, sans-serif; white-space: pre;" font-weight="bold" font-size="20px" font-family="'Roboto', sans-serif"><tspan x="15.65" y="34" dominant-baseline="ideographic">Access to </tspan><tspan x="42.18" y="58" dominant-baseline="ideographic">talents</tspan></text></g></g></g><g id="g-root-tx_1_1qdu3jg4i06bx-fill" data-item-order="0" transform="translate(242, 344)"><g id="tx_1_1qdu3jg4i06bx-fill" stroke="none" fill="#2c2c2c"><g><text style="font: bold 30px &quot;Roboto&quot;, sans-serif; white-space: pre;" font-weight="bold" font-size="30px" font-family="'Roboto', sans-serif"><tspan x="13.39" y="46" dominant-baseline="ideographic">1</tspan></text></g></g></g><g id="g-root-tx_4_145hmr04i07b6-fill" data-item-order="0" transform="translate(602, 344)"><g id="tx_4_145hmr04i07b6-fill" stroke="none" fill="#2c2c2c"><g><text style="font: bold 30px &quot;Roboto&quot;, sans-serif; white-space: pre;" font-weight="bold" font-size="30px" font-family="'Roboto', sans-serif"><tspan x="13.39" y="46" dominant-baseline="ideographic">4</tspan></text></g></g></g><g id="g-root-tx_rd_1d2dl644i07wu-fill" data-item-order="0" transform="translate(698, 338)"><g id="tx_rd_1d2dl644i07wu-fill" stroke="none" fill="#f79438"><g><text style="font: bold 20px &quot;Roboto&quot;, sans-serif; white-space: pre;" font-weight="bold" font-size="20px" font-family="'Roboto', sans-serif"><tspan x="12" y="34" dominant-baseline="ideographic">Reduced R&amp;D </tspan><tspan x="12" y="58" dominant-baseline="ideographic">costs</tspan></text></g></g></g><g id="g-root-tx__1q6yvl84i1m2t-fill" data-item-order="0" transform="translate(26, 398)"><g id="tx__1q6yvl84i1m2t-fill" stroke="none" fill="#ebf2ff"><g><text style="font: 15px &quot;Roboto&quot;, sans-serif; white-space: pre;" font-size="15px" font-family="'Roboto', sans-serif"><tspan x="44.78" y="31" dominant-baseline="ideographic">Direct access to </tspan><tspan x="21.17" y="49" dominant-baseline="ideographic">talented developers </tspan><tspan x="68.3" y="67" dominant-baseline="ideographic">and creators</tspan></text></g></g></g><g id="g-root-tx__mg31ik4i07wv-fill" data-item-order="0" transform="translate(698, 398)"><g id="tx__mg31ik4i07wv-fill" stroke="none" fill="#fff0e2"><g><text style="font: 15px &quot;Roboto&quot;, sans-serif; white-space: pre;" font-size="15px" font-family="'Roboto', sans-serif"><tspan x="12" y="28" dominant-baseline="ideographic">Reduction of </tspan><tspan x="12" y="46" dominant-baseline="ideographic">research and </tspan><tspan x="12" y="64" dominant-baseline="ideographic">development costs </tspan><tspan x="12" y="82" dominant-baseline="ideographic">through the use of </tspan><tspan x="12" y="100" dominant-baseline="ideographic">off-the-shelf </tspan><tspan x="12" y="118" dominant-baseline="ideographic">prototypes</tspan></text></g></g></g><g id="g-root-cp_4_g-4_4m7ak4i07pj-stroke" data-item-order="-393112" transform="translate(535, 320)"><g id="cp_4_g-4_4m7ak4i07pj-stroke" fill="none" stroke-linecap="round" stroke-linejoin="round" stroke-miterlimit="4" stroke="#2c2c2c" stroke-width="2"><g><path d="M 47 52C 47.000001 75.19596 65.804041 94.000001 89.000001 94.000001C 112.19596 94.000001 131.000001 75.19596 131.000001 52.000001C 131.000001 28.804041 112.19596 10.000001 89.000001 10.000001C 65.804041 10.000001 47.000001 28.804041 47.000001 52.000001"></path></g></g><g id="cp_4_g-4_4m7ak4i07pj-stroke" fill="none" stroke-linecap="round" stroke-linejoin="round" stroke-miterlimit="4" stroke="#2c2c2c" stroke-width="2"><g><path d="M 10 10.1102L 38 10C 38 10 33.4506 14.8106 29.5566 22.0887C 25.6625 29.3668 24.0892 36 24.0892 36L 10 10.1102Z"></path></g></g></g><g id="g-root-cp_3_g-3_1upwr584i08ap-stroke" data-item-order="-393106" transform="translate(535, 200)"><g id="cp_3_g-3_1upwr584i08ap-stroke" fill="none" stroke-linecap="round" stroke-linejoin="round" stroke-miterlimit="4" stroke="#2c2c2c" stroke-width="2"><g><path d="M 47 52C 47.000001 75.19596 65.804041 94.000001 89.000001 94.000001C 112.19596 94.000001 131.000001 75.19596 131.000001 52.000001C 131.000001 28.804041 112.19596 10.000001 89.000001 10.000001C 65.804041 10.000001 47.000001 28.804041 47.000001 52.000001"></path></g></g><g id="cp_3_g-3_1upwr584i08ap-stroke" fill="none" stroke-linecap="round" stroke-linejoin="round" stroke-miterlimit="4" stroke="#2c2c2c" stroke-width="2"><g><path d="M 10 93.8898L 38 94C 38 94 33.4506 89.1894 29.5566 81.9113C 25.6625 74.6332 24.0892 68 24.0892 68L 10 93.8898Z"></path></g></g></g><g id="g-root-cp_2_g-2_1hf2pv04i06pv-stroke" data-item-order="-393100" transform="translate(212, 200)"><g id="cp_2_g-2_1hf2pv04i06pv-stroke" fill="none" stroke-linecap="round" stroke-linejoin="round" stroke-miterlimit="4" stroke="#2c2c2c" stroke-width="2"><g><path d="M 10 52C 10.000001 75.19596 28.804041 94.000001 52.000001 94.000001C 75.19596 94.000001 94.000001 75.19596 94.000001 52.000001C 94.000001 28.804041 75.19596 10.000001 52.000001 10.000001C 28.804041 10.000001 10.000001 28.804041 10.000001 52.000001"></path></g></g><g id="cp_2_g-2_1hf2pv04i06pv-stroke" fill="none" stroke-linecap="round" stroke-linejoin="round" stroke-miterlimit="4" stroke="#2c2c2c" stroke-width="2"><g><path d="M 131 93.8898L 103 94C 103 94 107.5494 89.1894 111.4434 81.9113C 115.3375 74.6332 116.9108 68 116.9108 68L 131 93.8898Z"></path></g></g></g><g id="g-root-cp_1_g-1_18jfpm44i07il-stroke" data-item-order="-393094" transform="translate(212, 320)"><g id="cp_1_g-1_18jfpm44i07il-stroke" fill="none" stroke-linecap="round" stroke-linejoin="round" stroke-miterlimit="4" stroke="#2c2c2c" stroke-width="2"><g><path d="M 10 52C 10.000001 75.19596 28.804041 94.000001 52.000001 94.000001C 75.19596 94.000001 94.000001 75.19596 94.000001 52.000001C 94.000001 28.804041 75.19596 10.000001 52.000001 10.000001C 28.804041 10.000001 10.000001 28.804041 10.000001 52.000001"></path></g></g><g id="cp_1_g-1_18jfpm44i07il-stroke" fill="none" stroke-linecap="round" stroke-linejoin="round" stroke-miterlimit="4" stroke="#2c2c2c" stroke-width="2"><g><path d="M 131 10.1102L 103 10C 103 10 107.5494 14.8106 111.4434 22.0887C 115.3375 29.3668 116.9108 36 116.9108 36L 131 10.1102Z"></path></g></g></g><g id="g-root-cp_end_g-end_v8lobw4i05xr-stroke" data-item-order="-393088" transform="translate(350, 217)"><g id="cp_end_g-end_v8lobw4i05xr-stroke" fill="none" stroke-linecap="round" stroke-linejoin="round" stroke-miterlimit="4" stroke="#2c2c2c" stroke-width="2"><g><path d="M 10 94C 10.000002 140.391921 47.608083 178.000002 94.000002 178.000002C 140.391921 178.000002 178.000002 140.391921 178.000002 94.000002C 178.000002 47.608083 140.391921 10.000002 94.000002 10.000002C 47.608083 10.000002 10.000002 47.608083 10.000002 94.000002"></path></g></g></g><g id="g-root-tx__mcyo304i07i8-stroke" data-item-order="0" transform="translate(272, 38)"></g><g id="g-root-tx__18efwx84i1m9u-stroke" data-item-order="0" transform="translate(26, 110)"></g><g id="g-root-tx_hr_dl2ics4i06bk-stroke" data-item-order="0" transform="translate(698, 146)"></g><g id="g-root-tx__v3lvn04i1koz-stroke" data-item-order="0" transform="translate(26, 170)"></g><g id="g-root-tx_hr_9lzzg4i07wh-stroke" data-item-order="0" transform="translate(698, 206)"></g><g id="g-root-tx_2_dj733g4i07b8-stroke" data-item-order="0" transform="translate(242, 224)"></g><g id="g-root-tx_3_qu14do4i08w3-stroke" data-item-order="0" transform="translate(602, 224)"></g><g id="g-root-tx__1urs6ek4i07b5-stroke" data-item-order="0" transform="translate(362, 278)"></g><g id="g-root-tx__8wid0s4i1n2k-stroke" data-item-order="0" transform="translate(26, 338)"></g><g id="g-root-tx_1_1qdu3jg4i06bx-stroke" data-item-order="0" transform="translate(242, 344)"></g><g id="g-root-tx_4_145hmr04i07b6-stroke" data-item-order="0" transform="translate(602, 344)"></g><g id="g-root-tx_rd_1d2dl644i07wu-stroke" data-item-order="0" transform="translate(698, 338)"></g><g id="g-root-tx__1q6yvl84i1m2t-stroke" data-item-order="0" transform="translate(26, 398)"></g><g id="g-root-tx__mg31ik4i07wv-stroke" data-item-order="0" transform="translate(698, 398)"></g></g></g><path id="w1qa3lpo65s54y" d="M65.283 12.757a.35.35 0 0 0 .584.157l5.203-5.141-6.183 3.523.396 1.461zm-2.216-11.7a.35.35 0 0 0-.522.305v3.111l3.276-1.868-2.754-1.548zm3.728 2.105l-4.25 2.421v2.445l6.391-3.644-2.141-1.222zm4.708 3.303a.35.35 0 0 0 0-.609l-1.592-.9-7.365 4.199v1.782a.35.35 0 0 0 .523.305l8.435-4.777z M44.542 2.513c0-.433.355-.783.792-.783s.792.35.792.783-.355.783-.792.783-.792-.35-.792-.783zm59.171 0c0-.433.355-.783.792-.783s.792.35.792.783-.355.783-.792.783-.792-.35-.792-.783zm-85.951 7.636h-1.27v-.487c-.276.201-.864.609-1.881.609-1.202 0-2.274-.794-2.137-2.078.118-1.106 1.153-1.584 1.848-1.727l2.17-.345c0-.539-.29-.956-1.064-1.006s-1.21.305-1.571 1.017l-1.124-.605c1.218-2.631 5.029-1.764 5.029.414v4.207zm-1.27-2.86c.006.396-.062 1.112-.819 1.59-.587.37-1.841.299-1.903-.395-.049-.555.461-.791.906-.898l1.816-.297zm72.662 2.86h-1.27v-.487c-.276.201-.864.609-1.881.609-1.202 0-2.274-.794-2.137-2.078.118-1.106 1.153-1.584 1.848-1.727l2.17-.345c0-.539-.29-.956-1.064-1.006s-1.21.305-1.571 1.017l-1.124-.605c1.218-2.631 5.029-1.764 5.029.414v4.207zm-1.27-2.86c.006.396-.062 1.112-.82 1.59-.587.37-1.841.299-1.903-.395-.049-.555.461-.791.906-.898l1.816-.297zM99.096 10.149H97.85v-8.45h1.246v4.895l2.68-2.559h1.738l-2.633 2.535 2.715 3.578h-1.556l-2.077-2.707-.867.844v1.863zm6.053-6.114h-1.255v6.113h1.255V4.035zm-59.2 0h-1.255v6.113h1.255V4.035zm5.584 6.113V1.697h1.255v2.695c.361-.346 1-.485 1.47-.485 1.452 0 2.477 1.082 2.457 2.448v3.792h-1.27v-3.68c0-.408-.214-1.339-1.315-1.339-.968 0-1.342.756-1.342 1.339v3.681h-1.255zm-4.76-4.894V4.039h.621a.45.45 0 0 0 .45-.45v-.855h1.251v1.305h1.309v1.215h-1.309v3.109c0 .293.105.664.648.664.365 0 .531-.035.736-.07v1.137s-.361.113-.857.113c-1.398 0-1.777-1.051-1.777-1.788V5.254h-1.071zM36.528 4.039h-1.394l2.191 6.106h1.125l1.234-3.918 1.238 3.918h1.129l2.188-6.106h-1.383l-1.359 3.93-1.256-3.93h-1.124l-1.242 3.957-1.348-3.957zM26.212 7.141c-.02 1.566 1.187 3.129 3.223 3.129 1.566 0 2.383-.918 2.734-1.719L31.172 8c-.315.399-.801 1.094-1.738 1.094-1.145 0-1.825-.781-1.891-1.52h4.625c.074-.284.148-.995-.03-1.559-.336-1.064-1.221-2.102-2.839-2.102s-3.088 1.152-3.088 3.227zm1.363-.75h3.348c-.055-.43-.566-1.301-1.623-1.301a1.79 1.79 0 0 0-1.725 1.301zm-8.758.75c.038 1.758 1.277 3.133 3.145 3.133 1.074 0 1.723-.477 1.961-.672v.547h1.242V1.703h-1.258v2.888c-.414-.36-1.062-.68-1.93-.68-1.91 0-3.198 1.473-3.16 3.23zm1.309-.08c0 1.119.723 1.978 1.836 1.978a1.88 1.88 0 0 0 1.94-1.904c0-1.371-1.011-1.99-1.972-1.99s-1.805.798-1.805 1.916zm76.683-.028C96.771 5.275 95.532 3.9 93.664 3.9c-1.074 0-1.723.477-1.961.672v-.547h-1.242v8.22h1.258V9.583c.414.36 1.063.68 1.93.68 1.91 0 3.198-1.473 3.16-3.23zm-1.309.08c0-1.119-.723-1.978-1.836-1.978a1.88 1.88 0 0 0-1.94 1.904c0 1.371 1.011 1.99 1.972 1.99S95.5 8.231 95.5 7.113zM106.441 10.173V4.036h1.254v.382c.361-.346 1-.485 1.47-.485 1.452 0 2.477 1.082 2.457 2.448v3.792h-1.27V6.492c0-.408-.214-1.339-1.315-1.339-.969 0-1.342.756-1.342 1.339v3.681h-1.254zm-30.383-.021V1.824h1.084l4.215 5.777V1.824h1.32v8.328h-1.094l-4.207-5.796v5.796h-1.319zM5.24 10.149H4V2.377h1.014l2.664 3.597 2.654-3.592h1.03v7.766h-1.256V4.762L7.678 8.068 5.24 4.742v5.407z" transform="translate(20, 540)" fill="#ababab88" stroke="none"></path></svg>