<?xml version="1.0" encoding="utf-8"?>
<svg width="828" height="600" viewBox="0 0 828 600" style="fill:none;stroke:none;fill-rule:evenodd;clip-rule:evenodd;stroke-linecap:round;stroke-linejoin:round;stroke-miterlimit:1.5;" version="1.1" xmlns="http://www.w3.org/2000/svg">
  <style class="text-font-style fontImports" data-font-family="Roboto">
        @import url('https://fonts.googleapis.com/css2?family=Roboto:wght@400;700&amp;display=block');
    </style>
  <g id="items" style="isolation: isolate">
    <g id="blend" style="mix-blend-mode: normal">
      <g id="g-root-cp_4_g-4_1q8u7oc6g4dmw-fill" data-item-order="-355644" transform="translate(341.4100036621094, 328.0302734375)">
        <g id="cp_4_g-4_1q8u7oc6g4dmw-fill" stroke="none" fill="#ffe711">
          <g>
            <path d="M 135.02 10.22C 129.86 17.11 126.59 25.19 126.59 33.89L 126.59 72.67C 126.59 77.84 123.3 82.32 118.61 83.91C 104.71 85.17 90.4 85.87 75.78 85.96C 74.89 85.96 73.99 85.96 73.09 85.96L 72.59 85.96C 70.84 85.96 69.1 85.96 67.37 85.93C 66.56 85.93 65.76 85.93 64.96 85.9C 51.99 85.71 39.28 85.04 26.89 83.92C 22.03 82.44 18.59 77.88 18.59 72.58L 18.59 33.88C 18.59 25.09 15.25 16.93 10 10C 30.21 12.58 51.44 13.96 73.34 13.96C 95.24 13.96 115.3 12.66 135.02 10.21L 135.02 10.22Z"/>
          </g>
        </g>
      </g>
      <g id="g-root-cp_3_g-3_18i6o9o6g4cua-fill" data-item-order="-355640" transform="translate(291.2200012207031, 246.740234375)">
        <g id="cp_3_g-3_18i6o9o6g4cua-fill" stroke="none" fill="#a6da37">
          <g>
            <path d="M 235.52 10.26C 235.51 10.33 235.5 10.4 235.49 10.47C 233.9 20.99 230.86 31.04 226.6 40.41C 222.34 49.78 216.86 58.46 210.34 66.27C 205.62 71.93 200.35 77.12 194.63 81.77C 191.11 84.63 187.9 87.91 185.21 91.51C 165.49 93.96 144.83 95.26 123.53 95.26C 102.23 95.26 80.4 93.88 60.19 91.3C 57.53 87.78 54.38 84.58 50.93 81.77C 45.13 77.06 39.8 71.78 35.03 66.04C 28.52 58.2 23.04 49.47 18.8 40.07C 14.56 30.67 11.55 20.55 10 10C 43.93 18.48 82.45 23.26 123.28 23.26C 164.11 23.26 201.84 18.57 235.52 10.26Z"/>
          </g>
        </g>
      </g>
      <g id="g-root-cp_2_g-2_v6q5wc6g4ef8-fill" data-item-order="-355636" transform="translate(290, 177.5)">
        <g id="cp_2_g-2_v6q5wc6g4ef8-fill" stroke="none" fill="#43dd93">
          <g>
            <path d="M 238 62.5C 238 68.28 237.57 73.96 236.74 79.5C 203.06 87.81 164.91 92.5 124.5 92.5C 84.09 92.5 45.15 87.72 11.22 79.24C 10.42 73.77 10 68.19 10 62.5C 10 51.74 11.49 41.33 14.28 31.46C 16.39 23.96 19.26 16.78 22.79 10C 53.74 16.75 88.09 20.5 124.25 20.5C 160.41 20.5 194.43 16.78 225.27 10.1C 228.83 16.95 231.7 24.21 233.82 31.79C 236.54 41.56 238 51.86 238 62.5Z"/>
          </g>
        </g>
      </g>
      <g id="g-root-cp_1_g-1_hvw4m46g4cue-fill" data-item-order="-355632" transform="translate(302.7900085449219, 116)">
        <g id="cp_1_g-1_hvw4m46g4cue-fill" stroke="none" fill="#1ac3fb">
          <g>
            <path d="M 212.48 71.6C 181.64 78.28 147.45 82 111.46 82C 75.47 82 40.95 78.25 10 71.5C 10.15 71.19 10.31 70.88 10.47 70.58C 10.63 70.28 10.79 69.97 10.97 69.67C 14.61 62.96 18.91 56.66 23.78 50.84C 44.69 25.87 76.1 10 111.21 10L 111.46 10C 128.97 10.04 145.54 14.02 160.35 21.11C 175.23 28.22 188.33 38.48 198.78 51C 203.59 56.77 207.84 63.02 211.45 69.67C 211.81 70.31 212.15 70.95 212.48 71.6Z"/>
          </g>
        </g>
      </g>
      <g id="g-root-cp_0_g-0_4m44c6g4f7k-fill" data-item-order="-355628" transform="translate(356.010009765625, 410.7490234375)">
        <g id="cp_0_g-0_4m44c6g4f7k-fill" stroke="none" fill="#e8e8e8">
          <g>
            <path d="M 16.4 10.0113C 29.73 10.8213 43.89 11.2513 58.56 11.2513C 73.23 11.2513 86.59 10.8413 99.59 10.0813C 103.05 9.8813 105.99 12.6213 105.99 16.0813C 105.99 19.2313 103.56 21.8413 100.42 22.0313C 87.18 22.8313 73.13 23.2513 58.57 23.2513C 44.01 23.2513 29.14 22.8013 15.56 21.9613C 12.43 21.7613 10 19.1613 10 16.0113C 10 12.5413 12.94 9.8013 16.41 10.0113L 16.4 10.0113ZM 16.4 30.0113C 29.73 30.8213 43.89 31.2513 58.56 31.2513C 73.23 31.2513 86.59 30.8413 99.59 30.0813C 103.05 29.8813 105.99 32.6213 105.99 36.0813C 105.99 39.2313 103.56 41.8413 100.42 42.0313C 87.18 42.8313 73.13 43.2513 58.57 43.2513C 44.01 43.2513 29.14 42.8013 15.56 41.9613C 12.43 41.7613 10 39.1613 10 36.0113C 10 32.5413 12.94 29.8013 16.41 30.0113L 16.4 30.0113ZM 29.9902 50.691C 39.2202 51.061 48.7802 51.251 58.5602 51.251C 68.3402 51.251 77.1202 51.071 86.0002 50.731C 89.4202 50.601 92.2802 53.321 92.2802 56.751C 92.2802 59.951 89.7702 62.591 86.5702 62.711C 77.5102 63.061 68.1502 63.251 58.5602 63.251C 48.9702 63.251 38.8202 63.051 29.4002 62.671C 26.2102 62.541 23.7002 59.901 23.7002 56.711C 23.7002 53.281 26.5702 50.561 29.9902 50.691Z"/>
          </g>
        </g>
      </g>
      <g id="g-root-tx_roi_1luw4t86g4dfm-fill" data-item-order="0" transform="translate(278, 38)">
        <g id="tx_roi_1luw4t86g4dfm-fill" stroke="none" fill="#000000">
          <g>
            <text style="font: 20px &quot;Roboto&quot;, sans-serif; white-space: pre;" font-size="20px" font-family="'Roboto', sans-serif">
                            <tspan x="16.34" y="34" dominant-baseline="ideographic">Corporate benefits and ROI</tspan>
                        </text>
          </g>
        </g>
      </g>
      <g id="g-root-tx__v8ll5o6g4dfn-fill" data-item-order="0" transform="matrix(1, 0, 0, 1, 12.586, 172.086609)">
        <g id="tx__v8ll5o6g4dfn-fill" stroke="none" fill="#1ac3fb">
          <g>
            <text style="font: bold 25px &quot;Roboto&quot;, sans-serif; white-space: pre;" font-weight="bold" font-size="20px" font-family="'Roboto', sans-serif">
                            <tspan x="17.12" y="34" dominant-baseline="ideographic">Cost per case</tspan>
                        </text>
          </g>
        </g>
      </g>
      <g id="g-root-ic_bill_1hgy1y46g4cgd-fill" data-item-order="0" transform="translate(194, 158)"/>
      <g id="g-root-ic_bank_143m4bg6g5t6r-fill" data-item-order="0" transform="translate(566, 158)"/>
      <g id="g-root-tx_rd_qqwnrw6g5sll-fill" data-item-order="0" transform="matrix(1.092681, 0, 0, 1.249641, 623.219727, 152.800613)" style="">
        <g id="tx_rd_qqwnrw6g5sll-fill" stroke="none" fill="#43dd93">
          <g>
            <text style="font: bold 25px &quot;Roboto&quot;, sans-serif; white-space: pre;" font-weight="bold" font-size="20px" font-family="'Roboto', sans-serif">
                            <tspan x="12" y="34" dominant-baseline="ideographic">Savings on </tspan>
                            <tspan x="12" y="58" dominant-baseline="ideographic">R&amp;D</tspan>
                        </text>
          </g>
        </g>
      </g>
      <g id="g-root-tx_12004500_4mb1i46g4dfo-fill" data-item-order="0" transform="matrix(1.025333, 0, 0, 1.153483, -4.966729, 198.782776)" style="">
        <g id="tx_12004500_4mb1i46g4dfo-fill" stroke="none" fill="#000000">
          <g>
            <text style="font: 20px &quot;Roboto&quot;, sans-serif; white-space: pre;" font-size="15px" font-family="'Roboto', sans-serif">
                            <tspan x="32.73" y="31" dominant-baseline="ideographic">The cost to fix the </tspan>
                            <tspan x="12.3" y="49" dominant-baseline="ideographic">problem ranges from </tspan>
                            <tspan x="66.05" y="67" dominant-baseline="ideographic">$1,200-4,500</tspan>
                        </text>
          </g>
        </g>
      </g>
      <g id="g-root-tx_rd180007_1upwnz06g5t6q-fill" data-item-order="0" transform="matrix(1.069091, 0, 0, 1.204643, 624.11377, 216.46875)" style="">
        <g id="tx_rd180007_1upwnz06g5t6q-fill" stroke="none" fill="#000000">
          <g>
            <text style="font: 20px &quot;Roboto&quot;, sans-serif; white-space: pre;" font-size="15px" font-family="'Roboto', sans-serif">
                            <tspan x="12" y="31" dominant-baseline="ideographic">Reduced R&amp;D costs </tspan>
                            <tspan x="12" y="49" dominant-baseline="ideographic">from $18,000 to </tspan>
                            <tspan x="12" y="67" dominant-baseline="ideographic">$75,000 per project</tspan>
                        </text>
          </g>
        </g>
      </g>
      <g id="g-root-tx__18mjzvg6g4ff2-fill" data-item-order="0" transform="matrix(1.045188, 0, 0, 1.137302, 18.120302, 304.923248)" style="">
        <g id="tx__18mjzvg6g4ff2-fill" stroke="none" fill="#a6da37">
          <g>
            <text style="font: bold 25px &quot;Roboto&quot;, sans-serif; white-space: pre;" font-weight="bold" font-size="20px" font-family="'Roboto', sans-serif">
                            <tspan x="63.05" y="34" dominant-baseline="ideographic">Brand </tspan>
                            <tspan x="19.43" y="58" dominant-baseline="ideographic">awareness</tspan>
                        </text>
          </g>
        </g>
      </g>
      <g id="g-root-ic_coup_1ha2tzw6g5s74-fill" data-item-order="0" transform="translate(194, 302)"/>
      <g id="g-root-ic_3_v2zbdo6g77ym-fill" data-item-order="0" transform="translate(566, 326)"/>
      <g id="g-root-tx_viable_dkfy3g6g5tl8-fill" data-item-order="0" transform="matrix(1.071617, 0, 0, 1.255882, 627.053101, 321.708588)" style="">
        <g id="tx_viable_dkfy3g6g5tl8-fill" stroke="none" fill="#ffe711">
          <g>
            <text style="font: bold 25px &quot;Roboto&quot;, sans-serif; white-space: pre;" font-weight="bold" font-size="20px" font-family="'Roboto', sans-serif">
                            <tspan x="12" y="34" dominant-baseline="ideographic">Amount of </tspan>
                            <tspan x="12" y="58" dominant-baseline="ideographic">viable ideas</tspan>
                        </text>
          </g>
        </g>
      </g>
      <g id="g-root-tx_37_9lwt86g4emf-fill" data-item-order="0" transform="matrix(1.036724, 0, 0, 1.223829, -3.069786, 360.881256)" style="">
        <g id="tx_37_9lwt86g4emf-fill" stroke="none" fill="#000000">
          <g>
            <text style="font: 20px &quot;Roboto&quot;, sans-serif; white-space: pre;" font-size="15px" font-family="'Roboto', sans-serif">
                            <tspan x="32.72" y="31" dominant-baseline="ideographic">Increased brand </tspan>
                            <tspan x="17.03" y="49" dominant-baseline="ideographic">awareness by 37% </tspan>
                            <tspan x="31.45" y="67" dominant-baseline="ideographic">among students</tspan>
                        </text>
          </g>
        </g>
      </g>
      <g id="g-root-tx_83_1uuwgnw6g5slh-fill" data-item-order="0" transform="matrix(1.051618, 0, 0, 1.234293, 628.450928, 388.813232)" style="">
        <g id="tx_83_1uuwgnw6g5slh-fill" stroke="none" fill="#000000">
          <g>
            <text style="font: 20px &quot;Roboto&quot;, sans-serif; white-space: pre;" font-size="15px" font-family="'Roboto', sans-serif">
                            <tspan x="12" y="28" dominant-baseline="ideographic">Generating 8.3 ideas </tspan>
                            <tspan x="12" y="46" dominant-baseline="ideographic">for the hackathon</tspan>
                        </text>
          </g>
        </g>
      </g>
      <g id="g-root-cp_4_g-4_1q8u7oc6g4dmw-stroke" data-item-order="-355644" transform="translate(341.4100036621094, 328.0302734375)">
        <g id="cp_4_g-4_1q8u7oc6g4dmw-stroke" fill="none" stroke-linecap="round" stroke-linejoin="round" stroke-miterlimit="4" stroke="#2c2c2c" stroke-width="2">
          <g>
            <path d="M 135.02 10.22C 129.86 17.11 126.59 25.19 126.59 33.89L 126.59 72.67C 126.59 77.84 123.3 82.32 118.61 83.91C 104.71 85.17 90.4 85.87 75.78 85.96C 74.89 85.96 73.99 85.96 73.09 85.96L 72.59 85.96C 70.84 85.96 69.1 85.96 67.37 85.93C 66.56 85.93 65.76 85.93 64.96 85.9C 51.99 85.71 39.28 85.04 26.89 83.92C 22.03 82.44 18.59 77.88 18.59 72.58L 18.59 33.88C 18.59 25.09 15.25 16.93 10 10C 30.21 12.58 51.44 13.96 73.34 13.96C 95.24 13.96 115.3 12.66 135.02 10.21L 135.02 10.22Z"/>
          </g>
        </g>
      </g>
      <g id="g-root-cp_3_g-3_18i6o9o6g4cua-stroke" data-item-order="-355640" transform="translate(291.2200012207031, 246.740234375)">
        <g id="cp_3_g-3_18i6o9o6g4cua-stroke" fill="none" stroke-linecap="round" stroke-linejoin="round" stroke-miterlimit="4" stroke="#2c2c2c" stroke-width="2">
          <g>
            <path d="M 235.52 10.26C 235.51 10.33 235.5 10.4 235.49 10.47C 233.9 20.99 230.86 31.04 226.6 40.41C 222.34 49.78 216.86 58.46 210.34 66.27C 205.62 71.93 200.35 77.12 194.63 81.77C 191.11 84.63 187.9 87.91 185.21 91.51C 165.49 93.96 144.83 95.26 123.53 95.26C 102.23 95.26 80.4 93.88 60.19 91.3C 57.53 87.78 54.38 84.58 50.93 81.77C 45.13 77.06 39.8 71.78 35.03 66.04C 28.52 58.2 23.04 49.47 18.8 40.07C 14.56 30.67 11.55 20.55 10 10C 43.93 18.48 82.45 23.26 123.28 23.26C 164.11 23.26 201.84 18.57 235.52 10.26Z"/>
          </g>
        </g>
      </g>
      <g id="g-root-cp_2_g-2_v6q5wc6g4ef8-stroke" data-item-order="-355636" transform="translate(290, 177.5)">
        <g id="cp_2_g-2_v6q5wc6g4ef8-stroke" fill="none" stroke-linecap="round" stroke-linejoin="round" stroke-miterlimit="4" stroke="#2c2c2c" stroke-width="2">
          <g>
            <path d="M 238 62.5C 238 68.28 237.57 73.96 236.74 79.5C 203.06 87.81 164.91 92.5 124.5 92.5C 84.09 92.5 45.15 87.72 11.22 79.24C 10.42 73.77 10 68.19 10 62.5C 10 51.74 11.49 41.33 14.28 31.46C 16.39 23.96 19.26 16.78 22.79 10C 53.74 16.75 88.09 20.5 124.25 20.5C 160.41 20.5 194.43 16.78 225.27 10.1C 228.83 16.95 231.7 24.21 233.82 31.79C 236.54 41.56 238 51.86 238 62.5Z"/>
          </g>
        </g>
      </g>
      <g id="g-root-cp_1_g-1_hvw4m46g4cue-stroke" data-item-order="-355632" transform="translate(302.7900085449219, 116)">
        <g id="cp_1_g-1_hvw4m46g4cue-stroke" fill="none" stroke-linecap="round" stroke-linejoin="round" stroke-miterlimit="4" stroke="#2c2c2c" stroke-width="2">
          <g>
            <path d="M 212.48 71.6C 181.64 78.28 147.45 82 111.46 82C 75.47 82 40.95 78.25 10 71.5C 10.15 71.19 10.31 70.88 10.47 70.58C 10.63 70.28 10.79 69.97 10.97 69.67C 14.61 62.96 18.91 56.66 23.78 50.84C 44.69 25.87 76.1 10 111.21 10L 111.46 10C 128.97 10.04 145.54 14.02 160.35 21.11C 175.23 28.22 188.33 38.48 198.78 51C 203.59 56.77 207.84 63.02 211.45 69.67C 211.81 70.31 212.15 70.95 212.48 71.6Z"/>
          </g>
        </g>
      </g>
      <g id="g-root-cp_0_g-0_4m44c6g4f7k-stroke" data-item-order="-355628" transform="translate(356.010009765625, 410.7490234375)">
        <g id="cp_0_g-0_4m44c6g4f7k-stroke" fill="none" stroke-linecap="round" stroke-linejoin="round" stroke-miterlimit="4" stroke="#2c2c2c" stroke-width="2">
          <g>
            <path d="M 16.4 10.0113C 29.73 10.8213 43.89 11.2513 58.56 11.2513C 73.23 11.2513 86.59 10.8413 99.59 10.0813C 103.05 9.8813 105.99 12.6213 105.99 16.0813C 105.99 19.2313 103.56 21.8413 100.42 22.0313C 87.18 22.8313 73.13 23.2513 58.57 23.2513C 44.01 23.2513 29.14 22.8013 15.56 21.9613C 12.43 21.7613 10 19.1613 10 16.0113C 10 12.5413 12.94 9.8013 16.41 10.0113L 16.4 10.0113ZM 16.4 30.0113C 29.73 30.8213 43.89 31.2513 58.56 31.2513C 73.23 31.2513 86.59 30.8413 99.59 30.0813C 103.05 29.8813 105.99 32.6213 105.99 36.0813C 105.99 39.2313 103.56 41.8413 100.42 42.0313C 87.18 42.8313 73.13 43.2513 58.57 43.2513C 44.01 43.2513 29.14 42.8013 15.56 41.9613C 12.43 41.7613 10 39.1613 10 36.0113C 10 32.5413 12.94 29.8013 16.41 30.0113L 16.4 30.0113ZM 29.9902 50.691C 39.2202 51.061 48.7802 51.251 58.5602 51.251C 68.3402 51.251 77.1202 51.071 86.0002 50.731C 89.4202 50.601 92.2802 53.321 92.2802 56.751C 92.2802 59.951 89.7702 62.591 86.5702 62.711C 77.5102 63.061 68.1502 63.251 58.5602 63.251C 48.9702 63.251 38.8202 63.051 29.4002 62.671C 26.2102 62.541 23.7002 59.901 23.7002 56.711C 23.7002 53.281 26.5702 50.561 29.9902 50.691Z"/>
          </g>
        </g>
      </g>
      <g id="g-root-tx_roi_1luw4t86g4dfm-stroke" data-item-order="0" transform="translate(278, 38)"/>
      <g id="g-root-tx__v8ll5o6g4dfn-stroke" data-item-order="0" transform="translate(50, 158)"/>
      <g id="g-root-ic_bill_1hgy1y46g4cgd-stroke" data-item-order="0" transform="matrix(1.43517, 0, 0, 1.468253, 196.627136, 140.596603)" style="">
        <g id="ic_bill_1hgy1y46g4cgd-stroke" fill="none" stroke-linecap="round" stroke-linejoin="round" stroke-miterlimit="4" stroke="#1ac3fb" stroke-width="2">
          <g>
            <path d="M 42.139999 43.942001L 51 41C 53.221539 40.34127 55.618008 41.140095 57 43C 32.542 55.226002 40.456001 55.153999 19 48L 11 53M 29 45L 40 45C 40.799885 45.143661 41.608437 44.796913 42.055729 44.118397C 42.503025 43.439884 42.503025 42.56012 42.055729 41.881607C 41.608437 41.203091 40.799885 40.856342 40 41L 34 41C 31.629362 38.554111 28.404079 37.120651 25 37L 19 37L 11 41M 23.007999 15L 53.007999 15L 53.007999 31L 23.007999 31ZM 44.091999 15L 53.007999 22M 45.349998 31L 53.007999 24M 23.007999 24L 30.664 31M 23.007999 22L 31.882 15M 35.007999 23C 35.008003 24.656855 36.351147 26 38.008003 26C 39.664856 26 41.008003 24.656855 41.008003 23C 41.008003 21.343147 39.664856 20 38.008003 20C 36.351147 20 35.008003 21.343147 35.008003 23Z"/>
          </g>
        </g>
      </g>
      <g id="g-root-ic_bank_143m4bg6g5t6r-stroke" data-item-order="0" transform="matrix(1.564109, 0, 0, 1.500468, 538.294189, 137.647354)" style="">
        <g id="ic_bank_143m4bg6g5t6r-stroke" fill="none" stroke-linecap="round" stroke-linejoin="round" stroke-miterlimit="4" stroke="#43dd93" stroke-width="2">
          <g>
            <path d="M 34 23C 37.581032 22.755856 41.130409 23.807892 44 25.964001M 57 29C 57 31.209139 55.209141 33 53 33M 29.1 17.559999C 27.54055 14.798898 24.319778 13.430994 21.25 14.226C 20.898516 14.317955 20.624557 14.59331 20.534389 14.945257C 20.444221 15.297203 20.552031 15.670366 20.816 15.92C 21.784384 16.832584 22.472601 18.002277 22.799999 19.292C 22.904243 19.706205 22.733902 20.140894 22.375999 20.374001C 18.556913 22.716766 15.927543 26.586531 15.156 31L 13 31C 11.895431 31 11 31.89543 11 33L 11 37C 11 38.104568 11.895431 39 13 39L 16.4 39C 19.901131 45.395782 26.713509 49.266453 34 49C 44.493999 49 53 41.837997 53 33C 53 22.666 41.400002 14.8 29.1 17.559999ZM 22 29.5C 22.276142 29.5 22.5 29.723858 22.5 30C 22.5 30.276142 22.276142 30.5 22 30.5C 21.723858 30.5 21.5 30.276142 21.5 30C 21.501095 29.724312 21.724312 29.501095 22 29.5M 25.007999 47.091999L 23.007999 54M 43.007999 47.091999L 45.007999 54"/>
          </g>
        </g>
      </g>
      <g id="g-root-tx_rd_qqwnrw6g5sll-stroke" data-item-order="0" transform="translate(626, 158)"/>
      <g id="g-root-tx_12004500_4mb1i46g4dfo-stroke" data-item-order="0" transform="translate(38, 194)"/>
      <g id="g-root-tx_rd180007_1upwnz06g5t6q-stroke" data-item-order="0" transform="translate(626, 218)"/>
      <g id="g-root-tx__18mjzvg6g4ff2-stroke" data-item-order="0" transform="translate(74, 302)"/>
      <g id="g-root-ic_coup_1ha2tzw6g5s74-stroke" data-item-order="0" transform="matrix(1.354583, 0, 0, 1.209526, 190.099594, 290.057007)" style="">
        <g id="ic_coup_1ha2tzw6g5s74-stroke" fill="none" stroke-linecap="round" stroke-linejoin="round" stroke-miterlimit="4" stroke="#a6da37" stroke-width="2">
          <g>
            <path d="M 38.181999 15.238L 37.599998 14.719999C 37.145935 14.315823 36.8862 13.736894 36.8862 13.129C 36.8862 12.521107 37.145935 11.942178 37.599998 11.538L 37.599998 11.538C 37.990334 11.191546 38.494091 11.000145 39.015999 11L 40.984001 11C 41.505909 11.000145 42.00967 11.191546 42.400002 11.538L 42.400002 11.538C 42.854065 11.942178 43.113804 12.521107 43.113804 13.129C 43.113804 13.736894 42.854065 14.315823 42.400002 14.72L 41.818001 15.238M 15 39C 15 42.313709 17.686291 45 21 45C 24.313709 45 27 42.313709 27 39C 27 35.686295 24.313709 33 21 33C 17.686291 33 15 35.686295 15 39ZM 15.83 35.954002C 18.710327 38.937653 23.136608 39.827209 26.945999 38.188M 54.284 45.287998C 53.485069 43.976749 53.086746 42.460609 53.137997 40.925999L 53.138 39.141998C 53.138 35.752075 50.389923 33.004002 47 33.004002C 43.610077 33.004002 40.862 35.752075 40.862 39.141998L 40.862 40.926003C 40.91325 42.460609 40.514923 43.976749 39.715996 45.287998M 40.862 40.155998C 43.219196 40.152176 45.458691 39.125465 47 37.342003C 48.541309 39.125465 50.780807 40.152176 53.138 40.156002M 41.612 40.120003C 41.889442 42.888142 44.218987 44.995876 47.000999 44.995876C 49.783012 44.995876 52.112556 42.888142 52.389999 40.120003M 21 47C 15.477152 47 11 51.477154 11 57L 31 57C 31 51.477154 26.522848 47 21 47ZM 47 47C 41.477154 47 37 51.477154 37 57L 57 57C 57 51.477154 52.52285 47 47 47ZM 38.599998 28.858C 41.500252 29.450012 44.45937 28.153774 45.990616 25.620554C 47.521862 23.087334 47.294193 19.864792 45.421997 17.57202C 43.549801 15.279248 40.437828 14.411924 37.64962 15.405817C 34.861416 16.39971 32.99976 19.039948 33 22M 31.4 15.142C 28.499752 14.54999 25.540634 15.846228 24.009388 18.379448C 22.478142 20.912666 22.705811 24.13521 24.578005 26.427982C 26.450201 28.720753 29.562174 29.588076 32.35038 28.594183C 35.138588 27.600292 37.000244 24.960054 37 22"/>
          </g>
        </g>
      </g>
      <g id="g-root-ic_3_v2zbdo6g77ym-stroke" data-item-order="0" transform="matrix(1.659022, 0, 0, 1.560169, 528.023865, 303.988647)" style="">
        <g id="ic_3_v2zbdo6g77ym-stroke" fill="none" stroke-linecap="round" stroke-linejoin="round" stroke-miterlimit="4" stroke="#ffe711" stroke-width="2">
          <g>
            <path d="M 26.5 44.5L 26.5 38.5C 26.5 37.395432 25.604568 36.5 24.5 36.5L 13.5 36.5C 12.395431 36.5 11.5 37.395432 11.5 38.5L 11.5 56.5L 56.5 56.5L 56.5 44.5ZM 23.5 36.5L 14.5 36.5L 16 11.5L 22 11.5L 23.5 36.5ZM 29.5 50.5L 32.5 50.5M 38.5 50.5L 41.5 50.5M 47.5 50.5L 50.5 50.5M 15.572001 18.5L 22.428001 18.5M 40.330002 35.556C 40.329681 37.182152 41.64785 38.500572 43.273998 38.500572C 44.90015 38.500572 46.218315 37.182152 46.217999 35.556C 46.218315 33.929848 44.90015 32.611427 43.273998 32.611427C 41.64785 32.611427 40.329681 33.929848 40.330002 35.556M 53.627998 38.312L 52.312 36.891998C 51.61375 36.138184 51.61375 34.973816 52.312 34.220001L 54.334 32.040001C 55.119774 31.19714 55.264259 29.940475 54.690269 28.941278C 54.116283 27.942081 52.957943 27.433823 51.834 27.688L 48.944 28.356001C 47.944466 28.58707 46.937218 28.002499 46.641998 27.019999L 45.773998 24.17C 45.440533 23.068239 44.425117 22.314667 43.273998 22.314667C 42.122879 22.314667 41.107468 23.068239 40.773998 24.169998L 39.905998 27.02C 39.609085 28.002129 38.601883 28.586166 37.602005 28.356001L 34.714001 27.688C 33.589699 27.432571 32.43029 27.940376 31.855644 28.939917C 31.281 29.939459 31.425545 31.196917 32.211998 32.040001L 34.234001 34.220001C 34.932251 34.973816 34.932251 36.138184 34.234001 36.891998L 32.919998 38.312"/>
          </g>
        </g>
      </g>
      <g id="g-root-tx_viable_dkfy3g6g5tl8-stroke" data-item-order="0" transform="translate(626, 326)"/>
      <g id="g-root-tx_37_9lwt86g4emf-stroke" data-item-order="0" transform="translate(50, 362)"/>
      <g id="g-root-tx_83_1uuwgnw6g5slh-stroke" data-item-order="0" transform="translate(626, 386)"/>
    </g>
  </g>
</svg>