<?xml version="1.0" encoding="utf-8" standalone="yes"?>
<!DOCTYPE svg PUBLIC "-//W3C//DTD SVG 1.1//EN" "http://www.w3.org/Graphics/SVG/1.1/DTD/svg11.dtd">
<svg width="1068" height="626" viewBox="0 0 1068 626" style="fill:none;stroke:none;fill-rule:evenodd;clip-rule:evenodd;stroke-linecap:round;stroke-linejoin:round;stroke-miterlimit:1.5;" version="1.1" xmlns="http://www.w3.org/2000/svg" xmlns:xlink="http://www.w3.org/1999/xlink"><style class="text-font-style fontImports" data-font-family="Roboto">@import url('https://fonts.googleapis.com/css2?family=Roboto:wght@400;700&amp;display=block');</style><g id="items" style="isolation: isolate"><g id="blend" style="mix-blend-mode: normal"><g id="g-root-cp_-1_base_1_740fw5vvd37-fill" data-item-order="-515669" transform="translate(14, 345.578857421875)"><g id="cp_-1_base_1_740fw5vvd37-fill" stroke="none" fill="url(#gradient-8a8a8a-330675446)"><g><path d="M 112 79.137289L 214 43.303889L 214 28.970589L 112 64.803889L 112 79.137289Z"></path></g></g><g id="cp_-1_base_1_740fw5vvd37-fill" stroke="none" fill="url(#gradient-8a8a8a-330675446)"><g><path d="M 10 28.970589L 10 43.303889L 112 79.137289L 112 64.803889L 10 28.970589Z"></path></g></g><g id="cp_-1_base_1_740fw5vvd37-fill" stroke="none" fill="url(#gradient-8a8a8a-330675446)"><g><path d="M 160 26.1373C 160 39.3921 138.51 50.1373 112 50.1373C 85.4903 50.1372 64 39.3921 64 26.1372L 64 10L 10 28.9706L 112 64.8039L 214 28.9706L 160 10L 160 26.1373Z"></path></g></g></g><g id="g-root-cp_1_g-1_1d1r0vw5vvc3z-fill" data-item-order="-515661" transform="translate(68, 139.578857421875)"><g id="cp_1_g-1_1d1r0vw5vvc3z-fill" stroke="none" fill="url(#gradient-4f83d8-135982273)"><g><path d="M 10 34C 10 20.7452 31.4903 10 58 10C 84.5097 10 106 20.7452 106 34L 10 34ZM 106 34.000008L 10 34.000008L 10 234L 106 234L 106 34.000008ZM 58 258C 84.5097 258 106 247.2548 106 234L 10 234C 10 247.2548 31.4903 258 58 258Z"></path></g></g></g><g id="g-root-cp_-1_base_2_14640n05vvdoh-fill" data-item-order="-515625" transform="translate(218, 285.578857421875)"><g id="cp_-1_base_2_14640n05vvdoh-fill" stroke="none" fill="url(#gradient-8a8a8a-330675446)"><g><path d="M 112 79.137289L 214 43.303889L 214 28.970589L 112 64.803889L 112 79.137289Z"></path></g></g><g id="cp_-1_base_2_14640n05vvdoh-fill" stroke="none" fill="url(#gradient-8a8a8a-330675446)"><g><path d="M 10 28.970589L 10 43.303889L 112 79.137289L 112 64.803889L 10 28.970589Z"></path></g></g><g id="cp_-1_base_2_14640n05vvdoh-fill" stroke="none" fill="url(#gradient-8a8a8a-330675446)"><g><path d="M 160 26.1373C 160 39.3921 138.51 50.1373 112 50.1373C 85.4903 50.1372 64 39.3921 64 26.1372L 64 10L 10 28.9706L 112 64.8039L 214 28.9706L 160 10L 160 26.1373Z"></path></g></g></g><g id="g-root-cp_2_g-2_hzmz3w5vvcwd-fill" data-item-order="-515617" transform="translate(272, 134)"><g id="cp_2_g-2_hzmz3w5vvcwd-fill" stroke="none" fill="url(#gradient-2898bd-56937253)"><g><path d="M 10 34C 10 20.7452 31.4903 10 58 10C 84.5097 10 106 20.7452 106 34L 10 34ZM 106 33.999996L 10 33.999996L 10 179.578857L 106 179.578857L 106 33.999996ZM 58 203.578857C 84.5097 203.578857 106 192.833657 106 179.578857L 10 179.578857C 10 192.833657 31.4903 203.578857 58 203.578857Z"></path></g></g></g><g id="g-root-cp_-1_base_3_8zfp85vvc3r-fill" data-item-order="-515581" transform="translate(422, 345.578857421875)"><g id="cp_-1_base_3_8zfp85vvc3r-fill" stroke="none" fill="url(#gradient-8a8a8a-330675446)"><g><path d="M 112 79.137289L 214 43.303889L 214 28.970589L 112 64.803889L 112 79.137289Z"></path></g></g><g id="cp_-1_base_3_8zfp85vvc3r-fill" stroke="none" fill="url(#gradient-8a8a8a-330675446)"><g><path d="M 10 28.970589L 10 43.303889L 112 79.137289L 112 64.803889L 10 28.970589Z"></path></g></g><g id="cp_-1_base_3_8zfp85vvc3r-fill" stroke="none" fill="url(#gradient-8a8a8a-330675446)"><g><path d="M 160 26.1373C 160 39.3921 138.51 50.1373 112 50.1373C 85.4903 50.1372 64 39.3921 64 26.1372L 64 10L 10 28.9706L 112 64.8039L 214 28.9706L 160 10L 160 26.1373Z"></path></g></g></g><g id="g-root-cp_3_g-3_1lymzb05vvdhn-fill" data-item-order="-515573" transform="translate(476, 253.368408203125)"><g id="cp_3_g-3_1lymzb05vvdhn-fill" stroke="none" fill="url(#gradient-40ae79-389135447)"><g><path d="M 10 34C 10 20.7452 31.4903 10 58 10C 84.5097 10 106 20.7452 106 34L 10 34ZM 106 34L 10 34L 10 120.210449L 106 120.210449L 106 34ZM 58 144.210449C 84.5097 144.210449 106 133.465249 106 120.210449L 10 120.210449C 10 133.465249 31.4903 144.210449 58 144.210449Z"></path></g></g></g><g id="g-root-cp_-1_base_4_vccfng5vvdhp-fill" data-item-order="-515537" transform="translate(626, 285.578857421875)"><g id="cp_-1_base_4_vccfng5vvdhp-fill" stroke="none" fill="url(#gradient-8a8a8a-330675446)"><g><path d="M 112 79.137289L 214 43.303889L 214 28.970589L 112 64.803889L 112 79.137289Z"></path></g></g><g id="cp_-1_base_4_vccfng5vvdhp-fill" stroke="none" fill="url(#gradient-8a8a8a-330675446)"><g><path d="M 10 28.970589L 10 43.303889L 112 79.137289L 112 64.803889L 10 28.970589Z"></path></g></g><g id="cp_-1_base_4_vccfng5vvdhp-fill" stroke="none" fill="url(#gradient-8a8a8a-330675446)"><g><path d="M 160 26.1373C 160 39.3921 138.51 50.1373 112 50.1373C 85.4903 50.1372 64 39.3921 64 26.1372L 64 10L 10 28.9706L 112 64.8039L 214 28.9706L 160 10L 160 26.1373Z"></path></g></g></g><g id="g-root-cp_4_g-4_m7cb3w5vwqgx-fill" data-item-order="-515529" transform="translate(680, 208.21044921875)"><g id="cp_4_g-4_m7cb3w5vwqgx-fill" stroke="none" fill="url(#gradient-87aa3f-469929121)"><g><path d="M 10 34C 10 20.7452 31.4903 10 58 10C 84.5097 10 106 20.7452 106 34L 10 34ZM 106 34.000002L 10 34.000002L 10 105.368408L 106 105.368408L 106 34.000002ZM 58 129.368408C 84.5097 129.368408 106 118.623208 106 105.368408L 10 105.368408C 10 118.623208 31.4903 129.368408 58 129.368408Z"></path></g></g></g><g id="g-root-cp_-1_base_5_8vvsqk5vws1v-fill" data-item-order="-515491" transform="translate(830, 345.578857421875)"><g id="cp_-1_base_5_8vvsqk5vws1v-fill" stroke="none" fill="url(#gradient-8a8a8a-330675446)"><g><path d="M 112 79.137289L 214 43.303889L 214 28.970589L 112 64.803889L 112 79.137289Z"></path></g></g><g id="cp_-1_base_5_8vvsqk5vws1v-fill" stroke="none" fill="url(#gradient-8a8a8a-330675446)"><g><path d="M 10 28.970589L 10 43.303889L 112 79.137289L 112 64.803889L 10 28.970589Z"></path></g></g><g id="cp_-1_base_5_8vvsqk5vws1v-fill" stroke="none" fill="url(#gradient-8a8a8a-330675446)"><g><path d="M 160 26.1373C 160 39.3921 138.51 50.1373 112 50.1373C 85.4903 50.1372 64 39.3921 64 26.1372L 64 10L 10 28.9706L 112 64.8039L 214 28.9706L 160 10L 160 26.1373Z"></path></g></g></g><g id="g-root-cp_5_g-5_1lqit6k5vwr2n-fill" data-item-order="-515483" transform="translate(884, 288)"><defs><linearGradient id="gradient-8a8a8a-330675446" x2="0" y2="1"><stop offset="0" stop-color="#959595"></stop><stop offset="1" stop-color="#7f7f7f"></stop></linearGradient><linearGradient id="gradient-4f83d8-135982273" x2="0" y2="1"><stop offset="0" stop-color="#4e88e6"></stop><stop offset="1" stop-color="#4f7eca"></stop></linearGradient><linearGradient id="gradient-2898bd-56937253" x2="0" y2="1"><stop offset="0" stop-color="#1fa9d7"></stop><stop offset="1" stop-color="#3187a3"></stop></linearGradient><linearGradient id="gradient-40ae79-389135447" x2="0" y2="1"><stop offset="0" stop-color="#3bc482"></stop><stop offset="1" stop-color="#449870"></stop></linearGradient><linearGradient id="gradient-87aa3f-469929121" x2="0" y2="1"><stop offset="0" stop-color="#91bb39"></stop><stop offset="1" stop-color="#7d9844"></stop></linearGradient><linearGradient id="gradient-c3b321-14556876" x2="0" y2="1"><stop offset="0" stop-color="#ddc916"></stop><stop offset="1" stop-color="#a99c2c"></stop></linearGradient></defs><g id="cp_5_g-5_1lqit6k5vwr2n-fill" stroke="none" fill="url(#gradient-c3b321-14556876)"><g><path d="M 10 34C 10 20.7452 31.4903 10 58 10C 84.5097 10 106 20.7452 106 34L 10 34ZM 106 33.999998L 10 33.999998L 10 85.578857L 106 85.578857L 106 33.999998ZM 58 109.578857C 84.5097 109.578857 106 98.833657 106 85.578857L 10 85.578857C 10 98.833657 31.4903 109.578857 58 109.578857Z"></path></g></g></g><g id="g-root-tx_12_qv9zcs5vwqa3-fill" data-item-order="0" transform="translate(698, 160.21044921875)"><g id="tx_12_qv9zcs5vwqa3-fill" stroke="none" fill="#a6da37"><g><text style="font: bold 25px &quot;Roboto&quot;, sans-serif; white-space: pre;" font-weight="bold" font-size="25px" font-family="'Roboto', sans-serif"><tspan x="16.41" y="43.5" dominant-baseline="ideographic">12%</tspan></text></g></g></g><g id="g-root-tx_27_1ltn6m45vws91-fill" data-item-order="0" transform="translate(290, 85.9998779296875)"><g id="tx_27_1ltn6m45vws91-fill" stroke="none" fill="#1ac3fb"><g><text style="font: bold 25px &quot;Roboto&quot;, sans-serif; white-space: pre;" font-weight="bold" font-size="25px" font-family="'Roboto', sans-serif"><tspan x="16.41" y="43.5" dominant-baseline="ideographic">27%</tspan></text></g></g></g><g id="g-root-tx_15_v9827w5vwr9c-fill" data-item-order="0" transform="translate(494, 205.368408203125)"><g id="tx_15_v9827w5vwr9c-fill" stroke="none" fill="#43dd93"><g><text style="font: bold 25px &quot;Roboto&quot;, sans-serif; white-space: pre;" font-weight="bold" font-size="25px" font-family="'Roboto', sans-serif"><tspan x="16.41" y="43.5" dominant-baseline="ideographic">15%</tspan></text></g></g></g><g id="g-root-tx_8_qwixj05vwsg6-fill" data-item-order="0" transform="translate(908, 240)"><g id="tx_8_qwixj05vwsg6-fill" stroke="none" fill="#ffe711"><g><text style="font: bold 25px &quot;Roboto&quot;, sans-serif; white-space: pre;" font-weight="bold" font-size="25px" font-family="'Roboto', sans-serif"><tspan x="17.58" y="43.5" dominant-baseline="ideographic">8%</tspan></text></g></g></g><g id="g-root-tx_38_ddkq4c5vwqa2-fill" data-item-order="0" transform="translate(86, 91.578857421875)"><g id="tx_38_ddkq4c5vwqa2-fill" stroke="none" fill="#4f91fc"><g><text style="font: bold 25px &quot;Roboto&quot;, sans-serif; white-space: pre;" font-weight="bold" font-size="25px" font-family="'Roboto', sans-serif"><tspan x="16.41" y="43.5" dominant-baseline="ideographic">38%</tspan></text></g></g></g><g id="g-root-tx__13zv9rw5vwqa1-fill" data-item-order="0" transform="translate(374, 38)"><g id="tx__13zv9rw5vwqa1-fill" stroke="none" fill="#f4f4f4"><g><text style="font: 20px &quot;Roboto&quot;, sans-serif; white-space: pre;" font-size="20px" font-family="'Roboto', sans-serif"><tspan x="15.35" y="34" dominant-baseline="ideographic">Distribution of projects by sector</tspan></text></g></g></g><g id="g-root-tx__1hapb245vy60w-fill" data-item-order="0" transform="translate(848, 507.578857421875)"><g id="tx__1hapb245vy60w-fill" stroke="none" fill="#f4f4f4"><g><text style="font: 15px &quot;Roboto&quot;, sans-serif; white-space: pre;" font-size="15px" font-family="'Roboto', sans-serif"><tspan x="36.34" y="28" dominant-baseline="ideographic">Advancements in </tspan><tspan x="28.94" y="46" dominant-baseline="ideographic">medical technology</tspan></text></g></g></g><g id="g-root-tx_iot_zn65305vwrgu-fill" data-item-order="0" transform="translate(236, 387.578857421875)"><g id="tx_iot_zn65305vwrgu-fill" stroke="none" fill="#f4f4f4"><g><text style="font: bold 20px &quot;Roboto&quot;, sans-serif; white-space: pre;" font-weight="bold" font-size="20px" font-family="'Roboto', sans-serif"><tspan x="45.58" y="34" dominant-baseline="ideographic">IoT/Smart </tspan><tspan x="56.22" y="58" dominant-baseline="ideographic">Devices</tspan></text></g></g></g><g id="g-root-tx_fintech_8zfp85vwqa4-fill" data-item-order="0" transform="translate(644, 387.578857421875)"><g id="tx_fintech_8zfp85vwqa4-fill" stroke="none" fill="#f4f4f4"><g><text style="font: bold 20px &quot;Roboto&quot;, sans-serif; white-space: pre;" font-weight="bold" font-size="20px" font-family="'Roboto', sans-serif"><tspan x="58.29" y="34" dominant-baseline="ideographic">FinTech</tspan></text></g></g></g><g id="g-root-tx__18n6gxo5vwt8t-fill" data-item-order="0" transform="translate(644, 423.578857421875)"><g id="tx__18n6gxo5vwt8t-fill" stroke="none" fill="#f4f4f4"><g><text style="font: 15px &quot;Roboto&quot;, sans-serif; white-space: pre;" font-size="15px" font-family="'Roboto', sans-serif"><tspan x="15.5" y="28" dominant-baseline="ideographic">Innovations in financial </tspan><tspan x="55.38" y="46" dominant-baseline="ideographic">technology</tspan></text></g></g></g><g id="g-root-tx__14147y45vwsg3-fill" data-item-order="0" transform="translate(32, 447.578857421875)"><g id="tx__14147y45vwsg3-fill" stroke="none" fill="#f4f4f4"><g><text style="font: bold 20px &quot;Roboto&quot;, sans-serif; white-space: pre;" font-weight="bold" font-size="20px" font-family="'Roboto', sans-serif"><tspan x="55.39" y="34" dominant-baseline="ideographic">Artificial </tspan><tspan x="41.68" y="58" dominant-baseline="ideographic">intelligence</tspan></text></g></g></g><g id="g-root-tx_iot_90vlfg5vwrgv-fill" data-item-order="0" transform="translate(236, 447.578857421875)"><g id="tx_iot_90vlfg5vwrgv-fill" stroke="none" fill="#f4f4f4"><g><text style="font: 15px &quot;Roboto&quot;, sans-serif; white-space: pre;" font-size="15px" font-family="'Roboto', sans-serif"><tspan x="17.63" y="28" dominant-baseline="ideographic">Smart devices and IoT </tspan><tspan x="49.27" y="46" dominant-baseline="ideographic">technologies</tspan></text></g></g></g><g id="g-root-tx__1usekak5vwrux-fill" data-item-order="0" transform="translate(440, 447.578857421875)"><g id="tx__1usekak5vwrux-fill" stroke="none" fill="#f4f4f4"><g><text style="font: bold 20px &quot;Roboto&quot;, sans-serif; white-space: pre;" font-weight="bold" font-size="20px" font-family="'Roboto', sans-serif"><tspan x="31.68" y="34" dominant-baseline="ideographic">Cybersecurity</tspan></text></g></g></g><g id="g-root-tx__4g2am45vy68f-fill" data-item-order="0" transform="translate(848, 447.578857421875)"><g id="tx__4g2am45vy68f-fill" stroke="none" fill="#f4f4f4"><g><text style="font: bold 20px &quot;Roboto&quot;, sans-serif; white-space: pre;" font-weight="bold" font-size="20px" font-family="'Roboto', sans-serif"><tspan x="58.35" y="34" dominant-baseline="ideographic">Medical </tspan><tspan x="41.75" y="58" dominant-baseline="ideographic">Technology</tspan></text></g></g></g><g id="g-root-tx__1hhkj0c5vwqa2-fill" data-item-order="0" transform="translate(440, 483.578857421875)"><g id="tx__1hhkj0c5vwqa2-fill" stroke="none" fill="#f4f4f4"><g><text style="font: 15px &quot;Roboto&quot;, sans-serif; white-space: pre;" font-size="15px" font-family="'Roboto', sans-serif"><tspan x="27.81" y="28" dominant-baseline="ideographic">Initiatives to protect </tspan><tspan x="23.97" y="46" dominant-baseline="ideographic">against cyber threats</tspan></text></g></g></g><g id="g-root-tx__hun6f05vwrnw-fill" data-item-order="0" transform="translate(32, 507.578857421875)"><g id="tx__hun6f05vwrnw-fill" stroke="none" fill="#f4f4f4"><g><text style="font: 15px &quot;Roboto&quot;, sans-serif; white-space: pre;" font-size="15px" font-family="'Roboto', sans-serif"><tspan x="23.42" y="28" dominant-baseline="ideographic">Projects related to AI </tspan><tspan x="21.52" y="46" dominant-baseline="ideographic">and machine learning</tspan></text></g></g></g><g id="g-root-cp_-1_base_1_740fw5vvd37-stroke" data-item-order="-515669" transform="translate(14, 345.578857421875)"><g id="cp_-1_base_1_740fw5vvd37-stroke" fill="none" stroke-linecap="round" stroke-linejoin="round" stroke-miterlimit="4" stroke="#f4f4f4" stroke-width="2"><g><path d="M 112 79.137289L 214 43.303889L 214 28.970589L 112 64.803889L 112 79.137289Z"></path></g></g><g id="cp_-1_base_1_740fw5vvd37-stroke" fill="none" stroke-linecap="round" stroke-linejoin="round" stroke-miterlimit="4" stroke="#f4f4f4" stroke-width="2"><g><path d="M 10 28.970589L 10 43.303889L 112 79.137289L 112 64.803889L 10 28.970589Z"></path></g></g><g id="cp_-1_base_1_740fw5vvd37-stroke" fill="none" stroke-linecap="round" stroke-linejoin="round" stroke-miterlimit="4" stroke="#f4f4f4" stroke-width="2"><g><path d="M 160 26.1373C 160 39.3921 138.5097 50.1373 112 50.1373C 85.4903 50.1372 64 39.3921 64 26.1372L 64 10L 10 28.9706L 112 64.8039L 214 28.9706L 160 10L 160 26.1373Z"></path></g></g></g><g id="g-root-cp_1_g-1_1d1r0vw5vvc3z-stroke" data-item-order="-515661" transform="translate(68, 139.578857421875)"><g id="cp_1_g-1_1d1r0vw5vvc3z-stroke" fill="none" stroke-linecap="round" stroke-linejoin="round" stroke-miterlimit="4" stroke="#f4f4f4" stroke-width="2"><g><path d="M 105.999939 34.000008L 105.999939 234M 10 234L 10 34.000008M 106 234C 106 247.2548 84.5097 258 58 258C 31.4903 258 10 247.2548 10 234M 106 34C 106 47.2548 84.5097 58 58 58C 31.4903 58 10 47.2548 10 34C 10 20.7452 31.4903 10 58 10C 84.5097 10 106 20.7452 106 34Z"></path></g></g></g><g id="g-root-cp_-1_base_2_14640n05vvdoh-stroke" data-item-order="-515625" transform="translate(218, 285.578857421875)"><g id="cp_-1_base_2_14640n05vvdoh-stroke" fill="none" stroke-linecap="round" stroke-linejoin="round" stroke-miterlimit="4" stroke="#f4f4f4" stroke-width="2"><g><path d="M 112 79.137289L 214 43.303889L 214 28.970589L 112 64.803889L 112 79.137289Z"></path></g></g><g id="cp_-1_base_2_14640n05vvdoh-stroke" fill="none" stroke-linecap="round" stroke-linejoin="round" stroke-miterlimit="4" stroke="#f4f4f4" stroke-width="2"><g><path d="M 10 28.970589L 10 43.303889L 112 79.137289L 112 64.803889L 10 28.970589Z"></path></g></g><g id="cp_-1_base_2_14640n05vvdoh-stroke" fill="none" stroke-linecap="round" stroke-linejoin="round" stroke-miterlimit="4" stroke="#f4f4f4" stroke-width="2"><g><path d="M 160 26.1373C 160 39.3921 138.5097 50.1373 112 50.1373C 85.4903 50.1372 64 39.3921 64 26.1372L 64 10L 10 28.9706L 112 64.8039L 214 28.9706L 160 10L 160 26.1373Z"></path></g></g></g><g id="g-root-cp_2_g-2_hzmz3w5vvcwd-stroke" data-item-order="-515617" transform="translate(272, 134)"><g id="cp_2_g-2_hzmz3w5vvcwd-stroke" fill="none" stroke-linecap="round" stroke-linejoin="round" stroke-miterlimit="4" stroke="#f4f4f4" stroke-width="2"><g><path d="M 106.000031 33.999996L 106.000031 179.578857M 10 179.578857L 10 33.999996M 106 179.578857C 106 192.833657 84.5097 203.578857 58 203.578857C 31.4903 203.578857 10 192.833657 10 179.578857M 106 34C 106 47.2548 84.5097 58 58 58C 31.4903 58 10 47.2548 10 34C 10 20.7452 31.4903 10 58 10C 84.5097 10 106 20.7452 106 34Z"></path></g></g></g><g id="g-root-cp_-1_base_3_8zfp85vvc3r-stroke" data-item-order="-515581" transform="translate(422, 345.578857421875)"><g id="cp_-1_base_3_8zfp85vvc3r-stroke" fill="none" stroke-linecap="round" stroke-linejoin="round" stroke-miterlimit="4" stroke="#f4f4f4" stroke-width="2"><g><path d="M 112 79.137289L 214 43.303889L 214 28.970589L 112 64.803889L 112 79.137289Z"></path></g></g><g id="cp_-1_base_3_8zfp85vvc3r-stroke" fill="none" stroke-linecap="round" stroke-linejoin="round" stroke-miterlimit="4" stroke="#f4f4f4" stroke-width="2"><g><path d="M 10 28.970589L 10 43.303889L 112 79.137289L 112 64.803889L 10 28.970589Z"></path></g></g><g id="cp_-1_base_3_8zfp85vvc3r-stroke" fill="none" stroke-linecap="round" stroke-linejoin="round" stroke-miterlimit="4" stroke="#f4f4f4" stroke-width="2"><g><path d="M 160 26.1373C 160 39.3921 138.5097 50.1373 112 50.1373C 85.4903 50.1372 64 39.3921 64 26.1372L 64 10L 10 28.9706L 112 64.8039L 214 28.9706L 160 10L 160 26.1373Z"></path></g></g></g><g id="g-root-cp_3_g-3_1lymzb05vvdhn-stroke" data-item-order="-515573" transform="translate(476, 253.368408203125)"><g id="cp_3_g-3_1lymzb05vvdhn-stroke" fill="none" stroke-linecap="round" stroke-linejoin="round" stroke-miterlimit="4" stroke="#f4f4f4" stroke-width="2"><g><path d="M 106 34L 106 120.210449M 10 120.210449L 10 34M 106 120.210449C 106 133.465249 84.5097 144.210449 58 144.210449C 31.4903 144.210449 10 133.465249 10 120.210449M 106 34C 106 47.2548 84.5097 58 58 58C 31.4903 58 10 47.2548 10 34C 10 20.7452 31.4903 10 58 10C 84.5097 10 106 20.7452 106 34Z"></path></g></g></g><g id="g-root-cp_-1_base_4_vccfng5vvdhp-stroke" data-item-order="-515537" transform="translate(626, 285.578857421875)"><g id="cp_-1_base_4_vccfng5vvdhp-stroke" fill="none" stroke-linecap="round" stroke-linejoin="round" stroke-miterlimit="4" stroke="#f4f4f4" stroke-width="2"><g><path d="M 112 79.137289L 214 43.303889L 214 28.970589L 112 64.803889L 112 79.137289Z"></path></g></g><g id="cp_-1_base_4_vccfng5vvdhp-stroke" fill="none" stroke-linecap="round" stroke-linejoin="round" stroke-miterlimit="4" stroke="#f4f4f4" stroke-width="2"><g><path d="M 10 28.970589L 10 43.303889L 112 79.137289L 112 64.803889L 10 28.970589Z"></path></g></g><g id="cp_-1_base_4_vccfng5vvdhp-stroke" fill="none" stroke-linecap="round" stroke-linejoin="round" stroke-miterlimit="4" stroke="#f4f4f4" stroke-width="2"><g><path d="M 160 26.1373C 160 39.3921 138.5097 50.1373 112 50.1373C 85.4903 50.1372 64 39.3921 64 26.1372L 64 10L 10 28.9706L 112 64.8039L 214 28.9706L 160 10L 160 26.1373Z"></path></g></g></g><g id="g-root-cp_4_g-4_m7cb3w5vwqgx-stroke" data-item-order="-515529" transform="translate(680, 208.21044921875)"><g id="cp_4_g-4_m7cb3w5vwqgx-stroke" fill="none" stroke-linecap="round" stroke-linejoin="round" stroke-miterlimit="4" stroke="#f4f4f4" stroke-width="2"><g><path d="M 105.999985 34.000002L 105.999985 105.368408M 10 105.368408L 10 34.000002M 106 105.368408C 106 118.623208 84.5097 129.368408 58 129.368408C 31.4903 129.368408 10 118.623208 10 105.368408M 106 34C 106 47.2548 84.5097 58 58 58C 31.4903 58 10 47.2548 10 34C 10 20.7452 31.4903 10 58 10C 84.5097 10 106 20.7452 106 34Z"></path></g></g></g><g id="g-root-cp_-1_base_5_8vvsqk5vws1v-stroke" data-item-order="-515491" transform="translate(830, 345.578857421875)"><g id="cp_-1_base_5_8vvsqk5vws1v-stroke" fill="none" stroke-linecap="round" stroke-linejoin="round" stroke-miterlimit="4" stroke="#f4f4f4" stroke-width="2"><g><path d="M 112 79.137289L 214 43.303889L 214 28.970589L 112 64.803889L 112 79.137289Z"></path></g></g><g id="cp_-1_base_5_8vvsqk5vws1v-stroke" fill="none" stroke-linecap="round" stroke-linejoin="round" stroke-miterlimit="4" stroke="#f4f4f4" stroke-width="2"><g><path d="M 10 28.970589L 10 43.303889L 112 79.137289L 112 64.803889L 10 28.970589Z"></path></g></g><g id="cp_-1_base_5_8vvsqk5vws1v-stroke" fill="none" stroke-linecap="round" stroke-linejoin="round" stroke-miterlimit="4" stroke="#f4f4f4" stroke-width="2"><g><path d="M 160 26.1373C 160 39.3921 138.5097 50.1373 112 50.1373C 85.4903 50.1372 64 39.3921 64 26.1372L 64 10L 10 28.9706L 112 64.8039L 214 28.9706L 160 10L 160 26.1373Z"></path></g></g></g><g id="g-root-cp_5_g-5_1lqit6k5vwr2n-stroke" data-item-order="-515483" transform="translate(884, 288)"><g id="cp_5_g-5_1lqit6k5vwr2n-stroke" fill="none" stroke-linecap="round" stroke-linejoin="round" stroke-miterlimit="4" stroke="#f4f4f4" stroke-width="2"><g><path d="M 106.000015 33.999998L 106.000015 85.578857M 10 85.578857L 10 33.999998M 106 85.578857C 106 98.833657 84.5097 109.578857 58 109.578857C 31.4903 109.578857 10 98.833657 10 85.578857M 106 34C 106 47.2548 84.5097 58 58 58C 31.4903 58 10 47.2548 10 34C 10 20.7452 31.4903 10 58 10C 84.5097 10 106 20.7452 106 34Z"></path></g></g></g><g id="g-root-tx_12_qv9zcs5vwqa3-stroke" data-item-order="0" transform="translate(698, 160.21044921875)"></g><g id="g-root-tx_27_1ltn6m45vws91-stroke" data-item-order="0" transform="translate(290, 85.9998779296875)"></g><g id="g-root-tx_15_v9827w5vwr9c-stroke" data-item-order="0" transform="translate(494, 205.368408203125)"></g><g id="g-root-tx_8_qwixj05vwsg6-stroke" data-item-order="0" transform="translate(908, 240)"></g><g id="g-root-tx_38_ddkq4c5vwqa2-stroke" data-item-order="0" transform="translate(86, 91.578857421875)"></g><g id="g-root-tx__13zv9rw5vwqa1-stroke" data-item-order="0" transform="translate(374, 38)"></g><g id="g-root-tx__1hapb245vy60w-stroke" data-item-order="0" transform="translate(848, 507.578857421875)"></g><g id="g-root-tx_iot_zn65305vwrgu-stroke" data-item-order="0" transform="translate(236, 387.578857421875)"></g><g id="g-root-tx_fintech_8zfp85vwqa4-stroke" data-item-order="0" transform="translate(644, 387.578857421875)"></g><g id="g-root-tx__18n6gxo5vwt8t-stroke" data-item-order="0" transform="translate(644, 423.578857421875)"></g><g id="g-root-tx__14147y45vwsg3-stroke" data-item-order="0" transform="translate(32, 447.578857421875)"></g><g id="g-root-tx_iot_90vlfg5vwrgv-stroke" data-item-order="0" transform="translate(236, 447.578857421875)"></g><g id="g-root-tx__1usekak5vwrux-stroke" data-item-order="0" transform="translate(440, 447.578857421875)"></g><g id="g-root-tx__4g2am45vy68f-stroke" data-item-order="0" transform="translate(848, 447.578857421875)"></g><g id="g-root-tx__1hhkj0c5vwqa2-stroke" data-item-order="0" transform="translate(440, 483.578857421875)"></g><g id="g-root-tx__hun6f05vwrnw-stroke" data-item-order="0" transform="translate(32, 507.578857421875)"></g></g></g></svg>