<?xml version="1.0" encoding="utf-8" standalone="yes"?>
<!DOCTYPE svg PUBLIC "-//W3C//DTD SVG 1.1//EN" "http://www.w3.org/Graphics/SVG/1.1/DTD/svg11.dtd">
<svg width="864" height="505" viewBox="0 0 864 505" style="fill:none;stroke:none;fill-rule:evenodd;clip-rule:evenodd;stroke-linecap:round;stroke-linejoin:round;stroke-miterlimit:1.5;" version="1.1" xmlns="http://www.w3.org/2000/svg" xmlns:xlink="http://www.w3.org/1999/xlink"><style class="text-font-style fontImports" data-font-family="Roboto">@import url('https://fonts.googleapis.com/css2?family=Roboto:wght@400;700&amp;display=block');</style><g id="items" style="isolation: isolate"><g id="blend" style="mix-blend-mode: normal"><g id="g-root-cp_1_g-1_qrju4s841wqw-fill" data-item-order="-322999" transform="translate(26, 104)"><g id="cp_1_g-1_qrju4s841wqw-fill" stroke="none" fill="url(#gradient-c3b321-14556876)"><g><path d="M 137.558 88.8508C 148.478 84.3279 160.181 82 172 82C 183.819 82 195.522 84.3279 206.442 88.8508C 217.361 93.3738 227.282 100.0031 235.64 108.3604C 243.997 116.718 250.626 126.639 255.149 137.559C 259.672 148.478 262 160.181 262 172L 286 172C 286 152.302 289.88 132.796 297.418 114.597C 301.144 105.6033 305.727 97.0153 311.091 88.9474C 304.257 77.5018 296.02 66.9175 286.551 57.4487C 271.508 42.4056 253.649 30.4728 233.995 22.3315C 214.34 14.1903 193.274 10 172 10C 150.726 10 129.66 14.1903 110.005 22.3315C 90.3505 30.4728 72.4918 42.4056 57.4487 57.4487C 42.4056 72.4918 30.4728 90.3506 22.3315 110.005C 14.1903 129.66 10 150.726 10 172L 82 172C 82 160.181 84.3279 148.478 88.8508 137.559C 93.3738 126.639 100.0031 116.718 108.3604 108.3604C 116.718 100.0031 126.639 93.3738 137.558 88.8508Z"></path></g></g><g id="cp_1_g-1_qrju4s841wqw-fill" stroke="none" fill="url(#gradient-c3b321-14556876)"><g><path d="M 178 172.000031C 178 175.313731 175.3137 178.000031 172 178.000031C 168.6863 178.000031 166 175.313731 166 172.000031C 166 168.686331 168.6863 166.000031 172 166.000031C 175.3137 166.000031 178 168.686331 178 172.000031Z"></path></g></g></g><g id="g-root-cp_2_g-2_909tn0841z43-fill" data-item-order="-322991" transform="translate(302, 116)"><g id="cp_2_g-2_909tn0841z43-fill" stroke="none" fill="url(#gradient-87aa3f-469929121)"><g><path d="M 232.102 130.134C 236.024 139.603 238.043 149.751 238.043 160L 262 160C 262 142.666 265.414 125.501 272.048 109.4858C 276.167 99.5412 281.477 90.161 287.846 81.5439C 281.708 71.5416 274.403 62.2708 266.066 53.934C 252.137 40.0052 235.601 28.9562 217.402 21.418C 199.204 13.8798 179.698 10 160 10C 140.302 9.999971 120.796 13.8798 102.5975 21.418C 84.3986 28.9562 67.8628 40.0052 53.934 53.934C 40.0052 67.8628 28.9562 84.3986 21.418 102.5975C 13.8798 120.796 10 140.302 10 160L 81.9574 160C 81.9574 149.751 83.976 139.603 87.898 130.134C 91.82 120.666 97.5686 112.062 104.8155 104.8155C 112.062 97.5686 120.666 91.82 130.134 87.898C 139.603 83.976 149.751 81.9573 160 81.9573C 170.249 81.9573 180.397 83.976 189.866 87.898C 199.334 91.82 207.938 97.5686 215.184 104.8155C 222.431 112.062 228.18 120.666 232.102 130.134Z"></path></g></g><g id="cp_2_g-2_909tn0841z43-fill" stroke="none" fill="url(#gradient-87aa3f-469929121)"><g><path d="M 166 160C 166 163.3137 163.3137 166 160 166C 156.6863 166 154 163.3137 154 160C 154 156.6863 156.6863 154 160 154C 163.3137 154 166 156.6863 166 160Z"></path></g></g></g><g id="g-root-cp_3_g-3_1luwu30841y4u-fill" data-item-order="-322983" transform="translate(554, 134)"><defs><linearGradient id="gradient-c3b321-14556876" x2="0" y2="1"><stop offset="0" stop-color="#ddc916"></stop><stop offset="1" stop-color="#a99c2c"></stop></linearGradient><linearGradient id="gradient-87aa3f-469929121" x2="0" y2="1"><stop offset="0" stop-color="#91bb39"></stop><stop offset="1" stop-color="#7d9844"></stop></linearGradient><linearGradient id="gradient-40ae79-389135447" x2="0" y2="1"><stop offset="0" stop-color="#3bc482"></stop><stop offset="1" stop-color="#449870"></stop></linearGradient></defs><g id="cp_3_g-3_1luwu30841y4u-fill" stroke="none" fill="url(#gradient-40ae79-389135447)"><g><path d="M 197.422 119.043C 200.437 126.322 201.989 134.122 201.989 142L 274 142C 274 104.2578 256.266 75.5 252.182 69.3091C 247.29 61.894 241.65 54.9738 235.338 48.6619C 223.081 36.4046 208.529 26.6815 192.514 20.0479C 176.499 13.4143 159.334 10 142 10C 124.666 10 107.5008 13.4143 91.4858 20.0479C 75.4708 26.6815 60.9192 36.4046 48.6619 48.6619C 36.4046 60.9192 26.6815 75.4708 20.0479 91.4858C 13.4143 107.5008 10 124.666 10 142L 82.0114 142C 82.0114 134.122 83.5631 126.322 86.5778 119.043C 89.5925 111.765 94.0112 105.1521 99.5817 99.5817C 105.1521 94.0112 111.765 89.5925 119.043 86.5778C 126.322 83.5631 134.122 82.0114 142 82.0114C 149.878 82.0114 157.678 83.5631 164.957 86.5778C 172.235 89.5925 178.848 94.0112 184.418 99.5817C 189.989 105.1521 194.408 111.765 197.422 119.043Z"></path></g></g><g id="cp_3_g-3_1luwu30841y4u-fill" stroke="none" fill="url(#gradient-40ae79-389135447)"><g><path d="M 148 142C 148 145.3137 145.3137 148 142 148C 138.6863 148 136 145.3137 136 142C 136 138.6863 138.6863 136 142 136C 145.3137 136 148 138.6863 148 142Z"></path></g></g></g><g id="g-root-tx__zofsjw841y4h-fill" data-item-order="0" transform="translate(212, 38)"><g id="tx__zofsjw841y4h-fill" stroke="none" fill="#f4f4f4"><g><text style="font: 20px &quot;Roboto&quot;, sans-serif; white-space: pre;" font-size="20px" font-family="'Roboto', sans-serif"><tspan x="15.23" y="34" dominant-baseline="ideographic">Employment results of hackathon participants</tspan></text></g></g></g><g id="g-root-tx_67_zjfzv0843c3u-fill" data-item-order="0" transform="translate(164, 125)"><g id="tx_67_zjfzv0843c3u-fill" stroke="none" fill="#fff7ad"><g><text style="font: bold 20px &quot;Roboto&quot;, sans-serif; white-space: pre;" font-weight="bold" font-size="20px" font-family="'Roboto', sans-serif"><tspan x="15.14" y="34" dominant-baseline="ideographic">67%</tspan></text></g></g></g><g id="g-root-tx_41_1q5qjik843c3t-fill" data-item-order="0" transform="translate(428, 139)"><g id="tx_41_1q5qjik843c3t-fill" stroke="none" fill="#fff7ad"><g><text style="font: bold 20px &quot;Roboto&quot;, sans-serif; white-space: pre;" font-weight="bold" font-size="20px" font-family="'Roboto', sans-serif"><tspan x="15.14" y="34" dominant-baseline="ideographic">41%</tspan></text></g></g></g><g id="g-root-tx_22_i0wmks841xqg-fill" data-item-order="0" transform="translate(662, 161)"><g id="tx_22_i0wmks841xqg-fill" stroke="none" fill="#fff7ad"><g><text style="font: bold 20px &quot;Roboto&quot;, sans-serif; white-space: pre;" font-weight="bold" font-size="20px" font-family="'Roboto', sans-serif"><tspan x="15.14" y="34" dominant-baseline="ideographic">22%</tspan></text></g></g></g><g id="g-root-tx__9258wc841y4i-fill" data-item-order="0" transform="translate(134.05401611328125, 313.84375)"><g id="tx__9258wc841y4i-fill" stroke="none" fill="#ffe711"><g><text style="font: bold 20px &quot;Roboto&quot;, sans-serif; white-space: pre;" font-weight="bold" font-size="20px" font-family="'Roboto', sans-serif"><tspan x="16.18" y="34" dominant-baseline="ideographic">Improving </tspan><tspan x="37.95" y="58" dominant-baseline="ideographic">skills</tspan></text></g></g></g><g id="g-root-tx__vahpos841x58-fill" data-item-order="0" transform="translate(404.08099365234375, 314.03125)"><g id="tx__vahpos841x58-fill" stroke="none" fill="#a6da37"><g><text style="font: bold 20px &quot;Roboto&quot;, sans-serif; white-space: pre;" font-weight="bold" font-size="20px" font-family="'Roboto', sans-serif"><tspan x="11.8" y="34" dominant-baseline="ideographic">Job offers</tspan></text></g></g></g><g id="g-root-tx__1qdupn0841yj2-fill" data-item-order="0" transform="translate(626, 314.03125)"><g id="tx__1qdupn0841yj2-fill" stroke="none" fill="#43dd93"><g><text style="font: bold 20px &quot;Roboto&quot;, sans-serif; white-space: pre;" font-weight="bold" font-size="20px" font-family="'Roboto', sans-serif"><tspan x="13.78" y="34" dominant-baseline="ideographic">Employment</tspan></text></g></g></g><g id="g-root-tx__dj7p70841zid-fill" data-item-order="0" transform="translate(380.08099365234375, 350.03125)"><g id="tx__dj7p70841zid-fill" stroke="none" fill="#f4f4f4"><g><text style="font: 15px &quot;Roboto&quot;, sans-serif; white-space: pre;" font-size="15px" font-family="'Roboto', sans-serif"><tspan x="14.27" y="31" dominant-baseline="ideographic">Participants receive </tspan><tspan x="42.57" y="49" dominant-baseline="ideographic">offers from </tspan><tspan x="49.08" y="67" dominant-baseline="ideographic">sponsors</tspan></text></g></g></g><g id="g-root-tx__18n768c841xqf-fill" data-item-order="0" transform="translate(614, 350.03125)"><g id="tx__18n768c841xqf-fill" stroke="none" fill="#f4f4f4"><g><text style="font: 15px &quot;Roboto&quot;, sans-serif; white-space: pre;" font-size="15px" font-family="'Roboto', sans-serif"><tspan x="26.9" y="31" dominant-baseline="ideographic">Participants find </tspan><tspan x="12.42" y="49" dominant-baseline="ideographic">employment through </tspan><tspan x="50.88" y="67" dominant-baseline="ideographic">networks</tspan></text></g></g></g><g id="g-root-tx__1lws9cc841x57-fill" data-item-order="0" transform="translate(116.05401611328125, 373.84375)"><g id="tx__1lws9cc841x57-fill" stroke="none" fill="#f4f4f4"><g><text style="font: 15px &quot;Roboto&quot;, sans-serif; white-space: pre;" font-size="15px" font-family="'Roboto', sans-serif"><tspan x="39.86" y="31" dominant-baseline="ideographic">Participants </tspan><tspan x="16.57" y="49" dominant-baseline="ideographic">enhance teamwork </tspan><tspan x="63.11" y="67" dominant-baseline="ideographic">skills</tspan></text></g></g></g><g id="g-root-cp_1_g-1_qrju4s841wqw-stroke" data-item-order="-322999" transform="translate(26, 104)"><g id="cp_1_g-1_qrju4s841wqw-stroke" fill="none" stroke-linecap="round" stroke-linejoin="round" stroke-miterlimit="4" stroke="#f4f4f4" stroke-width="2"><g><path d="M 137.5585 88.8508C 148.4778 84.3279 160.181 82 172 82C 183.819 82 195.5222 84.3279 206.4415 88.8508C 217.3608 93.3738 227.2824 100.0031 235.6396 108.3604C 243.9969 116.7177 250.6263 126.6392 255.1492 137.5585C 259.6721 148.4778 262 160.1811 262 172L 286 172C 286 152.3017 289.8798 132.7963 297.418 114.5975C 301.1436 105.6033 305.7266 97.0153 311.0909 88.9474C 304.2566 77.5018 296.0201 66.9175 286.5513 57.4487C 271.5082 42.4056 253.6495 30.4728 233.9947 22.3315C 214.34 14.1903 193.2741 10 172 10C 150.7259 10 129.66 14.1903 110.0053 22.3315C 90.3505 30.4728 72.4918 42.4056 57.4487 57.4487C 42.4056 72.4918 30.4728 90.3506 22.3315 110.0053C 14.1903 129.6601 10 150.7259 10 172L 82 172C 82 160.1811 84.3279 148.4778 88.8508 137.5585C 93.3738 126.6392 100.0031 116.7177 108.3604 108.3604C 116.7177 100.0031 126.6392 93.3738 137.5585 88.8508ZM 172 208L 172 178"></path></g></g><g id="cp_1_g-1_qrju4s841wqw-stroke" fill="none" stroke-linecap="round" stroke-linejoin="round" stroke-miterlimit="4" stroke="#f4f4f4" stroke-width="2"><g><path d="M 178 172.000031C 178 175.313731 175.3137 178.000031 172 178.000031C 168.6863 178.000031 166 175.313731 166 172.000031C 166 168.686331 168.6863 166.000031 172 166.000031C 175.3137 166.000031 178 168.686331 178 172.000031Z"></path></g></g></g><g id="g-root-cp_2_g-2_909tn0841z43-stroke" data-item-order="-322991" transform="translate(302, 116)"><g id="cp_2_g-2_909tn0841z43-stroke" fill="none" stroke-linecap="round" stroke-linejoin="round" stroke-miterlimit="4" stroke="#f4f4f4" stroke-width="2"><g><path d="M 232.102 130.1344C 236.024 139.6029 238.0426 149.7513 238.0426 160L 262 160C 262 142.6655 265.4143 125.5008 272.0479 109.4858C 276.1671 99.5412 281.4774 90.161 287.8462 81.5439C 281.708 71.5416 274.4028 62.2708 266.066 53.934C 252.1372 40.0052 235.6013 28.9562 217.4025 21.418C 199.2037 13.8798 179.6983 10 160 10C 140.3017 10 120.7963 13.8798 102.5975 21.418C 84.3986 28.9562 67.8628 40.0052 53.934 53.934C 40.0052 67.8628 28.9562 84.3986 21.418 102.5975C 13.8798 120.7963 10 140.3017 10 160L 81.9574 160C 81.9574 149.7513 83.976 139.6029 87.898 130.1344C 91.82 120.6658 97.5686 112.0624 104.8155 104.8155C 112.0624 97.5686 120.6658 91.82 130.1344 87.898C 139.6029 83.976 149.7513 81.9573 160 81.9573C 170.2487 81.9573 180.397 83.976 189.8656 87.898C 199.3342 91.82 207.9375 97.5686 215.1845 104.8155C 222.4314 112.0624 228.18 120.6658 232.102 130.1344ZM 160 196L 160 166"></path></g></g><g id="cp_2_g-2_909tn0841z43-stroke" fill="none" stroke-linecap="round" stroke-linejoin="round" stroke-miterlimit="4" stroke="#f4f4f4" stroke-width="2"><g><path d="M 166 160C 166 163.3137 163.3137 166 160 166C 156.6863 166 154 163.3137 154 160C 154 156.6863 156.6863 154 160 154C 163.3137 154 166 156.6863 166 160Z"></path></g></g></g><g id="g-root-cp_3_g-3_1luwu30841y4u-stroke" data-item-order="-322983" transform="translate(554, 134)"><g id="cp_3_g-3_1luwu30841y4u-stroke" fill="none" stroke-linecap="round" stroke-linejoin="round" stroke-miterlimit="4" stroke="#f4f4f4" stroke-width="2"><g><path d="M 197.4222 119.0434C 200.4369 126.3215 201.9886 134.1222 201.9886 142L 274 142C 274 104.2578 256.2662 75.5 252.1818 69.3091C 247.2898 61.894 241.65 54.9738 235.3381 48.6619C 223.0808 36.4046 208.5292 26.6815 192.5142 20.0479C 176.4992 13.4143 159.3345 10 142 10C 124.6655 10 107.5008 13.4143 91.4858 20.0479C 75.4708 26.6815 60.9192 36.4046 48.6619 48.6619C 36.4046 60.9192 26.6815 75.4708 20.0479 91.4858C 13.4143 107.5008 10 124.6655 10 142L 82.0114 142C 82.0114 134.1222 83.5631 126.3215 86.5778 119.0434C 89.5925 111.7652 94.0112 105.1521 99.5817 99.5817C 105.1521 94.0112 111.7652 89.5925 119.0434 86.5778C 126.3215 83.5631 134.1222 82.0114 142 82.0114C 149.8778 82.0114 157.6785 83.5631 164.9566 86.5778C 172.2348 89.5925 178.8479 94.0112 184.4183 99.5817C 189.9888 105.1521 194.4075 111.7652 197.4222 119.0434ZM 142 178L 142 148"></path></g></g><g id="cp_3_g-3_1luwu30841y4u-stroke" fill="none" stroke-linecap="round" stroke-linejoin="round" stroke-miterlimit="4" stroke="#f4f4f4" stroke-width="2"><g><path d="M 148 142C 148 145.3137 145.3137 148 142 148C 138.6863 148 136 145.3137 136 142C 136 138.6863 138.6863 136 142 136C 145.3137 136 148 138.6863 148 142Z"></path></g></g></g><g id="g-root-tx__zofsjw841y4h-stroke" data-item-order="0" transform="translate(212, 38)"></g><g id="g-root-tx_67_zjfzv0843c3u-stroke" data-item-order="0" transform="translate(164, 125)"></g><g id="g-root-tx_41_1q5qjik843c3t-stroke" data-item-order="0" transform="translate(428, 139)"></g><g id="g-root-tx_22_i0wmks841xqg-stroke" data-item-order="0" transform="translate(662, 161)"></g><g id="g-root-tx__9258wc841y4i-stroke" data-item-order="0" transform="translate(134.05401611328125, 313.84375)"></g><g id="g-root-tx__vahpos841x58-stroke" data-item-order="0" transform="translate(404.08099365234375, 314.03125)"></g><g id="g-root-tx__1qdupn0841yj2-stroke" data-item-order="0" transform="translate(626, 314.03125)"></g><g id="g-root-tx__dj7p70841zid-stroke" data-item-order="0" transform="translate(380.08099365234375, 350.03125)"></g><g id="g-root-tx__18n768c841xqf-stroke" data-item-order="0" transform="translate(614, 350.03125)"></g><g id="g-root-tx__1lws9cc841x57-stroke" data-item-order="0" transform="translate(116.05401611328125, 373.84375)"></g></g></g></svg>