<?xml version="1.0" encoding="utf-8" standalone="yes"?>
<!DOCTYPE svg PUBLIC "-//W3C//DTD SVG 1.1//EN" "http://www.w3.org/Graphics/SVG/1.1/DTD/svg11.dtd">
<svg width="592" height="684" viewBox="0 0 592 684" style="fill:none;stroke:none;fill-rule:evenodd;clip-rule:evenodd;stroke-linecap:round;stroke-linejoin:round;stroke-miterlimit:1.5;" version="1.1" xmlns="http://www.w3.org/2000/svg" xmlns:xlink="http://www.w3.org/1999/xlink"><style class="text-font-style fontImports" data-font-family="Roboto">@import url('https://fonts.googleapis.com/css2?family=Roboto:wght@400;700&amp;display=block');</style><g id="items" style="isolation: isolate"><g id="blend" style="mix-blend-mode: normal"><g id="g-root-cp_1_g-1_4o796k8nu58m-fill" data-item-order="-287220" transform="translate(42.314208984375, 158.796875)"><g id="cp_1_g-1_4o796k8nu58m-fill" stroke="none" fill="url(#gradient-2898bd-56937253)"><g><path d="M 177.213 46.001C 177.213 63.4395 171.828 77.5762 165.186 77.5762C 164.861 77.5762 164.539 77.5424 164.221 77.476C 164.185 77.4686 164.15 77.4608 164.115 77.4527C 157.974 76.0299 153.158 62.4918 153.158 46.001C 153.158 29.5102 157.974 15.972 164.115 14.5493C 164.15 14.5411 164.185 14.5333 164.221 14.5259C 164.539 14.4596 164.861 14.4258 165.186 14.4258C 171.828 14.4258 177.213 28.5625 177.213 46.001ZM 43.4093 39.1827L 10 46.0008L 43.4096 52.8191C 42.9863 50.6111 42.7646 48.3314 42.7646 46C 42.7646 43.6692 42.9862 41.3901 43.4093 39.1827ZM 153.158 46.001C 153.158 29.5102 157.974 15.972 164.115 14.5493L 108.6183 25.8749C 112.499 31.62 114.765 38.5454 114.765 46C 114.765 53.4553 112.498 60.3813 108.6172 66.1267L 164.115 77.4527C 157.974 76.0299 153.158 62.4918 153.158 46.001Z"></path></g></g></g><g id="g-root-cp_2_g-2_1qeh9vg8nu3go-fill" data-item-order="-287216" transform="translate(209.2030029296875, 126.22900390625)"><g id="cp_2_g-2_1qeh9vg8nu3go-fill" stroke="none" fill="url(#gradient-40ae79-389135447)"><g><path d="M 165.797 10C 165.445 10 165.095 10.0384 164.748 10.1142L 164.734 10.1175C 155.283 12.2115 147.788 42.0404 147.788 78.5303C 147.788 115.02 155.282 144.849 164.733 146.943L 164.748 146.946C 165.095 147.022 165.445 147.061 165.797 147.061C 170.13 147.061 174.106 141.237 177.213 131.535C 173.823 118.117 171.717 99.328 171.717 78.5298C 171.717 57.7319 173.823 38.9428 177.213 25.5252C 174.105 15.8232 170.13 10 165.797 10ZM 10 78.5298C 10 59.0238 14.8465 43.0557 20.9814 41.746L 164.734 10.1175C 155.283 12.2115 147.788 42.0404 147.788 78.5303C 147.788 115.02 155.282 144.849 164.733 146.943L 20.9814 115.314C 14.8465 114.004 10 98.0357 10 78.5298ZM 78.7646 114.533C 98.6469 114.533 114.765 98.4155 114.765 78.5332C 114.765 58.651 98.6469 42.5332 78.7646 42.5332C 58.8824 42.5332 42.7646 58.651 42.7646 78.5332C 42.7646 98.4155 58.8824 114.533 78.7646 114.533Z"></path></g></g></g><g id="g-root-cp_3_g-3_1lynrr08nu48y-fill" data-item-order="-287212" transform="translate(370.9200439453125, 89.31982421875)"><defs><linearGradient id="gradient-2898bd-56937253" x2="0" y2="1"><stop offset="0" stop-color="#1fa9d7"></stop><stop offset="1" stop-color="#3187a3"></stop></linearGradient><linearGradient id="gradient-40ae79-389135447" x2="0" y2="1"><stop offset="0" stop-color="#3bc482"></stop><stop offset="1" stop-color="#449870"></stop></linearGradient><linearGradient id="gradient-87aa3f-469929121" x2="0" y2="1"><stop offset="0" stop-color="#91bb39"></stop><stop offset="1" stop-color="#7d9844"></stop></linearGradient></defs><g id="cp_3_g-3_1lynrr08nu48y-fill" stroke="none" fill="url(#gradient-87aa3f-469929121)"><g><path d="M 196.078 115.465C 196.078 156.059 190.86 191.297 183.21 208.927C 179.883 216.594 176.097 220.931 172.08 220.931C 171.702 220.931 171.326 220.916 170.953 220.84C 170.891 220.827 170.83 220.814 170.768 220.799C 158.125 217.805 148.082 171.778 148.082 115.465C 148.082 59.1531 158.125 13.1488 170.768 10.1549C 170.83 10.1404 170.891 10.1269 170.953 10.1144C 171.326 10.0384 171.702 10 172.08 10C 176.111 10 179.884 14.2967 183.219 22.0131C 190.85 39.6697 196.078 74.9325 196.078 115.465ZM 170.768 220.799L 27.2269 189.217C 22.6737 188.354 18.5605 180.613 15.496 168.482C 12.1065 155.065 10 136.275 10 115.477C 10 94.6791 12.1065 75.8901 15.4958 62.4725C 18.5603 50.3409 22.6736 42.6005 27.2269 41.737L 170.768 10.1549C 158.125 13.1488 148.082 59.1531 148.082 115.465C 148.082 171.778 158.125 217.805 170.768 220.799ZM 79.0479 151.426C 98.9301 151.426 115.048 135.308 115.048 115.426C 115.048 95.5435 98.9301 79.4258 79.0479 79.4258C 59.1656 79.4258 43.0479 95.5435 43.0479 115.426C 43.0479 135.308 59.1656 151.426 79.0479 151.426Z"></path></g></g></g><g id="g-root-tx__18ntqgs8nu2o4-fill" data-item-order="0" transform="translate(76, 38)"><g id="tx__18ntqgs8nu2o4-fill" stroke="none" fill="#f4f4f4"><g><text style="font: 20px &quot;Roboto&quot;, sans-serif; white-space: pre;" font-size="20px" font-family="'Roboto', sans-serif"><tspan x="16.67" y="34" dominant-baseline="ideographic">Post-hackathon effect on project continuation</tspan></text></g></g></g><g id="g-root-ic_coup_4j7gho8nvj7z-fill" data-item-order="0" transform="translate(87, 170.5)"></g><g id="g-root-ic_bill_1unfk1o8nvifa-fill" data-item-order="0" transform="translate(255, 170.5)"></g><g id="g-root-ic_incr_hrjlfg8nvh8l-fill" data-item-order="0" transform="translate(416, 170.78515625)"></g><g id="g-root-tx_6_1utoaws8nvk00-fill" data-item-order="0" transform="translate(38, 278)"><g id="tx_6_1utoaws8nvk00-fill" stroke="none" fill="#f4f4f4"><g><text style="font: bold 20px &quot;Roboto&quot;, sans-serif; white-space: pre;" font-weight="bold" font-size="20px" font-family="'Roboto', sans-serif"><tspan x="13.09" y="34" dominant-baseline="ideographic">Active after 6 </tspan><tspan x="39.49" y="58" dominant-baseline="ideographic">months</tspan></text></g></g></g><g id="g-root-tx__dl37lo8nvk02-fill" data-item-order="0" transform="translate(206, 314)"><g id="tx__dl37lo8nvk02-fill" stroke="none" fill="#f4f4f4"><g><text style="font: bold 20px &quot;Roboto&quot;, sans-serif; white-space: pre;" font-weight="bold" font-size="20px" font-family="'Roboto', sans-serif"><tspan x="12.03" y="34" dominant-baseline="ideographic">Obtaining </tspan><tspan x="13.67" y="58" dominant-baseline="ideographic">financing</tspan></text></g></g></g><g id="g-root-tx__147dr988nvk01-fill" data-item-order="0" transform="translate(38, 338)"><g id="tx__147dr988nvk01-fill" stroke="none" fill="#f4f4f4"><g><text style="font: 15px &quot;Roboto&quot;, sans-serif; white-space: pre;" font-size="15px" font-family="'Roboto', sans-serif"><tspan x="41.08" y="31" dominant-baseline="ideographic">5% Projects </tspan><tspan x="13.91" y="49" dominant-baseline="ideographic">remaining active for </tspan><tspan x="43.41" y="67" dominant-baseline="ideographic">six months</tspan></text></g></g></g><g id="g-root-tx__1cuwldo8nww0c-fill" data-item-order="0" transform="translate(374, 350)"><g id="tx__1cuwldo8nww0c-fill" stroke="none" fill="#f4f4f4"><g><text style="font: bold 20px &quot;Roboto&quot;, sans-serif; white-space: pre;" font-weight="bold" font-size="20px" font-family="'Roboto', sans-serif"><tspan x="15.48" y="34" dominant-baseline="ideographic">Increasing the </tspan><tspan x="36.02" y="58" dominant-baseline="ideographic">odds with </tspan><tspan x="28.28" y="82" dominant-baseline="ideographic">mentorship</tspan></text></g></g></g><g id="g-root-tx__4g33248nww7f-fill" data-item-order="0" transform="translate(206, 374)"><g id="tx__4g33248nww7f-fill" stroke="none" fill="#f4f4f4"><g><text style="font: 15px &quot;Roboto&quot;, sans-serif; white-space: pre;" font-size="15px" font-family="'Roboto', sans-serif"><tspan x="15.89" y="28" dominant-baseline="ideographic">12% Projects that </tspan><tspan x="16.13" y="46" dominant-baseline="ideographic">received financial </tspan><tspan x="30.47" y="64" dominant-baseline="ideographic">support from </tspan><tspan x="37.26" y="82" dominant-baseline="ideographic">companies</tspan></text></g></g></g><g id="g-root-tx__v3mkvw8nwydh-fill" data-item-order="0" transform="translate(374, 434)"><g id="tx__v3mkvw8nwydh-fill" stroke="none" fill="#f4f4f4"><g><text style="font: 15px &quot;Roboto&quot;, sans-serif; white-space: pre;" font-size="15px" font-family="'Roboto', sans-serif"><tspan x="20.1" y="28" dominant-baseline="ideographic">Projects that have </tspan><tspan x="16.25" y="46" dominant-baseline="ideographic">received mentoring </tspan><tspan x="34.5" y="64" dominant-baseline="ideographic">support show </tspan><tspan x="40.13" y="82" dominant-baseline="ideographic">significantly </tspan><tspan x="17.72" y="100" dominant-baseline="ideographic">increased chances </tspan><tspan x="29.73" y="118" dominant-baseline="ideographic">of continuation</tspan></text></g></g></g><g id="g-root-cp_1_g-1_4o796k8nu58m-stroke" data-item-order="-287220" transform="translate(42.314208984375, 158.796875)"><g id="cp_1_g-1_4o796k8nu58m-stroke" fill="none" stroke-linecap="round" stroke-linejoin="round" stroke-miterlimit="4" stroke="#f4f4f4" stroke-width="2"><g><path d="M 177.2129 46.001C 177.2129 63.4395 171.8281 77.5762 165.1857 77.5762C 164.8608 77.5762 164.539 77.5424 164.2207 77.476C 164.1852 77.4686 164.1499 77.4608 164.1145 77.4527C 157.9738 76.0299 153.1584 62.4918 153.1584 46.001C 153.1584 29.5102 157.9739 15.972 164.1145 14.5493C 164.1499 14.5411 164.1852 14.5333 164.2207 14.5259C 164.539 14.4596 164.8608 14.4258 165.1857 14.4258C 171.8281 14.4258 177.2129 28.5625 177.2129 46.001ZM 43.4093 39.1827L 10 46.0008L 43.4096 52.8191C 42.9863 50.6111 42.7646 48.3314 42.7646 46C 42.7646 43.6692 42.9862 41.3901 43.4093 39.1827ZM 153.1584 46.001C 153.1584 29.5102 157.9739 15.972 164.1145 14.5493L 108.6183 25.8749C 112.4988 31.62 114.7646 38.5454 114.7646 46C 114.7646 53.4553 112.4984 60.3813 108.6172 66.1267L 164.1145 77.4527C 157.9738 76.0299 153.1584 62.4918 153.1584 46.001ZM 164.2207 14.5259L 164.1145 14.5493M 164.2207 77.476L 164.1145 77.4527M 43.4093 39.1827C 43.5847 38.2675 43.7948 37.3646 44.0381 36.4755C 48.2139 21.2153 62.1796 10 78.7646 10C 89.7982 10 99.6725 14.9637 106.2762 22.7799C 107.1105 23.7675 107.8927 24.8005 108.6183 25.8749M 108.6172 66.1267C 107.8915 67.201 107.1093 68.2341 106.2749 69.2216C 99.6712 77.0369 89.7975 82 78.7646 82C 62.1802 82 48.215 70.7856 44.0386 55.5263C 43.7952 54.6372 43.5851 53.7343 43.4096 52.8191"></path></g></g></g><g id="g-root-cp_2_g-2_1qeh9vg8nu3go-stroke" data-item-order="-287216" transform="translate(209.2030029296875, 126.22900390625)"><g id="cp_2_g-2_1qeh9vg8nu3go-stroke" fill="none" stroke-linecap="round" stroke-linejoin="round" stroke-miterlimit="4" stroke="#f4f4f4" stroke-width="2"><g><path d="M 165.7969 10C 165.4449 10 165.0953 10.0384 164.7483 10.1142L 164.7336 10.1175C 155.2825 12.2115 147.7881 42.0404 147.7881 78.5303C 147.7881 115.0201 155.2825 144.8489 164.7335 146.9431L 164.7483 146.9463C 165.0953 147.0221 165.4449 147.0605 165.7969 147.0605C 170.1299 147.0605 174.1055 141.2372 177.2128 131.5349C 173.8233 118.1173 171.7168 99.328 171.7168 78.5298C 171.7168 57.7319 173.8233 38.9428 177.2126 25.5252C 174.1054 15.8232 170.1298 10 165.7969 10ZM 10 78.5298C 10 59.0238 14.8465 43.0557 20.9814 41.746L 164.7336 10.1175C 155.2825 12.2115 147.7881 42.0404 147.7881 78.5303C 147.7881 115.0201 155.2825 144.8489 164.7335 146.9431L 20.9814 115.3136C 14.8465 114.0039 10 98.0357 10 78.5298ZM 78.7646 114.5332C 98.6469 114.5332 114.7646 98.4155 114.7646 78.5332C 114.7646 58.651 98.6469 42.5332 78.7646 42.5332C 58.8824 42.5332 42.7646 58.651 42.7646 78.5332C 42.7646 98.4155 58.8824 114.5332 78.7646 114.5332ZM 21.7973 115.4004C 21.5231 115.4004 21.251 115.3712 20.9814 115.3136M 21.7973 41.6592C 21.5231 41.6592 21.251 41.6884 20.9814 41.746M 164.7483 10.1142C 164.7434 10.1153 164.7385 10.1164 164.7336 10.1175M 164.7483 146.9463C 164.7434 146.9452 164.7384 146.9441 164.7335 146.9431"></path></g></g></g><g id="g-root-cp_3_g-3_1lynrr08nu48y-stroke" data-item-order="-287212" transform="translate(370.9200439453125, 89.31982421875)"><g id="cp_3_g-3_1lynrr08nu48y-stroke" fill="none" stroke-linecap="round" stroke-linejoin="round" stroke-miterlimit="4" stroke="#f4f4f4" stroke-width="2"><g><path d="M 196.0785 115.4653C 196.0785 156.0594 190.8598 191.2967 183.2101 208.9269C 179.8835 216.5936 176.0971 220.9307 172.0803 220.9307C 171.7023 220.9307 171.3264 220.9158 170.9527 220.8398C 170.8912 220.8273 170.8297 220.8138 170.7683 220.7993C 158.1246 217.8054 148.082 171.7777 148.082 115.4653C 148.082 59.1531 158.1245 13.1488 170.7682 10.1549C 170.8297 10.1404 170.8911 10.1269 170.9527 10.1144C 171.3264 10.0384 171.7023 10 172.0803 10C 176.111 10 179.8839 14.2967 183.2188 22.0131C 190.8497 39.6697 196.0785 74.9325 196.0785 115.4653ZM 170.7683 220.7993L 27.2269 189.2171C 22.6737 188.3536 18.5605 180.6134 15.496 168.4821C 12.1065 155.0645 10 136.2752 10 115.4771C 10 94.6791 12.1065 75.89 15.4958 62.4725C 18.5603 50.3409 22.6736 42.6005 27.2269 41.737L 170.7682 10.1549C 158.1245 13.1488 148.082 59.1531 148.082 115.4653C 148.082 171.7777 158.1246 217.8054 170.7683 220.7993ZM 79.0479 151.4258C 98.9301 151.4258 115.0479 135.308 115.0479 115.4258C 115.0479 95.5435 98.9301 79.4258 79.0479 79.4258C 59.1656 79.4258 43.0479 95.5435 43.0479 115.4258C 43.0479 135.308 59.1656 151.4258 79.0479 151.4258ZM 28.08 189.2979C 27.794 189.2979 27.5096 189.2708 27.2269 189.2171M 28.08 41.6563C 27.794 41.6563 27.5096 41.6834 27.2269 41.737M 170.9527 220.8398L 170.7683 220.7993M 170.9527 10.1144L 170.7682 10.1549"></path></g></g></g><g id="g-root-tx__18ntqgs8nu2o4-stroke" data-item-order="0" transform="translate(76, 38)"></g><g id="g-root-ic_coup_4j7gho8nvj7z-stroke" data-item-order="0" transform="translate(87, 170.5)"><g id="ic_coup_4j7gho8nvj7z-stroke" fill="none" stroke-linecap="round" stroke-linejoin="round" stroke-miterlimit="4" stroke="#f4f4f4" stroke-width="2"><g><path d="M 38.181999 15.238L 37.599998 14.719999C 37.145935 14.315823 36.8862 13.736894 36.8862 13.129C 36.8862 12.521107 37.145935 11.942178 37.599998 11.538L 37.599998 11.538C 37.990334 11.191546 38.494091 11.000145 39.015999 11L 40.984001 11C 41.505909 11.000145 42.00967 11.191546 42.400002 11.538L 42.400002 11.538C 42.854065 11.942178 43.113804 12.521107 43.113804 13.129C 43.113804 13.736894 42.854065 14.315823 42.400002 14.72L 41.818001 15.238M 15 39C 15 42.313709 17.686291 45 21 45C 24.313709 45 27 42.313709 27 39C 27 35.686295 24.313709 33 21 33C 17.686291 33 15 35.686295 15 39ZM 15.83 35.954002C 18.710327 38.937653 23.136608 39.827209 26.945999 38.188M 54.284 45.287998C 53.485069 43.976749 53.086746 42.460609 53.137997 40.925999L 53.138 39.141998C 53.138 35.752075 50.389923 33.004002 47 33.004002C 43.610077 33.004002 40.862 35.752075 40.862 39.141998L 40.862 40.926003C 40.91325 42.460609 40.514923 43.976749 39.715996 45.287998M 40.862 40.155998C 43.219196 40.152176 45.458691 39.125465 47 37.342003C 48.541309 39.125465 50.780807 40.152176 53.138 40.156002M 41.612 40.120003C 41.889442 42.888142 44.218987 44.995876 47.000999 44.995876C 49.783012 44.995876 52.112556 42.888142 52.389999 40.120003M 21 47C 15.477152 47 11 51.477154 11 57L 31 57C 31 51.477154 26.522848 47 21 47ZM 47 47C 41.477154 47 37 51.477154 37 57L 57 57C 57 51.477154 52.52285 47 47 47ZM 38.599998 28.858C 41.500252 29.450012 44.45937 28.153774 45.990616 25.620554C 47.521862 23.087334 47.294193 19.864792 45.421997 17.57202C 43.549801 15.279248 40.437828 14.411924 37.64962 15.405817C 34.861416 16.39971 32.99976 19.039948 33 22M 31.4 15.142C 28.499752 14.54999 25.540634 15.846228 24.009388 18.379448C 22.478142 20.912666 22.705811 24.13521 24.578005 26.427982C 26.450201 28.720753 29.562174 29.588076 32.35038 28.594183C 35.138588 27.600292 37.000244 24.960054 37 22"></path></g></g></g><g id="g-root-ic_bill_1unfk1o8nvifa-stroke" data-item-order="0" transform="translate(255, 170.5)"><g id="ic_bill_1unfk1o8nvifa-stroke" fill="none" stroke-linecap="round" stroke-linejoin="round" stroke-miterlimit="4" stroke="#f4f4f4" stroke-width="2"><g><path d="M 42.139999 43.942001L 51 41C 53.221539 40.34127 55.618008 41.140095 57 43C 32.542 55.226002 40.456001 55.153999 19 48L 11 53M 29 45L 40 45C 40.799885 45.143661 41.608437 44.796913 42.055729 44.118397C 42.503025 43.439884 42.503025 42.56012 42.055729 41.881607C 41.608437 41.203091 40.799885 40.856342 40 41L 34 41C 31.629362 38.554111 28.404079 37.120651 25 37L 19 37L 11 41M 23.007999 15L 53.007999 15L 53.007999 31L 23.007999 31ZM 44.091999 15L 53.007999 22M 45.349998 31L 53.007999 24M 23.007999 24L 30.664 31M 23.007999 22L 31.882 15M 35.007999 23C 35.008003 24.656855 36.351147 26 38.008003 26C 39.664856 26 41.008003 24.656855 41.008003 23C 41.008003 21.343147 39.664856 20 38.008003 20C 36.351147 20 35.008003 21.343147 35.008003 23Z"></path></g></g></g><g id="g-root-ic_incr_hrjlfg8nvh8l-stroke" data-item-order="0" transform="translate(416, 170.78515625)"><g id="ic_incr_hrjlfg8nvh8l-stroke" fill="none" stroke-linecap="round" stroke-linejoin="round" stroke-miterlimit="4" stroke="#f4f4f4" stroke-width="2"><g><path d="M 13 31.5L 29 31.5M 31.98 43.5L 51.98 43.5C 51.98 43.5 52.98 43.5 52.98 44.5L 52.98 54.5C 52.98 54.5 52.98 55.5 51.98 55.5L 31.98 55.5C 31.98 55.5 30.98 55.5 30.98 54.5L 30.98 44.5C 30.98 44.5 30.98 43.5 31.98 43.5M 39.98 49.5C 39.98 50.604568 40.875431 51.5 41.98 51.5C 43.084568 51.5 43.98 50.604568 43.98 49.5C 43.98 48.395432 43.084568 47.5 41.98 47.5C 40.875431 47.5 39.98 48.395432 39.98 49.5M 34 27.5L 39.580002 22C 39.955536 21.621376 40.466724 21.408403 41 21.408403C 41.533276 21.408403 42.044468 21.621376 42.419998 22L 43.580002 23.16C 43.955532 23.538626 44.466724 23.751596 45 23.751596C 45.533276 23.751596 46.044468 23.538626 46.419998 23.16L 57 12.5M 49 12.5L 57 12.5L 57 20.5M 36 43.5L 36 40.5C 36 39.947716 36.447716 39.5 37 39.5L 56 39.5C 56.552284 39.5 57 39.947716 57 40.5L 57 50.5C 57 51.052284 56.552284 51.5 56 51.5L 53 51.5M 31.719999 39.5C 30.236944 36.554527 28.307497 33.855999 26 31.5L 30 26C 30.41003 25.447792 30.41003 24.692207 30 24.139999C 29.565481 23.477631 28.695103 23.260035 28 23.639999C 26.775585 24.15863 25.358892 23.881622 24.420002 22.940001L 24 22.4C 22.94772 21.357777 21.252279 21.357777 20.200001 22.4L 19.66 22.939999C 18.706726 23.916313 17.246269 24.195635 16 23.639999C 15.369627 23.36171 14.630906 23.542286 14.2 24.08C 13.78997 24.632208 13.78997 25.387793 14.2 25.939999L 18.200001 31.5C 18.200001 31.5 11 38.419998 11 44.5C 10.99929 48.3288 12.989542 51.882515 16.254566 53.882339C 19.519592 55.882168 23.5896 56.040363 27 54.300003M 13 31.5L 31 31.5M 22 47.5L 22 49.5M 22 37.5L 22 39.5M 18 47.5L 24 47.5C 25.104568 47.5 26 46.604568 26 45.5C 26 44.395432 25.104568 43.5 24 43.5L 20 43.5C 18.895432 43.5 18 42.604568 18 41.5C 18 40.395432 18.895432 39.5 20 39.5L 26 39.5"></path></g></g></g><g id="g-root-tx_6_1utoaws8nvk00-stroke" data-item-order="0" transform="translate(38, 278)"></g><g id="g-root-tx__dl37lo8nvk02-stroke" data-item-order="0" transform="translate(206, 314)"></g><g id="g-root-tx__147dr988nvk01-stroke" data-item-order="0" transform="translate(38, 338)"></g><g id="g-root-tx__1cuwldo8nww0c-stroke" data-item-order="0" transform="translate(374, 350)"></g><g id="g-root-tx__4g33248nww7f-stroke" data-item-order="0" transform="translate(206, 374)"></g><g id="g-root-tx__v3mkvw8nwydh-stroke" data-item-order="0" transform="translate(374, 434)"></g></g></g><path id="w147cpf05m1fk3" d="M65.283 12.757a.35.35 0 0 0 .584.157l5.203-5.141-6.183 3.523.396 1.461zm-2.216-11.7a.35.35 0 0 0-.522.305v3.111l3.276-1.868-2.754-1.548zm3.728 2.105l-4.25 2.421v2.445l6.391-3.644-2.141-1.222zm4.708 3.303a.35.35 0 0 0 0-.609l-1.592-.9-7.365 4.199v1.782a.35.35 0 0 0 .523.305l8.435-4.777z M44.542 2.513c0-.433.355-.783.792-.783s.792.35.792.783-.355.783-.792.783-.792-.35-.792-.783zm59.171 0c0-.433.355-.783.792-.783s.792.35.792.783-.355.783-.792.783-.792-.35-.792-.783zm-85.951 7.636h-1.27v-.487c-.276.201-.864.609-1.881.609-1.202 0-2.274-.794-2.137-2.078.118-1.106 1.153-1.584 1.848-1.727l2.17-.345c0-.539-.29-.956-1.064-1.006s-1.21.305-1.571 1.017l-1.124-.605c1.218-2.631 5.029-1.764 5.029.414v4.207zm-1.27-2.86c.006.396-.062 1.112-.819 1.59-.587.37-1.841.299-1.903-.395-.049-.555.461-.791.906-.898l1.816-.297zm72.662 2.86h-1.27v-.487c-.276.201-.864.609-1.881.609-1.202 0-2.274-.794-2.137-2.078.118-1.106 1.153-1.584 1.848-1.727l2.17-.345c0-.539-.29-.956-1.064-1.006s-1.21.305-1.571 1.017l-1.124-.605c1.218-2.631 5.029-1.764 5.029.414v4.207zm-1.27-2.86c.006.396-.062 1.112-.82 1.59-.587.37-1.841.299-1.903-.395-.049-.555.461-.791.906-.898l1.816-.297zM99.096 10.149H97.85v-8.45h1.246v4.895l2.68-2.559h1.738l-2.633 2.535 2.715 3.578h-1.556l-2.077-2.707-.867.844v1.863zm6.053-6.114h-1.255v6.113h1.255V4.035zm-59.2 0h-1.255v6.113h1.255V4.035zm5.584 6.113V1.697h1.255v2.695c.361-.346 1-.485 1.47-.485 1.452 0 2.477 1.082 2.457 2.448v3.792h-1.27v-3.68c0-.408-.214-1.339-1.315-1.339-.968 0-1.342.756-1.342 1.339v3.681h-1.255zm-4.76-4.894V4.039h.621a.45.45 0 0 0 .45-.45v-.855h1.251v1.305h1.309v1.215h-1.309v3.109c0 .293.105.664.648.664.365 0 .531-.035.736-.07v1.137s-.361.113-.857.113c-1.398 0-1.777-1.051-1.777-1.788V5.254h-1.071zM36.528 4.039h-1.394l2.191 6.106h1.125l1.234-3.918 1.238 3.918h1.129l2.188-6.106h-1.383l-1.359 3.93-1.256-3.93h-1.124l-1.242 3.957-1.348-3.957zM26.212 7.141c-.02 1.566 1.187 3.129 3.223 3.129 1.566 0 2.383-.918 2.734-1.719L31.172 8c-.315.399-.801 1.094-1.738 1.094-1.145 0-1.825-.781-1.891-1.52h4.625c.074-.284.148-.995-.03-1.559-.336-1.064-1.221-2.102-2.839-2.102s-3.088 1.152-3.088 3.227zm1.363-.75h3.348c-.055-.43-.566-1.301-1.623-1.301a1.79 1.79 0 0 0-1.725 1.301zm-8.758.75c.038 1.758 1.277 3.133 3.145 3.133 1.074 0 1.723-.477 1.961-.672v.547h1.242V1.703h-1.258v2.888c-.414-.36-1.062-.68-1.93-.68-1.91 0-3.198 1.473-3.16 3.23zm1.309-.08c0 1.119.723 1.978 1.836 1.978a1.88 1.88 0 0 0 1.94-1.904c0-1.371-1.011-1.99-1.972-1.99s-1.805.798-1.805 1.916zm76.683-.028C96.771 5.275 95.532 3.9 93.664 3.9c-1.074 0-1.723.477-1.961.672v-.547h-1.242v8.22h1.258V9.583c.414.36 1.063.68 1.93.68 1.91 0 3.198-1.473 3.16-3.23zm-1.309.08c0-1.119-.723-1.978-1.836-1.978a1.88 1.88 0 0 0-1.94 1.904c0 1.371 1.011 1.99 1.972 1.99S95.5 8.231 95.5 7.113zM106.441 10.173V4.036h1.254v.382c.361-.346 1-.485 1.47-.485 1.452 0 2.477 1.082 2.457 2.448v3.792h-1.27V6.492c0-.408-.214-1.339-1.315-1.339-.969 0-1.342.756-1.342 1.339v3.681h-1.254zm-30.383-.021V1.824h1.084l4.215 5.777V1.824h1.32v8.328h-1.094l-4.207-5.796v5.796h-1.319zM5.24 10.149H4V2.377h1.014l2.664 3.597 2.654-3.592h1.03v7.766h-1.256V4.762L7.678 8.068 5.24 4.742v5.407z" transform="translate(456, 650)" fill="#ababab88" stroke="none"></path></svg>