<?xml version="1.0" encoding="utf-8" standalone="yes"?>
<!DOCTYPE svg PUBLIC "-//W3C//DTD SVG 1.1//EN" "http://www.w3.org/Graphics/SVG/1.1/DTD/svg11.dtd">
<svg width="780" height="677" viewBox="0 0 780 677" style="fill:none;stroke:none;fill-rule:evenodd;clip-rule:evenodd;stroke-linecap:round;stroke-linejoin:round;stroke-miterlimit:1.5;" version="1.1" xmlns="http://www.w3.org/2000/svg" xmlns:xlink="http://www.w3.org/1999/xlink"><style class="text-font-style fontImports" data-font-family="Roboto">@import url('https://fonts.googleapis.com/css2?family=Roboto:wght@400;700&amp;display=block');</style><g id="items" style="isolation: isolate"><g id="blend" style="mix-blend-mode: normal"><g id="g-root-cp_1_g-1_qqwnr07025n3-fill" data-item-order="-420473" transform="translate(-4, 152)"><g id="cp_1_g-1_qqwnr07025n3-fill" stroke="none" fill="#4f91fc"><g><path d="M 250.0252 10L 202 27L 202 28L 298 28L 298 27L 250.0252 10ZM 298 28L 202 28L 202 188.199951L 298 188.199951L 298 28ZM 298 188.199951L 202 188.199951L 202 260.199951L 10 308.199951L 202 308.199951L 298 260.199951L 298 188.199951Z"></path></g></g></g><g id="g-root-cp_2_g-2_hv9ni470277l-fill" data-item-order="-420449" transform="translate(188, 191.60009765625)"><g id="cp_2_g-2_hv9ni470277l-fill" stroke="none" fill="#f79438"><g><path d="M 154.0252 10L 106 27L 106 28L 202 28L 202 27L 154.0252 10ZM 202 28L 106 28L 106 148.600098L 202 148.600098L 202 28ZM 202 148.600098L 106 148.600098L 106 220.600098L 10 268.600098L 202 268.600098L 202 220.600098L 202 148.600098Z"></path></g></g></g><g id="g-root-cp_3_g-3_4kfm7w7025mr-fill" data-item-order="-420425" transform="translate(380, 215)"><g id="cp_3_g-3_4kfm7w7025mr-fill" stroke="none" fill="#1ac3fb"><g><path d="M 58.0252 10L 10 27L 10 28L 106 28L 106 27L 58.0252 10ZM 106 28L 10 28L 10 125.199951L 106 125.199951L 106 28ZM 106 125.199951L 10 125.199951L 10 197.199951L 10 245.199951L 202 245.199951L 106 197.199951L 106 125.199951Z"></path></g></g></g><g id="g-root-cp_4_g-4_1cz94jg7025fp-fill" data-item-order="-420401" transform="translate(476, 152)"><g id="cp_4_g-4_1cz94jg7025fp-fill" stroke="none" fill="#43dd93"><g><path d="M 58.0252 10L 10 27L 10 28L 106 28L 106 27L 58.0252 10ZM 106 28L 10 28L 10 188.199951L 106 188.199951L 106 28ZM 106 188.199951L 10 188.199951L 10 260.199951L 106 308.199951L 298 308.199951L 106 260.199951L 106 188.199951Z"></path></g></g></g><g id="g-root-ic_pyth_1qbyl3070260x-fill" data-item-order="-2304" transform="translate(212, 330.199951171875)"><g id="ic_pyth_1qbyl3070260x-fill" stroke="none" fill="#f4f4f4"><g><path d="M 10 10M 56 25.68L 55.68 25.26C 55.097752 24.441158 54.144245 23.968157 53.139999 24L 50 24L 50 26C 50 31.522848 45.522846 36 40 36L 28 36C 24.686291 36 22 38.686295 22 42L 22 53.139999C 22.001244 54.109104 22.470551 55.017921 23.26 55.580002C 24.82 56.68 28 58 34 58C 40 58 43.18 56.68 44.740002 55.580002C 45.524353 55.013515 45.992214 54.107498 46 53.139999L 46 47L 39.5 47C 38.671574 47 38 46.328426 38 45.5C 38 44.671574 38.671574 44 39.5 44L 53.139999 44C 54.109104 43.998756 55.017921 43.529449 55.580002 42.740002L 55.900002 42.32C 56.84 41.120003 58 39.620003 58 34C 58 28.379999 56.84 26.879999 56 25.68ZM 38 50C 39.104568 50 40 50.895432 40 52C 40 53.104568 39.104568 54 38 54C 36.895432 54 36 53.104568 36 52C 36 50.895432 36.895432 50 38 50ZM 18 42C 18 36.477154 22.477154 32 28 32L 40 32C 43.313709 32 46 29.313709 46 26L 46 14.860001C 45.998592 13.885438 45.530033 12.970631 44.739998 12.4C 43.18 11.3 40 10 34 10C 28 10 24.82 11.32 23.26 12.42C 22.470551 12.98208 22.001244 13.890896 22 14.860001L 22 21L 28.5 21C 29.328428 21 30 21.671574 30 22.5C 30 23.328426 29.328428 24 28.5 24L 14.860001 24C 13.890896 24.001244 12.98208 24.470551 12.42 25.26L 12.1 25.68C 11.16 26.879999 10 28.379999 10 34C 10 39.620003 11.16 41.120003 12.1 42.32L 12.42 42.740002C 12.98208 43.529449 13.890896 43.998756 14.860001 44L 18 44ZM 28 16C 28 14.895431 28.89543 14 30 14C 31.10457 14 32 14.895431 32 16C 32 17.104568 31.10457 18 30 18C 28.89543 18 28 17.104568 28 16Z"></path></g></g></g><g id="g-root-ic_tens_146qhq4703ksj-fill" data-item-order="-2304" transform="translate(308, 330.2001953125)"><g id="ic_tens_146qhq4703ksj-fill" stroke="none" fill="#f4f4f4"><g><path d="M 29.879999 10.14L 10.88 18.639999C 10.339016 18.874119 9.991889 19.410587 10 20L 10 30C 9.996452 30.52405 10.270306 31.0109 10.72 31.280001C 11.174809 31.529028 11.72519 31.529028 12.18 31.279999L 21 26.92L 21 50.919998C 20.996386 51.413445 21.235691 51.877098 21.639999 52.16L 29.639999 57.66C 29.89337 57.8325 30.193502 57.923237 30.5 57.920002C 31.323923 57.909225 31.989227 57.243923 32 56.419998L 32 11.5C 31.994225 10.993758 31.739998 10.522692 31.32 10.24C 30.889894 9.958983 30.34482 9.921131 29.880001 10.14ZM 57.119999 18.639999L 38.120003 10.14C 37.672359 9.890744 37.12764 9.890744 36.68 10.14C 36.229733 10.442024 35.971458 10.958571 36 11.5L 36 56.5C 36.010773 57.323921 36.676075 57.989227 37.5 58C 37.800659 58.005798 38.095192 57.914631 38.34 57.740002L 46.34 52.240002C 46.744308 51.9571 46.983616 51.493443 46.98 51L 46.98 40.799999L 52.880001 43.380001C 53.34333 43.581753 53.877102 43.536644 54.300003 43.260002C 54.727615 42.981857 54.98975 42.510014 55 42L 55 35C 54.996571 34.435757 54.680862 33.919846 54.18 33.66L 47 30L 47 26.92L 55.82 31.34C 56.274807 31.589027 56.825188 31.589027 57.279999 31.34C 57.748749 31.060289 58.025478 30.545267 58 30L 58 20C 58.008114 19.410587 57.660988 18.874119 57.120003 18.639999Z"></path></g></g></g><g id="g-root-ic_flut_vb3hh8704yz1-fill" data-item-order="-2304" transform="translate(404, 330.199951171875)"><g id="ic_flut_vb3hh8704yz1-fill" stroke="none" fill="#f4f4f4"><g><path d="M 47.419998 10.62C 47.266598 10.246574 46.903702 10.002015 46.5 10L 30.5 10C 30.234793 9.996767 29.98056 10.105723 29.799999 10.3L 11.8 28.299999C 11.606646 28.481466 11.496963 28.734827 11.496963 28.999998C 11.496963 29.265171 11.606646 29.518532 11.8 29.699999L 19.799999 37.700001C 19.981466 37.893353 20.234829 38.003036 20.5 38.003036C 20.765171 38.003036 21.018532 37.893353 21.199999 37.699997L 47.200001 11.7C 47.498837 11.425266 47.587555 10.989738 47.419998 10.62ZM 10 10M 43.040001 44.119999L 35.32 51.82C 35.080662 52.059708 34.811844 52.26804 34.52 52.439999L 39.799999 57.700001C 39.98056 57.894276 40.234795 58.003231 40.5 58L 54.5 58C 54.903702 57.997986 55.266598 57.753426 55.419998 57.380001C 55.587555 57.010262 55.498837 56.574734 55.200001 56.299999ZM 52.419998 29.620001C 52.266598 29.246574 51.903702 29.002016 51.5 29L 37.5 29C 37.234795 28.996767 36.98056 29.105722 36.799999 29.299999L 24.799999 41.299999C 24.606644 41.481464 24.496962 41.734825 24.496962 42C 24.496962 42.265171 24.606644 42.518532 24.799999 42.699997L 31.799999 49.700001C 31.981464 49.893353 32.234825 50.003036 32.5 50.003036C 32.765171 50.003036 33.018532 49.893353 33.199997 49.699997L 52.200001 30.700001C 52.498837 30.425266 52.587555 29.989738 52.419998 29.619999Z"></path></g></g></g><g id="g-root-ic_byte_740fw706e4v-fill" data-item-order="-2304" transform="translate(500, 330.199951171875)"><g id="ic_byte_740fw706e4v-fill" stroke="none" fill="#f4f4f4"><g><path d="M 34 10C 20.745167 10 10.000001 20.745167 10.000002 34C 10.000002 47.254833 20.745167 58 34 58C 47.254833 58 58 47.254833 58 34C 58 20.745167 47.254837 10 34 10ZM 43.5 39C 43.489021 42.585293 40.585297 45.489021 37 45.5L 28 45.5C 27.176075 45.489227 26.510771 44.823925 26.5 44L 26.5 41C 26.5 40.171574 27.171574 39.5 28 39.5C 28.828428 39.5 29.5 40.171574 29.5 41L 29.5 42.5L 37 42.5C 38.932999 42.5 40.5 40.932999 40.5 39C 40.5 37.067005 38.932999 35.5 37 35.5L 22 35.5C 21.171574 35.5 20.5 34.82843 20.5 34C 20.5 33.171574 21.171574 32.5 22 32.5L 26.5 32.5L 26.5 24C 26.510771 23.176075 27.176075 22.510773 28 22.5L 37 22.5C 39.736076 22.505596 42.175713 24.223969 43.102474 26.798311C 44.029236 29.372652 43.244682 32.251732 41.139999 34C 42.631634 35.232349 43.496716 37.065155 43.5 39ZM 37 25.5L 29.5 25.5L 29.5 32.5L 37 32.5C 38.932999 32.5 40.5 30.932997 40.5 29C 40.5 27.067005 38.932999 25.5 37 25.5Z"></path></g></g></g><g id="g-root-tx__qss30c7024nj-fill" data-item-order="0" transform="translate(164, 38)"><g id="tx__qss30c7024nj-fill" stroke="none" fill="#f4f4f4"><g><text style="font: bold 25px &quot;Roboto&quot;, sans-serif; white-space: pre;" font-weight="bold" font-size="25px" font-family="'Roboto', sans-serif"><tspan x="14.51" y="43.5" dominant-baseline="ideographic">Use of technology in project activities</tspan></text></g></g></g><g id="g-root-tx_89_91i2ik70270o-fill" data-item-order="0" transform="translate(206, 98)"><g id="tx_89_91i2ik70270o-fill" stroke="none" fill="#4f91fc"><g><text style="font: bold 25px &quot;Roboto&quot;, sans-serif; white-space: pre;" font-weight="bold" font-size="25px" font-family="'Roboto', sans-serif"><tspan x="16.41" y="43.5" dominant-baseline="ideographic">89%</tspan></text></g></g></g><g id="g-root-tx_23_zp1kcc706dc6-fill" data-item-order="0" transform="translate(494, 98)"><g id="tx_23_zp1kcc706dc6-fill" stroke="none" fill="#43dd93"><g><text style="font: bold 25px &quot;Roboto&quot;, sans-serif; white-space: pre;" font-weight="bold" font-size="25px" font-family="'Roboto', sans-serif"><tspan x="16.41" y="43.5" dominant-baseline="ideographic">23%</tspan></text></g></g></g><g id="g-root-tx_67_1ut11do703ksi-fill" data-item-order="0" transform="translate(302, 137.60009765625)"><g id="tx_67_1ut11do703ksi-fill" stroke="none" fill="#f79438"><g><text style="font: bold 25px &quot;Roboto&quot;, sans-serif; white-space: pre;" font-weight="bold" font-size="25px" font-family="'Roboto', sans-serif"><tspan x="16.41" y="43.5" dominant-baseline="ideographic">67%</tspan></text></g></g></g><g id="g-root-tx_54_1ut11do704y6c-fill" data-item-order="0" transform="translate(398, 161)"><g id="tx_54_1ut11do704y6c-fill" stroke="none" fill="#1ac3fb"><g><text style="font: bold 25px &quot;Roboto&quot;, sans-serif; white-space: pre;" font-weight="bold" font-size="25px" font-family="'Roboto', sans-serif"><tspan x="16.41" y="43.5" dominant-baseline="ideographic">54%</tspan></text></g></g></g><g id="g-root-tx_python_18f2dz06zlclc-fill" data-item-order="0" transform="translate(62, 486.199951171875)"><g id="tx_python_18f2dz06zlclc-fill" stroke="none" fill="#4f91fc"><g><text style="font: bold 20px &quot;Roboto&quot;, sans-serif; white-space: pre;" font-weight="bold" font-size="20px" font-family="'Roboto', sans-serif"><tspan x="14.22" y="34" dominant-baseline="ideographic">Python</tspan></text></g></g></g><g id="g-root-tx_tensorfl_1uneurg6zlbm2-fill" data-item-order="0" transform="translate(218, 486.199951171875)"><g id="tx_tensorfl_1uneurg6zlbm2-fill" stroke="none" fill="#f79438"><g><text style="font: bold 20px &quot;Roboto&quot;, sans-serif; white-space: pre;" font-weight="bold" font-size="20px" font-family="'Roboto', sans-serif"><tspan x="13.97" y="34" dominant-baseline="ideographic">TensorFlow/</tspan><tspan x="33.09" y="58" dominant-baseline="ideographic">PyTorch</tspan></text></g></g></g><g id="g-root-tx_reactflu_detrgc6zlbm4-fill" data-item-order="0" transform="translate(398, 486.199951171875)"><g id="tx_reactflu_detrgc6zlbm4-fill" stroke="none" fill="#1ac3fb"><g><text style="font: bold 20px &quot;Roboto&quot;, sans-serif; white-space: pre;" font-weight="bold" font-size="20px" font-family="'Roboto', sans-serif"><tspan x="16.97" y="34" dominant-baseline="ideographic">React/Flutter</tspan></text></g></g></g><g id="g-root-tx_blockcha_v7cq4c6zlbf2-fill" data-item-order="0" transform="translate(596, 486.199951171875)"><g id="tx_blockcha_v7cq4c6zlbf2-fill" stroke="none" fill="#43dd93"><g><text style="font: bold 20px &quot;Roboto&quot;, sans-serif; white-space: pre;" font-weight="bold" font-size="20px" font-family="'Roboto', sans-serif"><tspan x="14.46" y="34" dominant-baseline="ideographic">Blockchain</tspan></text></g></g></g><g id="g-root-tx__m8lcfw6zlbt5-fill" data-item-order="0" transform="translate(26, 522.199951171875)"><g id="tx__m8lcfw6zlbt5-fill" stroke="none" fill="#ebf2ff"><g><text style="font: 15px &quot;Roboto&quot;, sans-serif; white-space: pre;" font-size="15px" font-family="'Roboto', sans-serif"><tspan x="13.15" y="28" dominant-baseline="ideographic">Widely used in most </tspan><tspan x="53.18" y="46" dominant-baseline="ideographic">projects</tspan></text></g></g></g><g id="g-root-tx__1ltn9rw6zlbf1-fill" data-item-order="0" transform="translate(386, 522.199951171875)"><g id="tx__1ltn9rw6zlbf1-fill" stroke="none" fill="#e5f8ff"><g><text style="font: 15px &quot;Roboto&quot;, sans-serif; white-space: pre;" font-size="15px" font-family="'Roboto', sans-serif"><tspan x="12.69" y="28" dominant-baseline="ideographic">Common for interface </tspan><tspan x="42.96" y="46" dominant-baseline="ideographic">development</tspan></text></g></g></g><g id="g-root-tx_fintech_dgp6po6zlamf-fill" data-item-order="0" transform="translate(566, 522.199951171875)"><g id="tx_fintech_dgp6po6zlamf-fill" stroke="none" fill="#dffff0"><g><text style="font: 15px &quot;Roboto&quot;, sans-serif; white-space: pre;" font-size="15px" font-family="'Roboto', sans-serif"><tspan x="12.28" y="31" dominant-baseline="ideographic">Used in FinTech projects</tspan></text></g></g></g><g id="g-root-tx_ai_zlaszg6zlceb-fill" data-item-order="0" transform="translate(194, 546.199951171875)"><g id="tx_ai_zlaszg6zlceb-fill" stroke="none" fill="#fff0e2"><g><text style="font: 15px &quot;Roboto&quot;, sans-serif; white-space: pre;" font-size="15px" font-family="'Roboto', sans-serif"><tspan x="13.68" y="28" dominant-baseline="ideographic">Popular frameworks for </tspan><tspan x="52.86" y="46" dominant-baseline="ideographic">AI solutions</tspan></text></g></g></g><g id="g-root-cp_1_g-1_qqwnr07025n3-stroke" data-item-order="-420473" transform="translate(-4, 152)"><g id="cp_1_g-1_qqwnr07025n3-stroke" fill="none" stroke-linecap="round" stroke-linejoin="round" stroke-miterlimit="4" stroke="#2c2c2c" stroke-width="2"><g><path d="M 298 28L 298 27L 250.0252 10L 202 27L 202 28M 297.999969 28L 297.999969 188.199951M 202 188.199951L 202 28M 10 308.199951L 202 260.199951L 298 260.199951L 202 308.199951L 10 308.199951ZM 202 260.199951L 202 188.199951M 298 188.199951L 298 260.199951"></path></g></g></g><g id="g-root-cp_2_g-2_hv9ni470277l-stroke" data-item-order="-420449" transform="translate(188, 191.60009765625)"><g id="cp_2_g-2_hv9ni470277l-stroke" fill="none" stroke-linecap="round" stroke-linejoin="round" stroke-miterlimit="4" stroke="#2c2c2c" stroke-width="2"><g><path d="M 202 28L 202 27L 154.0252 10L 106 27L 106 28M 201.999969 28L 201.999969 148.600098M 106 148.600098L 106 28M 10 268.600098L 106 220.600098L 202 220.600098L 202 268.600098L 10 268.600098ZM 106 220.600098L 106 148.600098M 202 148.600098L 202 220.600098"></path></g></g></g><g id="g-root-cp_3_g-3_4kfm7w7025mr-stroke" data-item-order="-420425" transform="translate(380, 215)"><g id="cp_3_g-3_4kfm7w7025mr-stroke" fill="none" stroke-linecap="round" stroke-linejoin="round" stroke-miterlimit="4" stroke="#2c2c2c" stroke-width="2"><g><path d="M 106 28L 106 27L 58.0252 10L 10 27L 10 28M 105.999969 28L 105.999969 125.199951M 10 125.199951L 10 28M 10 245.199951L 10 197.199951L 106 197.199951L 202 245.199951L 10 245.199951ZM 10 197.199951L 10 125.199951M 106 125.199951L 106 197.199951"></path></g></g></g><g id="g-root-cp_4_g-4_1cz94jg7025fp-stroke" data-item-order="-420401" transform="translate(476, 152)"><g id="cp_4_g-4_1cz94jg7025fp-stroke" fill="none" stroke-linecap="round" stroke-linejoin="round" stroke-miterlimit="4" stroke="#2c2c2c" stroke-width="2"><g><path d="M 106 28L 106 27L 58.0252 10L 10 27L 10 28M 105.999969 28L 105.999969 188.199951M 10 188.199951L 10 28M 106 308.199951L 10 260.199951L 106 260.199951L 298 308.199951L 106 308.199951ZM 10 260.199951L 10 188.199951M 106 188.199951L 106 260.199951"></path></g></g></g><g id="g-root-ic_pyth_1qbyl3070260x-stroke" data-item-order="-2304" transform="translate(212, 330.199951171875)"></g><g id="g-root-ic_tens_146qhq4703ksj-stroke" data-item-order="-2304" transform="translate(308, 330.2001953125)"></g><g id="g-root-ic_flut_vb3hh8704yz1-stroke" data-item-order="-2304" transform="translate(404, 330.199951171875)"></g><g id="g-root-ic_byte_740fw706e4v-stroke" data-item-order="-2304" transform="translate(500, 330.199951171875)"></g><g id="g-root-tx__qss30c7024nj-stroke" data-item-order="0" transform="translate(164, 38)"></g><g id="g-root-tx_89_91i2ik70270o-stroke" data-item-order="0" transform="translate(206, 98)"></g><g id="g-root-tx_23_zp1kcc706dc6-stroke" data-item-order="0" transform="translate(494, 98)"></g><g id="g-root-tx_67_1ut11do703ksi-stroke" data-item-order="0" transform="translate(302, 137.60009765625)"></g><g id="g-root-tx_54_1ut11do704y6c-stroke" data-item-order="0" transform="translate(398, 161)"></g><g id="g-root-tx_python_18f2dz06zlclc-stroke" data-item-order="0" transform="translate(62, 486.199951171875)"></g><g id="g-root-tx_tensorfl_1uneurg6zlbm2-stroke" data-item-order="0" transform="translate(218, 486.199951171875)"></g><g id="g-root-tx_reactflu_detrgc6zlbm4-stroke" data-item-order="0" transform="translate(398, 486.199951171875)"></g><g id="g-root-tx_blockcha_v7cq4c6zlbf2-stroke" data-item-order="0" transform="translate(596, 486.199951171875)"></g><g id="g-root-tx__m8lcfw6zlbt5-stroke" data-item-order="0" transform="translate(26, 522.199951171875)"></g><g id="g-root-tx__1ltn9rw6zlbf1-stroke" data-item-order="0" transform="translate(386, 522.199951171875)"></g><g id="g-root-tx_fintech_dgp6po6zlamf-stroke" data-item-order="0" transform="translate(566, 522.199951171875)"></g><g id="g-root-tx_ai_zlaszg6zlceb-stroke" data-item-order="0" transform="translate(194, 546.199951171875)"></g></g></g><path id="w1qapmzw5c0e80" d="M65.283 12.757a.35.35 0 0 0 .584.157l5.203-5.141-6.183 3.523.396 1.461zm-2.216-11.7a.35.35 0 0 0-.522.305v3.111l3.276-1.868-2.754-1.548zm3.728 2.105l-4.25 2.421v2.445l6.391-3.644-2.141-1.222zm4.708 3.303a.35.35 0 0 0 0-.609l-1.592-.9-7.365 4.199v1.782a.35.35 0 0 0 .523.305l8.435-4.777z M44.542 2.513c0-.433.355-.783.792-.783s.792.35.792.783-.355.783-.792.783-.792-.35-.792-.783zm59.171 0c0-.433.355-.783.792-.783s.792.35.792.783-.355.783-.792.783-.792-.35-.792-.783zm-85.951 7.636h-1.27v-.487c-.276.201-.864.609-1.881.609-1.202 0-2.274-.794-2.137-2.078.118-1.106 1.153-1.584 1.848-1.727l2.17-.345c0-.539-.29-.956-1.064-1.006s-1.21.305-1.571 1.017l-1.124-.605c1.218-2.631 5.029-1.764 5.029.414v4.207zm-1.27-2.86c.006.396-.062 1.112-.819 1.59-.587.37-1.841.299-1.903-.395-.049-.555.461-.791.906-.898l1.816-.297zm72.662 2.86h-1.27v-.487c-.276.201-.864.609-1.881.609-1.202 0-2.274-.794-2.137-2.078.118-1.106 1.153-1.584 1.848-1.727l2.17-.345c0-.539-.29-.956-1.064-1.006s-1.21.305-1.571 1.017l-1.124-.605c1.218-2.631 5.029-1.764 5.029.414v4.207zm-1.27-2.86c.006.396-.062 1.112-.82 1.59-.587.37-1.841.299-1.903-.395-.049-.555.461-.791.906-.898l1.816-.297zM99.096 10.149H97.85v-8.45h1.246v4.895l2.68-2.559h1.738l-2.633 2.535 2.715 3.578h-1.556l-2.077-2.707-.867.844v1.863zm6.053-6.114h-1.255v6.113h1.255V4.035zm-59.2 0h-1.255v6.113h1.255V4.035zm5.584 6.113V1.697h1.255v2.695c.361-.346 1-.485 1.47-.485 1.452 0 2.477 1.082 2.457 2.448v3.792h-1.27v-3.68c0-.408-.214-1.339-1.315-1.339-.968 0-1.342.756-1.342 1.339v3.681h-1.255zm-4.76-4.894V4.039h.621a.45.45 0 0 0 .45-.45v-.855h1.251v1.305h1.309v1.215h-1.309v3.109c0 .293.105.664.648.664.365 0 .531-.035.736-.07v1.137s-.361.113-.857.113c-1.398 0-1.777-1.051-1.777-1.788V5.254h-1.071zM36.528 4.039h-1.394l2.191 6.106h1.125l1.234-3.918 1.238 3.918h1.129l2.188-6.106h-1.383l-1.359 3.93-1.256-3.93h-1.124l-1.242 3.957-1.348-3.957zM26.212 7.141c-.02 1.566 1.187 3.129 3.223 3.129 1.566 0 2.383-.918 2.734-1.719L31.172 8c-.315.399-.801 1.094-1.738 1.094-1.145 0-1.825-.781-1.891-1.52h4.625c.074-.284.148-.995-.03-1.559-.336-1.064-1.221-2.102-2.839-2.102s-3.088 1.152-3.088 3.227zm1.363-.75h3.348c-.055-.43-.566-1.301-1.623-1.301a1.79 1.79 0 0 0-1.725 1.301zm-8.758.75c.038 1.758 1.277 3.133 3.145 3.133 1.074 0 1.723-.477 1.961-.672v.547h1.242V1.703h-1.258v2.888c-.414-.36-1.062-.68-1.93-.68-1.91 0-3.198 1.473-3.16 3.23zm1.309-.08c0 1.119.723 1.978 1.836 1.978a1.88 1.88 0 0 0 1.94-1.904c0-1.371-1.011-1.99-1.972-1.99s-1.805.798-1.805 1.916zm76.683-.028C96.771 5.275 95.532 3.9 93.664 3.9c-1.074 0-1.723.477-1.961.672v-.547h-1.242v8.22h1.258V9.583c.414.36 1.063.68 1.93.68 1.91 0 3.198-1.473 3.16-3.23zm-1.309.08c0-1.119-.723-1.978-1.836-1.978a1.88 1.88 0 0 0-1.94 1.904c0 1.371 1.011 1.99 1.972 1.99S95.5 8.231 95.5 7.113zM106.441 10.173V4.036h1.254v.382c.361-.346 1-.485 1.47-.485 1.452 0 2.477 1.082 2.457 2.448v3.792h-1.27V6.492c0-.408-.214-1.339-1.315-1.339-.969 0-1.342.756-1.342 1.339v3.681h-1.254zm-30.383-.021V1.824h1.084l4.215 5.777V1.824h1.32v8.328h-1.094l-4.207-5.796v5.796h-1.319zM5.24 10.149H4V2.377h1.014l2.664 3.597 2.654-3.592h1.03v7.766h-1.256V4.762L7.678 8.068 5.24 4.742v5.407z" transform="translate(644, 642.199951171875)" fill="#ababab88" stroke="none"></path></svg>