<?xml version="1.0" encoding="UTF-8"?>
<svg id="Layer_2" data-name="Layer 2" xmlns="http://www.w3.org/2000/svg" xmlns:xlink="http://www.w3.org/1999/xlink" viewBox="0 0 1921.8 877.24">
  <defs>
    <style>
      .cls-1 {
        isolation: isolate;
      }

      .cls-2 {
        fill: #ffc50e;
      }

      .cls-2, .cls-3, .cls-4, .cls-5 {
        stroke-width: 0px;
      }

      .cls-3 {
        fill: #231f20;
      }

      .cls-4 {
        fill: #17789c;
      }

      .cls-5 {
        fill: #981a36;
      }
    </style>
    <symbol id="fulllogo" viewBox="0 0 331.82 163.52">
      <g id="full_logo" data-name="full logo">
        <use width="142.97" height="75.42" transform="translate(144.77 44.05)" xlink:href="#logotype"/>
        <use id="logomark" width="165.65" height="216.2" transform="translate(44.05 22.07) scale(.54 .55)" xlink:href="#symbol_3d"/>
      </g>
    </symbol>
    <symbol id="logotype" viewBox="0 0 142.97 75.42">
      <g>
        <g id="BEST">
          <path id="shadow_outline" data-name="shadow outline" class="cls-3" d="m118.64,75.42v-1.46h-1.56v-1.45h-1.56v-20.09h-9.59v.78h1.5v1.42h1.46v1.46h1.5v16.47h-2.96v2.88H41.63v-1.46h-1.56v-1.42h-3.73v2.88H3.12v-1.46h-1.56v-1.45H0v-32.27h34.84v1.46h1.5v1.42h2.16v-2.87h34.84v1.46h.7v-1.46h67.42v1.46h1.5v10.72h-8.89v23h-15.45Zm-41.47-12.18v-.78h-1.56v-1.42h-1.4v-.03h-.16v-1.42h-1.4v-1.46h-1.56v-5.72h-9.59v.78h1.5v10.05h14.17Z"/>
          <g>
            <g>
              <path class="cls-5" d="m34.78,73.89H5.16v-28.75h29.62v2.88h2.96v8.62h-2.96v5.75h2.96v8.63h-2.96v2.87Zm-17.77-17.25h8.89v-5.75h-8.89v5.75Zm0,11.5h8.89v-5.75h-8.89v5.75Z"/>
              <path class="cls-5" d="m43.67,71.02h-2.96v-23h2.96v-2.88h29.62v5.75h-20.73v5.75h8.89v5.75h-8.89v5.75h20.73v5.75h-29.62v-2.87Z"/>
              <path class="cls-5" d="m76.25,68.14h20.73v-5.75h-17.77v-2.87h-2.96v-11.5h2.96v-2.88h29.62v5.75h-20.73v5.75h17.77v2.88h2.96v11.5h-2.96v2.87h-29.62v-5.75Z"/>
              <path class="cls-5" d="m132.53,73.89h-11.85v-23h-8.89v-5.75h29.62v5.75h-8.89v23Z"/>
            </g>
            <g>
              <path class="cls-2" d="m34.78,72.2H5.16v-28.75h29.62v2.88h2.96v8.62h-2.96v5.75h2.96v8.63h-2.96v2.87Zm-17.77-17.25h8.89v-5.75h-8.89v5.75Zm0,11.5h8.89v-5.75h-8.89v5.75Z"/>
              <path class="cls-2" d="m43.67,69.33h-2.96v-23h2.96v-2.88h29.62v5.75h-20.73v5.75h8.89v5.75h-8.89v5.75h20.73v5.75h-29.62v-2.87Z"/>
              <path class="cls-2" d="m76.25,66.45h20.73v-5.75h-17.77v-2.87h-2.96v-11.5h2.96v-2.88h29.62v5.75h-20.73v5.75h17.77v2.88h2.96v11.5h-2.96v2.87h-29.62v-5.75Z"/>
              <path class="cls-2" d="m132.53,72.2h-11.85v-23h-8.89v-5.75h29.62v5.75h-8.89v23Z"/>
            </g>
            <g>
              <path class="cls-5" d="m32.98,72.2H3.36v-28.75h29.62v2.88h2.96v8.62h-2.96v5.75h2.96v8.63h-2.96v2.87Zm-17.77-17.25h8.89v-5.75h-8.89v5.75Zm0,11.5h8.89v-5.75h-8.89v5.75Z"/>
              <path class="cls-5" d="m41.87,69.33h-2.96v-23h2.96v-2.88h29.62v5.75h-20.73v5.75h8.89v5.75h-8.89v5.75h20.73v5.75h-29.62v-2.87Z"/>
              <path class="cls-5" d="m74.45,66.45h20.73v-5.75h-17.77v-2.87h-2.96v-11.5h2.96v-2.88h29.62v5.75h-20.73v5.75h17.77v2.88h2.96v11.5h-2.96v2.87h-29.62v-5.75Z"/>
              <path class="cls-5" d="m130.73,72.2h-11.85v-23h-8.89v-5.75h29.62v5.75h-8.89v23Z"/>
            </g>
            <g>
              <path class="cls-2" d="m33.05,70.51H3.43v-28.75h29.62v2.88h2.96v8.62h-2.96v5.75h2.96v8.63h-2.96v2.87Zm-17.77-17.25h8.89v-5.75h-8.89v5.75Zm0,11.5h8.89v-5.75h-8.89v5.75Z"/>
              <path class="cls-2" d="m41.94,67.64h-2.96v-23h2.96v-2.88h29.62v5.75h-20.73v5.75h8.89v5.75h-8.89v5.75h20.73v5.75h-29.62v-2.87Z"/>
              <path class="cls-2" d="m74.52,64.76h20.73v-5.75h-17.77v-2.87h-2.96v-11.5h2.96v-2.88h29.62v5.75h-20.73v5.75h17.77v2.88h2.96v11.5h-2.96v2.87h-29.62v-5.75Z"/>
              <path class="cls-2" d="m130.8,70.51h-11.85v-23h-8.89v-5.75h29.62v5.75h-8.89v23Z"/>
            </g>
            <g>
              <path class="cls-4" d="m31.18,70.51H1.56v-28.75h29.62v2.88h2.96v8.62h-2.96v5.75h2.96v8.63h-2.96v2.87Zm-17.77-17.25h8.89v-5.75h-8.89v5.75Zm0,11.5h8.89v-5.75h-8.89v5.75Z"/>
              <path class="cls-4" d="m40.07,67.64h-2.96v-23h2.96v-2.88h29.62v5.75h-20.73v5.75h8.89v5.75h-8.89v5.75h20.73v5.75h-29.62v-2.87Z"/>
              <path class="cls-4" d="m72.65,64.76h20.73v-5.75h-17.77v-2.87h-2.96v-11.5h2.96v-2.88h29.62v5.75h-20.73v5.75h17.77v2.88h2.96v11.5h-2.96v2.87h-29.62v-5.75Z"/>
              <path class="cls-4" d="m128.93,70.51h-11.85v-23h-8.89v-5.75h29.62v5.75h-8.89v23Z"/>
            </g>
          </g>
        </g>
        <g id="CODE">
          <path id="shadow_outline-2" data-name="shadow outline" class="cls-3" d="m110.45,34.76v-1.44h-1.53v-1.4h-1.37v-.03h-.16v-1.4h-1.37v-1.4h-.77v2.84h-2.9v2.84h-29.62v-1.44h-1.53v-1.4h-.78v2.84h-29.62v-1.44h-1.53v-1.4h-3.68v2.84H5.96v-1.44h-1.53v-1.4h-1.37v-.03h-.16v-1.4h-1.37v-1.44H0V2.84h2.9V0h31.21v1.44h1.47v1.4h2.15V0h31.21v1.44h.71V0h31.21v1.44h1.47v1.4h1.43v1.44h.71v-1.44h2.9V0h34.11v1.44h1.47v10.61h-13.08v.74h1.47v9.92h10.14v1.44h1.47v10.61h-32.52Zm-55.3-12.05v-10.66h-2.15v10.66h2.15Zm-34.83,0v-5.68h3.06v-.74h-1.53v-1.44h-1.53v-2.8h-2.15v10.66h2.15Zm69.66-2.84v-6.42h-1.37v-1.4h-.78v7.82h2.15Z"/>
          <g>
            <g>
              <path class="cls-4" d="m34.05,33.25H7.93v-2.84h-2.9V7.7h2.9v-2.84h26.12v2.84h2.9v8.51h-11.61v-5.68h-8.71v17.03h8.71v-5.68h11.61v8.51h-2.9v2.84Z"/>
              <path class="cls-4" d="m68.88,33.25h-26.12v-2.84h-2.9V7.7h2.9v-2.84h26.12v2.84h2.9v22.71h-2.9v2.84Zm-8.71-17.03v-5.68h-8.71v17.03h8.71v-11.35Z"/>
              <path class="cls-4" d="m100.81,33.25h-26.12V4.87h26.12v2.84h2.9v2.84h2.9v17.03h-2.9v2.84h-2.9v2.84Zm-8.71-22.71h-5.8v17.03h5.8v-2.84h2.9v-11.35h-2.9v-2.84Z"/>
              <path class="cls-4" d="m112.42,30.41h-2.9V7.7h2.9v-2.84h29.02v5.68h-20.32v5.68h8.71v5.68h-8.71v5.68h20.32v5.68h-29.02v-2.84Z"/>
            </g>
            <g>
              <path class="cls-2" d="m34.05,31.57H7.93v-2.84h-2.9V6.03h2.9v-2.84h26.12v2.84h2.9v8.51h-11.61v-5.68h-8.71v17.03h8.71v-5.68h11.61v8.51h-2.9v2.84Z"/>
              <path class="cls-2" d="m68.88,31.57h-26.12v-2.84h-2.9V6.03h2.9v-2.84h26.12v2.84h2.9v22.71h-2.9v2.84Zm-8.71-17.03v-5.68h-8.71v17.03h8.71v-11.35Z"/>
              <path class="cls-2" d="m100.81,31.57h-26.12V3.19h26.12v2.84h2.9v2.84h2.9v17.03h-2.9v2.84h-2.9v2.84Zm-8.71-22.71h-5.8v17.03h5.8v-2.84h2.9v-11.35h-2.9v-2.84Z"/>
              <path class="cls-2" d="m112.42,28.73h-2.9V6.03h2.9v-2.84h29.02v5.68h-20.32v5.68h8.71v5.68h-8.71v5.68h20.32v5.68h-29.02v-2.84Z"/>
            </g>
            <g>
              <path class="cls-4" d="m32.3,31.57H6.18v-2.84h-2.9V6.03h2.9v-2.84h26.12v2.84h2.9v8.51h-11.61v-5.68h-8.71v17.03h8.71v-5.68h11.61v8.51h-2.9v2.84Z"/>
              <path class="cls-4" d="m67.13,31.57h-26.12v-2.84h-2.9V6.03h2.9v-2.84h26.12v2.84h2.9v22.71h-2.9v2.84Zm-8.71-17.03v-5.68h-8.71v17.03h8.71v-11.35Z"/>
              <path class="cls-4" d="m99.06,31.57h-26.12V3.19h26.12v2.84h2.9v2.84h2.9v17.03h-2.9v2.84h-2.9v2.84Zm-8.71-22.71h-5.8v17.03h5.8v-2.84h2.9v-11.35h-2.9v-2.84Z"/>
              <path class="cls-4" d="m110.67,28.73h-2.9V6.03h2.9v-2.84h29.02v5.68h-20.32v5.68h8.71v5.68h-8.71v5.68h20.32v5.68h-29.02v-2.84Z"/>
            </g>
            <g>
              <path class="cls-2" d="m32.37,29.89H6.25v-2.84h-2.9V4.35h2.9V1.51h26.12v2.84h2.9v8.51h-11.61v-5.68h-8.71v17.03h8.71v-5.68h11.61v8.51h-2.9v2.84Z"/>
              <path class="cls-2" d="m67.2,29.89h-26.12v-2.84h-2.9V4.35h2.9V1.51h26.12v2.84h2.9v22.71h-2.9v2.84Zm-8.71-17.03v-5.68h-8.71v17.03h8.71v-11.35Z"/>
              <path class="cls-2" d="m99.13,29.89h-26.12V1.51h26.12v2.84h2.9v2.84h2.9v17.03h-2.9v2.84h-2.9v2.84Zm-8.71-22.71h-5.8v17.03h5.8v-2.84h2.9v-11.35h-2.9v-2.84Z"/>
              <path class="cls-2" d="m110.74,27.05h-2.9V4.35h2.9V1.51h29.02v5.68h-20.32v5.68h8.71v5.68h-8.71v5.68h20.32v5.68h-29.02v-2.84Z"/>
            </g>
            <g>
              <path class="cls-5" d="m30.55,29.89H4.43v-2.84H1.53V4.35h2.9V1.51h26.12v2.84h2.9v8.51h-11.61v-5.68h-8.71v17.03h8.71v-5.68h11.61v8.51h-2.9v2.84Z"/>
              <path class="cls-5" d="m65.38,29.89h-26.12v-2.84h-2.9V4.35h2.9V1.51h26.12v2.84h2.9v22.71h-2.9v2.84Zm-8.71-17.03v-5.68h-8.71v17.03h8.71v-11.35Z"/>
              <path class="cls-5" d="m97.31,29.89h-26.12V1.51h26.12v2.84h2.9v2.84h2.9v17.03h-2.9v2.84h-2.9v2.84Zm-8.71-22.71h-5.8v17.03h5.8v-2.84h2.9v-11.35h-2.9v-2.84Z"/>
              <path class="cls-5" d="m108.92,27.05h-2.9V4.35h2.9V1.51h29.02v5.68h-20.32v5.68h8.71v5.68h-8.71v5.68h20.32v5.68h-29.02v-2.84Z"/>
            </g>
          </g>
        </g>
        <g id="FOR">
          <g id="shadow_outline-3" data-name="shadow outline">
            <path class="cls-3" d="m91.86,46.03v-.83h-.86v-.83h-.86v-4.9h-.71v6.56h-9.05v-.83h-.8v.83h-17.25v-.83h-.86v-.81h-.78v-.02h-.09v-.81h-.78v-.83h-.86v-9.83h-3.99v6.56h-4.92v6.56h-9.05v-.83h-.86v-.83h-.86v-17.25h1.64v-1.64h57.53v.83h.83v.81h.81v.83h.83v18.08h-9.05Zm-21.42-7.43v-5.7h-.71v5.7h.71Z"/>
            <rect class="cls-3" x="41.82" y="30.84" width="57.24" height="13.67"/>
          </g>
          <g>
            <g>
              <path class="cls-4" d="m48.93,44.92h-6.56v-14.77h1.64v-1.64h16.41v3.28h-11.49v3.28h4.92v3.28h-4.92v6.56Z"/>
              <path class="cls-4" d="m78.47,44.92h-14.77v-1.64h-1.64v-13.13h1.64v-1.64h14.77v1.64h1.64v13.13h-1.64v1.64Zm-4.92-9.84v-3.28h-4.92v9.85h4.92v-6.56Z"/>
              <path class="cls-4" d="m88.31,44.92h-6.56v-16.41h16.41v1.64h1.64v4.92h-1.64v3.28h1.64v6.56h-6.56v-6.56h-4.92v6.56Zm0-9.84h4.92v-3.28h-4.92v3.28Z"/>
            </g>
            <g>
              <path class="cls-5" d="m48.93,43.96h-6.56v-14.77h1.64v-1.64h16.41v3.28h-11.49v3.28h4.92v3.28h-4.92v6.56Z"/>
              <path class="cls-5" d="m78.47,43.96h-14.77v-1.64h-1.64v-13.13h1.64v-1.64h14.77v1.64h1.64v13.13h-1.64v1.64Zm-4.92-9.84v-3.28h-4.92v9.85h4.92v-6.56Z"/>
              <path class="cls-5" d="m88.31,43.96h-6.56v-16.41h16.41v1.64h1.64v4.92h-1.64v3.28h1.64v6.56h-6.56v-6.56h-4.92v6.56Zm0-9.84h4.92v-3.28h-4.92v3.28Z"/>
            </g>
            <g>
              <path class="cls-4" d="m47.93,43.96h-6.56v-14.77h1.64v-1.64h16.41v3.28h-11.49v3.28h4.92v3.28h-4.92v6.56Z"/>
              <path class="cls-4" d="m77.47,43.96h-14.77v-1.64h-1.64v-13.13h1.64v-1.64h14.77v1.64h1.64v13.13h-1.64v1.64Zm-4.92-9.84v-3.28h-4.92v9.85h4.92v-6.56Z"/>
              <path class="cls-4" d="m87.31,43.96h-6.56v-16.41h16.41v1.64h1.64v4.92h-1.64v3.28h1.64v6.56h-6.56v-6.56h-4.92v6.56Zm0-9.84h4.92v-3.28h-4.92v3.28Z"/>
            </g>
            <g>
              <path class="cls-5" d="m47.97,43h-6.56v-14.77h1.64v-1.64h16.41v3.28h-11.49v3.28h4.92v3.28h-4.92v6.56Z"/>
              <path class="cls-5" d="m77.51,43h-14.77v-1.64h-1.64v-13.13h1.64v-1.64h14.77v1.64h1.64v13.13h-1.64v1.64Zm-4.92-9.84v-3.28h-4.92v9.85h4.92v-6.56Z"/>
              <path class="cls-5" d="m87.35,43h-6.56v-16.41h16.41v1.64h1.64v4.92h-1.64v3.28h1.64v6.56h-6.56v-6.56h-4.92v6.56Zm0-9.84h4.92v-3.28h-4.92v3.28Z"/>
            </g>
            <g>
              <path class="cls-2" d="m46.93,43h-6.56v-14.77h1.64v-1.64h16.41v3.28h-11.49v3.28h4.92v3.28h-4.92v6.56Z"/>
              <path class="cls-2" d="m76.47,43h-14.77v-1.64h-1.64v-13.13h1.64v-1.64h14.77v1.64h1.64v13.13h-1.64v1.64Zm-4.92-9.84v-3.28h-4.92v9.85h4.92v-6.56Z"/>
              <path class="cls-2" d="m86.31,43h-6.56v-16.41h16.41v1.64h1.64v4.92h-1.64v3.28h1.64v6.56h-6.56v-6.56h-4.92v6.56Zm0-9.84h4.92v-3.28h-4.92v3.28Z"/>
            </g>
          </g>
        </g>
      </g>
    </symbol>
    <symbol id="symbol_3d" viewBox="0 0 165.65 216.2">
      <g>
        <g>
          <polygon class="cls-3" points="113.48 37.28 121.04 45.17 96.69 70.59 110.39 84.93 127.59 84.93 165.65 45.15 122.35 0 105.15 0 83.15 22.96 96.83 37.28 113.48 37.28"/>
          <polygon class="cls-3" points="110.46 131.28 96.77 145.58 121.08 171.02 113.54 178.9 96.95 178.9 83.26 193.21 105.24 216.2 122.42 216.2 165.64 171.03 127.64 131.28 110.46 131.28"/>
          <polygon class="cls-3" points="65.68 56.29 48.5 56.29 0 107.71 48.5 159.13 65.68 159.13 79.46 144.92 44.36 107.71 79.46 70.5 65.68 56.29"/>
        </g>
        <g>
          <g class="cls-1">
            <polygon class="cls-4" points="113.76 33.23 112.74 34.28 98.11 34.28 106.43 25.59 113.76 33.23"/>
            <polygon class="cls-4" points="146.86 45.16 161.49 45.16 126.31 81.93 111.67 81.93 146.86 45.16"/>
            <polygon class="cls-2" points="106.43 3 121.07 3 161.49 45.16 146.86 45.16 106.43 3"/>
            <polygon class="cls-5" points="125.19 45.16 100.84 70.59 111.67 81.93 146.86 45.16 106.43 3 87.3 22.96 98.11 34.28 106.43 25.59 125.19 45.16"/>
          </g>
          <g>
            <polygon class="cls-2" points="113.84 182.93 106.52 190.57 98.23 181.9 112.85 181.9 113.84 182.93"/>
            <polygon class="cls-4" points="146.87 171.03 161.49 171.03 121.14 213.2 106.52 213.2 146.87 171.03"/>
            <polygon class="cls-2" points="111.74 134.28 126.36 134.28 161.49 171.03 146.87 171.03 111.74 134.28"/>
            <polygon class="cls-5" points="106.52 190.57 98.23 181.9 87.41 193.21 106.52 213.2 146.87 171.03 111.74 134.28 100.92 145.58 125.23 171.02 106.52 190.57"/>
          </g>
          <g class="cls-1">
            <polygon class="cls-2" points="25.61 107.71 40.23 107.71 75.31 144.89 60.69 144.89 25.61 107.71"/>
            <polygon class="cls-4" points="60.69 144.89 75.31 144.89 64.41 156.13 49.79 156.13 60.69 144.89"/>
            <polygon class="cls-4" points="60.69 70.53 75.31 70.53 40.23 107.71 25.61 107.71 60.69 70.53"/>
            <polygon class="cls-2" points="49.79 59.29 64.41 59.29 75.31 70.53 60.69 70.53 49.79 59.29"/>
            <polygon class="cls-5" points="49.79 59.29 60.69 70.53 25.61 107.71 60.69 144.89 49.79 156.13 4.12 107.71 49.79 59.29"/>
          </g>
        </g>
      </g>
    </symbol>
  </defs>
  <g id="GUIDE">
    <use width="331.82" height="163.52" transform="translate(-.26 -.24) scale(5.79 5.37)" xlink:href="#fulllogo"/>
  </g>
</svg>