<?xml version="1.0" encoding="UTF-8"?>
<svg id="Layer_2" data-name="Layer 2" xmlns="http://www.w3.org/2000/svg" xmlns:xlink="http://www.w3.org/1999/xlink" viewBox="0 0 825.01 1076.82">
  <defs>
    <style>
      .cls-1 {
        isolation: isolate;
      }

      .cls-2 {
        fill: #ffc50e;
      }

      .cls-2, .cls-3, .cls-4, .cls-5 {
        stroke-width: 0px;
      }

      .cls-3 {
        fill: #231f20;
      }

      .cls-4 {
        fill: #17789c;
      }

      .cls-5 {
        fill: #981a36;
      }
    </style>
    <symbol id="symbol_3d" viewBox="0 0 165.65 216.2">
      <g>
        <g>
          <polygon class="cls-3" points="113.48 37.28 121.04 45.17 96.69 70.59 110.39 84.93 127.59 84.93 165.65 45.15 122.35 0 105.15 0 83.15 22.96 96.83 37.28 113.48 37.28"/>
          <polygon class="cls-3" points="110.46 131.28 96.77 145.58 121.08 171.02 113.54 178.9 96.95 178.9 83.26 193.21 105.24 216.2 122.42 216.2 165.64 171.03 127.64 131.28 110.46 131.28"/>
          <polygon class="cls-3" points="65.68 56.29 48.5 56.29 0 107.71 48.5 159.13 65.68 159.13 79.46 144.92 44.36 107.71 79.46 70.5 65.68 56.29"/>
        </g>
        <g>
          <g class="cls-1">
            <polygon class="cls-4" points="113.76 33.23 112.74 34.28 98.11 34.28 106.43 25.59 113.76 33.23"/>
            <polygon class="cls-4" points="146.86 45.16 161.49 45.16 126.31 81.93 111.67 81.93 146.86 45.16"/>
            <polygon class="cls-2" points="106.43 3 121.07 3 161.49 45.16 146.86 45.16 106.43 3"/>
            <polygon class="cls-5" points="125.19 45.16 100.84 70.59 111.67 81.93 146.86 45.16 106.43 3 87.3 22.96 98.11 34.28 106.43 25.59 125.19 45.16"/>
          </g>
          <g>
            <polygon class="cls-2" points="113.84 182.93 106.52 190.57 98.23 181.9 112.85 181.9 113.84 182.93"/>
            <polygon class="cls-4" points="146.87 171.03 161.49 171.03 121.14 213.2 106.52 213.2 146.87 171.03"/>
            <polygon class="cls-2" points="111.74 134.28 126.36 134.28 161.49 171.03 146.87 171.03 111.74 134.28"/>
            <polygon class="cls-5" points="106.52 190.57 98.23 181.9 87.41 193.21 106.52 213.2 146.87 171.03 111.74 134.28 100.92 145.58 125.23 171.02 106.52 190.57"/>
          </g>
          <g class="cls-1">
            <polygon class="cls-2" points="25.61 107.71 40.23 107.71 75.31 144.89 60.69 144.89 25.61 107.71"/>
            <polygon class="cls-4" points="60.69 144.89 75.31 144.89 64.41 156.13 49.79 156.13 60.69 144.89"/>
            <polygon class="cls-4" points="60.69 70.53 75.31 70.53 40.23 107.71 25.61 107.71 60.69 70.53"/>
            <polygon class="cls-2" points="49.79 59.29 64.41 59.29 75.31 70.53 60.69 70.53 49.79 59.29"/>
            <polygon class="cls-5" points="49.79 59.29 60.69 70.53 25.61 107.71 60.69 144.89 49.79 156.13 4.12 107.71 49.79 59.29"/>
          </g>
        </g>
      </g>
    </symbol>
  </defs>
  <g id="SYMBOL_LOGO" data-name="SYMBOL LOGO">
    <use width="165.65" height="216.2" transform="scale(4.98)" xlink:href="#symbol_3d"/>
  </g>
</svg>