<?xml version="1.0" encoding="UTF-8"?>
<svg id="Layer_2" data-name="Layer 2" xmlns="http://www.w3.org/2000/svg" viewBox="0 0 256 256">
  <defs>
    <style>
      .cls-1 {
        fill: #991a36;
        stroke-width: 0px;
      }
    </style>
  </defs>
  <g id="Layer_1-2" data-name="Layer 1">
    <path class="cls-1" d="m128.13,0C57.5-.1.12,57.09,0,127.7c-.13,70.79,57.04,128.17,127.8,128.3,70.7.12,127.96-57.05,128.19-127.97C256.22,57.62,198.77.11,128.13,0Zm36.74,75.09c-3.22,0-6.21-.02-9.21.01-3.11.02-6.23-.04-9.33.19-5.9.46-9.51,3.41-9.92,9.22-.5,7.15-.11,14.36-.11,21.85h27.55c-1.24,9.56-2.42,18.77-3.63,28.23h-24.07v71.9h-29.3v-71.8h-24v-28.17h23.94c0-1.37-.01-2.4.01-3.42.1-7.47-.16-14.96.39-22.41,1.39-18.88,13.98-31.19,32.87-31.95,7.61-.31,15.27.48,22.91.89.66.03,1.81.99,1.81,1.53.12,7.81.09,15.63.09,23.93Z"/>
  </g>
</svg>