<?xml version="1.0" encoding="UTF-8"?>
<svg id="Layer_2" data-name="Layer 2" xmlns="http://www.w3.org/2000/svg" viewBox="0 0 256 256">
  <defs>
    <style>
      .cls-1 {
        fill: #991a36;
        stroke-width: 0px;
      }
    </style>
  </defs>
  <g id="Layer_1-2" data-name="Layer 1">
    <path class="cls-1" d="m127.8,256C57.57,256.07.13,198.81,0,128.58-.14,57.53,57.33-.24,127.9,0c71.09.24,127.86,57.01,128.1,128.08.23,70.53-57.21,127.85-128.2,127.92Zm63.5-128.12c-.97,1.02-1.63,1.75-2.32,2.45-5.57,5.59-11.21,11.12-16.71,16.77-3.88,3.98-3.84,9.65-.11,13.45,3.74,3.8,9.48,4,13.44.11,8.77-8.6,17.47-17.28,26.06-26.07,3.78-3.87,3.71-9.34-.09-13.21-8.6-8.77-17.31-17.44-26.06-26.07-2.32-2.29-5.27-3.22-8.55-2.43-7.6,1.83-10.13,10.51-4.6,16.17,6.14,6.29,12.46,12.4,18.94,18.83Zm-126.65.14c2.92-2.89,5.49-5.4,8.03-7.94,3.75-3.74,7.57-7.41,11.2-11.26,3.72-3.94,3.64-9.49.03-13.24-3.61-3.75-9.4-4.14-13.21-.44-8.94,8.71-17.76,17.55-26.48,26.48-3.49,3.58-3.66,8.96-.23,12.51,8.82,9.12,17.72,18.16,26.91,26.9,5.16,4.9,13.26,2.21,15.29-4.62,1.16-3.89-.16-7.06-2.87-9.78-6.12-6.14-12.27-12.25-18.67-18.62Zm51.54,39.17c3.62-.07,6.51-2.5,8.29-6.67,8.13-19.07,16.33-38.12,24.47-57.19.58-1.36,1.1-2.82,1.23-4.27.41-4.57-2.7-8.88-6.95-9.95-4.68-1.18-9.28,1-11.31,5.65-4.4,10.05-8.66,20.15-12.99,30.23-4.13,9.62-8.35,19.2-12.36,28.87-2.72,6.56,1.74,13.34,9.62,13.35Z"/>
  </g>
</svg>