<?xml version="1.0" encoding="UTF-8"?>
<svg id="Layer_2" data-name="Layer 2" xmlns="http://www.w3.org/2000/svg" viewBox="0 0 256 256">
  <defs>
    <style>
      .cls-1 {
        fill: #991a36;
        stroke-width: 0px;
      }
    </style>
  </defs>
  <g id="Layer_1-2" data-name="Layer 1">
    <path class="cls-1" d="m130.62,255.99C59.43,257,.94,200.58.01,129.99-.92,59.2,55.65,1,126.35.01c70.13-.97,128.84,55.96,129.64,125.88.81,70.83-54.61,128.23-125.38,130.1Zm-14.12-162.87c0,11.17.1,22.35-.05,33.52-.06,4.31,1.41,7.69,4.45,10.66,6.11,5.96,12.1,12.05,18.14,18.09,5.2,5.2,10.35,10.47,15.63,15.58,4.82,4.66,11.83,4.63,16.38.11,4.69-4.66,4.59-11.77-.37-16.78-9.72-9.81-19.49-19.56-29.31-29.28-1.34-1.32-1.87-2.65-1.86-4.52.06-20.26.04-40.51.02-60.77,0-1.44,0-2.94-.34-4.32-1.47-5.81-6.7-9.3-12.74-8.64-5.56.6-9.91,5.54-9.93,11.47-.05,11.63-.01,23.26-.02,34.88Z"/>
  </g>
</svg>