<?xml version="1.0" encoding="UTF-8"?>
<svg id="Layer_2" data-name="Layer 2" xmlns="http://www.w3.org/2000/svg" viewBox="0 0 256 256">
  <defs>
    <style>
      .cls-1 {
        fill: #991a36;
        stroke-width: 0px;
      }
    </style>
  </defs>
  <g id="Layer_1-2" data-name="Layer 1">
    <g>
      <path class="cls-1" d="m48.75,179.22c-5.68,0-11.09-.03-16.49,0-5.91.05-11.58-.99-16.69-4.22C5.6,168.69.18,159.44.16,147.13.08,109.27.41,71.4,0,33.54-.18,16.49,12.23-.21,31.77,0c16.75.18,33.5.04,50.25.04,35.02,0,70.04.05,105.07-.03,12.21-.03,21.76,4.9,28.18,15.93,2.99,5.13,4.19,10.81,4.18,16.85-.05,37.57-.33,75.14.11,112.7.2,17.24-12.2,34-32.12,33.8-27.03-.27-54.05-.02-81.08-.13-2.73-.01-4.57.87-6.44,2.87-9.88,10.54-19.84,21-29.87,31.38-5.58,5.78-13.64,5.49-18.38-.46-2.11-2.65-2.92-5.76-2.92-9.17,0-6.99,0-13.99,0-20.98,0-1.08,0-2.15,0-3.58Zm54.9-73.87c.1,1.59-.23,3.42.42,4.71.9,1.79,2.27,3.7,3.92,4.61,1.98,1.1,4.59.63,5.92-1.46,1.08-1.7,1.92-4.03,1.81-6.01-.4-7.13,2.55-11.74,8.21-15.47,10.25-6.75,14.48-16.75,12.78-29.4-1.78-13.29-13.14-23.59-26.17-23.76-13.61-.17-25.51,9.85-27.59,23.22-.7,4.51,1.08,7.69,4.74,8.5,3.3.73,6.18-1.68,7.16-5.99.09-.39.09-.8.18-1.18,2.06-8.34,10.47-13.59,18.37-11.49,6.33,1.69,10.83,6.7,11.54,13.63.72,6.99-2.02,12.45-7.82,16.05-8.73,5.41-13.54,13.17-13.46,24.02Zm12.09,28.91c-.06-3.44-2.8-6.27-6.02-6.23-3.22.04-5.9,2.93-5.91,6.35,0,3.64,2.68,6.38,6.17,6.28,3.33-.1,5.83-2.87,5.77-6.4Z"/>
      <path class="cls-1" d="m231.51,39.05c8.41,2.01,14.69,6.45,19.27,13.51,3.57,5.51,5.23,11.63,5.22,18.34-.04,37.76-.02,75.53-.02,113.29,0,19.52-12.79,33.12-31.43,33.4-5.6.08-11.2.01-17.19.01,0,1.34,0,2.39,0,3.45,0,7.09.04,14.19-.01,21.28-.04,5.82-2.43,10.2-7.58,12.62-4.63,2.18-9.78.95-13.83-3.27-10.12-10.57-20.22-21.15-30.26-31.81-1.52-1.61-3.04-2.32-5.23-2.31-21.12.08-42.25.05-63.38.05h-3.64c.97-1.16,1.48-1.83,2.05-2.43,6.72-7.07,13.49-14.09,20.15-21.23,1.38-1.48,2.78-2.07,4.74-2.07,25.69.06,51.39,0,77.08.05,15.01.03,27.16-6,36.08-18.73,5.52-7.88,8.01-16.82,7.99-26.63-.06-34.47-.02-68.93-.02-103.4,0-1.19,0-2.38,0-4.12Z"/>
    </g>
  </g>
</svg>