<?xml version="1.0" encoding="UTF-8"?>
<svg id="Layer_2" data-name="Layer 2" xmlns="http://www.w3.org/2000/svg" viewBox="0 0 256 256">
  <defs>
    <style>
      .cls-1 {
        fill: #991a36;
        stroke-width: 0px;
      }
    </style>
  </defs>
  <g id="Layer_1-2" data-name="Layer 1">
    <g>
      <path class="cls-1" d="m128.28,0C57.54-.17.02,57.23,0,127.99c-.02,70.59,57.38,127.99,128.01,128.01,70.63.01,127.96-57.34,127.99-128.02C256.03,57.47,198.84.17,128.28,0Zm67.9,179.8c-.03,10.8-7.32,18.05-18.13,18.07-32.47.07-64.94.07-97.4,0-11.04-.01-18.27-7.4-18.27-18.48-.02-32.22.1-64.45-.07-96.67-.06-11.41,8.79-18.9,18.77-18.64,16.13.4,32.29.11,48.43.11s32.29-.01,48.43,0c10.86.01,18.22,7.07,18.24,17.88.09,32.57.08,65.15.01,97.73Z"/>
      <path class="cls-1" d="m180.81,123.84c.01,17.18.01,34.38,0,51.56,0,5.25-1.64,6.9-6.92,6.9-29.78.01-59.56.01-89.35,0-5.42,0-7.09-1.66-7.09-7.04-.01-17.19-.01-34.38,0-51.57,0-.86.08-1.74.12-2.75h11.67c-3.84,16.31.04,30.36,12.73,41.44,9.19,8.04,20.18,11.11,32.24,9.81,23.8-2.57,42.25-25.12,35.3-51.41h11.16c.06,1.17.13,2.11.13,3.06Z"/>
      <path class="cls-1" d="m156.07,130.76c-.02,14.33-12.03,25.9-26.78,25.83-14.73-.08-26.65-11.78-26.57-26.09.09-14.14,12.08-25.7,26.7-25.7s26.68,11.6,26.65,25.95Z"/>
      <path class="cls-1" d="m180.74,99.43c-.07,3.45-2.27,5.66-5.73,5.82-2.49.12-5.01.02-7.52.02h0c-2.51.01-5.01.09-7.52,0-3.62-.12-5.95-2.29-6.04-5.83-.13-4.82-.13-9.66.01-14.48.1-3.42,2.44-5.62,5.89-5.69,5.01-.09,10.02-.09,15.04,0,3.61.07,5.81,2.32,5.88,5.94.08,4.74.09,9.48-.01,14.21Z"/>
    </g>
  </g>
</svg>