<?xml version="1.0" encoding="UTF-8"?>
<svg id="Layer_2" data-name="Layer 2" xmlns="http://www.w3.org/2000/svg" viewBox="0 0 256 256">
  <defs>
    <style>
      .cls-1 {
        fill: #991a36;
        stroke-width: 0px;
      }
    </style>
  </defs>
  <g id="Layer_1-2" data-name="Layer 1">
    <path class="cls-1" d="m182.12,12.1c-14-6.63-28.79-10.58-44.35-11.62-.89-.06-1.77-.31-2.66-.48h-14.22c-5.13.68-10.34,1.04-15.38,2.12C52.08,13.55,18.59,45.71,3.97,97.04c-1.95,6.82-2.35,14.07-3.47,21.13-.15.86-.34,1.73-.5,2.59v14.5c.72,5.3,1.27,10.63,2.2,15.89,9.35,52.44,51.06,93.84,104.44,102.98,51.68,8.86,102.53-14.52,130.12-58.9,40.35-64.88,14.88-150.24-54.65-183.14Zm35.63,49.41c.58.25,1.11.58,1.39.99.24.34.49.68.72,1.02,11.84,16.75,18.49,35.39,20.18,56.13h-18.57c0-4.57.01-9.01,0-13.46,0-1.87.07-3.75-.03-5.64-.1-1.8-.66-3.44-1.58-4.79-1.61-2.42-4.35-3.97-7.63-4.03-5.09-.1-10.21.03-15.3-.1-.8-.02-2.12-.78-2.27-1.42-2.24-9.48-4.33-18.97-6.5-28.7-.02-.1-.05-.19-.07-.29.65-.04,1.42-.16,2.18-.16,8.58-.01,17.14-.06,25.71.06.55.01,1.19.15,1.77.39Zm-146.41,97.45h48.23v28.84c-.82.04-1.7.15-2.57.15-12.49.01-24.99-.03-37.47.04-1.94.01-2.98-.39-3.37-2.44-1.43-7.73-3.02-15.44-4.5-23.16-.21-1.03-.21-2.1-.32-3.43Zm64.21,28.83v-28.7h46.77c-1.95,9.75-3.84,19.24-5.73,28.7h-41.04Zm49.1-45.52c-1.83-5.78-3.65-11.56-5.7-18.05-.64,1.83-1.1,3.03-1.47,4.25-1.91,6.06-3.85,12.11-5.64,18.2-.49,1.67-1.28,2.21-3.04,2.21-7.32.01-7.31.07-9.24-6.78-1.94-6.89-3.91-13.77-5.86-20.65-.14-.49-.34-.96-.74-2.05-2.38,8.39-4.58,16.18-6.77,23.96-1.56,5.55-1.56,5.38-7.5,5.56-2.88.09-4.09-.72-4.85-3.52-1.84-6.72-4.11-13.32-6.22-19.98-.05-.17-.18-.3-.42-.69-.3.71-.59,1.27-.78,1.85-2.14,6.73-4.31,13.47-6.33,20.24-.48,1.6-1.24,2.05-2.88,2.06-7.46.08-7.45.12-9.43-6.95-2.04-7.32-4.1-14.62-6.37-22.73-.72,2.39-1.24,4.06-1.72,5.74-2.03,7.24-4.12,14.46-6.05,21.72-.46,1.69-1.21,2.22-2.98,2.23-7.3.02-7.3.08-9.43-6.71-1.82-5.76-3.63-11.51-5.96-17.27-1.87,5.93-3.77,11.86-5.62,17.78-1.95,6.22-1.94,6.11-8.45,6.22-2.44.04-3.38-.67-4.02-3.04-3.61-13.29-7.42-26.52-11.16-39.78-.26-.93-.46-1.88-.75-3.14,3.89,0,7.53-.09,11.15.09.61.03,1.47,1.14,1.67,1.89,1.76,6.66,3.39,13.35,5.19,20.52.4-.89.67-1.36.83-1.86,1.99-6.22,3.99-12.44,5.89-18.69.42-1.39,1.04-1.97,2.64-1.99,7.73-.13,7.72-.19,10.02,7.08,1.55,4.95,3.14,9.88,4.72,14.83.02.07.14.1.48.34,1.53-6.11,2.98-12.1,4.55-18.09,1.23-4.72.03-4.07,5.2-4.11,3.81-.03,7.64,0,11.74,0,1.87,7.43,3.71,14.76,5.77,22.92,1.9-5.98,3.56-11.19,5.21-16.41,2.06-6.54,2.06-6.45,9.03-6.57,2.1-.03,3.04.58,3.63,2.57,1.94,6.59,4.08,13.12,6.38,20.45,1.6-6.38,3.02-11.99,4.42-17.6q1.33-5.36,6.92-5.36c2.74,0,5.47.1,8.2-.04,1.74-.08,2.34.57,2.72,2.17,1.58,6.67,3.29,13.29,5.45,19.98,1.24-3.97,2.5-7.92,3.75-11.89.35-1.11.7-2.22,1.04-3.33,2.23-7.07,2.23-7.02,9.86-6.95,1.72.02,2.34.66,2.8,2.16,2.02,6.66,4.17,13.29,6.75,19.98.78-3.01,1.55-6.03,2.31-9.04.94-3.73,1.78-7.49,2.83-11.18.21-.73,1.14-1.75,1.78-1.77,3.53-.18,7.08-.09,10.9-.09-.17.92-.24,1.59-.42,2.23-3.86,13.78-7.78,27.56-11.57,41.35-.49,1.8-1.24,2.36-3.15,2.35-7.14-.02-7.14.04-9.24-6.6Zm18.59-96.8c-6.5,0-13,.02-19.51-.06-.51-.01-1.28-.69-1.48-1.23-2.27-5.79-4.44-11.63-6.86-18.02,10.66,4.93,19.76,11.16,27.86,19.31Zm-67.62-29.97c6.18,1.06,12.21,2.1,18.23,3.18.43.08.95.58,1.14,1.01,3.77,8.36,7.5,16.74,11.49,25.68h-30.86V15.51Zm.17,45.69c.71-.04,1.5-.13,2.3-.13,10.28-.01,20.57.04,30.85-.06.97-.01,1.67.12,2.17.5.49.37.81.96,1.03,1.85,2.31,9.25,4.73,18.47,7.21,28.07-1.24.15-1.77.26-2.31.26-13.11.01-26.21.01-39.32.02-1.26,0-2.33.01-2.32-1.75.07-9.38.07-18.76.1-28.13,0-.1.05-.19.13-.32.05-.09.11-.19.17-.31Zm-46.09-17.68c3.43-7.5,6.91-14.96,10.28-22.48.75-1.66,1.85-2.51,3.62-2.78,5.28-.83,10.53-1.7,16.06-2.6v29.63h-30.44c.17-.64.24-1.24.48-1.77Zm-4.87,17.63c11.3-.12,22.6-.07,33.91-.06.25,0,.5.15.98.28v30.12h-44.64c.86-3.72,1.58-7.28,2.52-10.79,1.58-5.87,3.24-11.72,5.04-17.54.17-.55.73-1.23,1.3-1.65.31-.21.63-.36.89-.37Zm-5.68-34.32c-2.01,4.9-3.75,9.07-5.42,13.26-2.19,5.42-2.17,5.42-8.2,5.42h-12.76c-.08-.22-.17-.45-.25-.67,7.79-7.09,16.39-13.02,26.63-18.01ZM18.57,102.5c3.16-14.13,9.14-27.1,17.43-39.04,1.19-1.71,2.41-2.51,4.63-2.47,7.48.16,14.95.06,22.43.06h2.97c-.03.16-.08.3-.11.46-2.02,8-3.96,15.73-5.92,23.47-.54,2.15-.41,5.21-1.82,6.22-1.56,1.13-4.52.46-6.88.49-3.28.04-6.57-.04-9.84.03-.21,0-.41.01-.61.04-4.98.39-8.51,3.97-8.62,8.98-.13,5.98-.02,11.97-.02,18.24H15.67c.98-5.67,1.7-11.13,2.9-16.48Zm10.5,78.81c-7.46-13.84-11.76-28.59-13.11-44.16-.06-.71-.01-1.41-.01-2.38h16.24v10.19c0,1.34-.01,2.68,0,4.02.09,5.69,3.28,9.25,8.67,9.79.45.06.91.09,1.39.09,3.64.03,7.29.03,10.93-.01,1.24-.01,1.92.24,2.16,1.69,1.47,8.8,3.1,17.57,4.65,26.36.05.26.01.53.01,1.04h-19.68q-7.67,0-11.25-6.63Zm15.8,22.2c6.88,0,13.02-.02,19.15.04.46,0,1.14.57,1.34,1.03,3.15,7.35,6.22,14.71,9.46,22.41-11.26-6.14-21.03-13.68-29.95-23.49Zm74.8,37.01c-6.6-1.22-12.91-2.38-19.19-3.61-.53-.1-1.06-.68-1.38-1.18-6.57-9.79-12.11-20.11-16.45-31.04-.09-.22-.03-.5-.07-1h37.08v36.82Zm47.41-28.33c-4.08,7.58-8.52,14.95-12.38,22.63-1.32,2.62-3.16,3.24-5.58,3.59-4.4.63-8.78,1.27-13.56,1.95v-36.67h35.26c-1.3,3-2.31,5.86-3.73,8.51Zm9.09,17.35c.26-.85.35-1.3.54-1.71,3.3-7.43,6.65-14.85,9.9-22.3.54-1.23.99-2.11,2.65-2.08,6.73.1,13.47.04,20.19.06.32,0,.65.08,1.53.2-10.05,10.93-21.38,19.33-34.81,25.84Zm48.39-44.01c-1.12,1.89-2.38,2.49-4.53,2.47h-.15c-9.06-.11-18.1-.06-27.3-.06,1.78-9.67,3.52-19.12,5.35-29.08,4.31,0,8.76.02,13.2,0,4.05-.02,7.05-1.45,8.75-4.07,1.04-1.6,1.59-3.66,1.61-6.12.02-4.35,0-8.71,0-13.22h18.76c-.62,4.56-1.02,8.98-1.83,13.31-2.43,13.03-7.12,25.27-13.87,36.77Z"/>
  </g>
</svg>