<?xml version="1.0" encoding="utf-8" standalone="yes"?>
<!DOCTYPE svg PUBLIC "-//W3C//DTD SVG 1.1//EN" "http://www.w3.org/Graphics/SVG/1.1/DTD/svg11.dtd">
<svg width="962" height="718" viewBox="0 0 962 718"
    style="fill:none;stroke:none;fill-rule:evenodd;clip-rule:evenodd;stroke-linecap:round;stroke-linejoin:round;stroke-miterlimit:1.5;"
    version="1.1" xmlns="http://www.w3.org/2000/svg" xmlns:xlink="http://www.w3.org/1999/xlink">
    <style class="text-font-style fontImports" data-font-family="Roboto">
        @import url('https://fonts.googleapis.com/css2?family=Roboto:wght@400;700&amp;display=block');
    </style>
    <g id="items" style="isolation: isolate">
        <g id="blend" style="mix-blend-mode: normal">
            <g id="g-root-cp_1_g-1_1lxean05lvswc-fill" data-item-order="-555134" transform="translate(-9, 176)">
                <g id="cp_1_g-1_1lxean05lvswc-fill" stroke="none" fill="#4f91fc">
                    <g>
                        <path
                            d="M 298.0252 10L 250 27L 250 28L 346 28L 346 27L 298.0252 10ZM 346 28L 250 28L 250 193.600098L 346 193.600098L 346 28ZM 346 193.600098L 250 193.600098L 250 265.600098L 10 313.600098L 202 313.600098L 346 265.600098L 346 193.600098Z">
                        </path>
                    </g>
                </g>
            </g>
            <g id="g-root-cp_2_g-2_146qr8c5lvs3q-fill" data-item-order="-555110" transform="translate(183, 185)">
                <g id="cp_2_g-2_146qr8c5lvs3q-fill" stroke="none" fill="#1ac3fb">
                    <g>
                        <path
                            d="M 202.0252 10L 154 27L 154 28L 250 28L 250 27L 202.0252 10ZM 250 28L 154 28L 154 184.600098L 250 184.600098L 250 28ZM 250 184.600098L 154 184.600098L 154 256.600098L 10 304.600098L 202 304.600098L 250 256.600098L 250 184.600098Z">
                        </path>
                    </g>
                </g>
            </g>
            <g id="g-root-cp_3_g-3_qvwpy45lvqiw-fill" data-item-order="-555086"
                transform="translate(375, 201.2001953125)">
                <g id="cp_3_g-3_qvwpy45lvqiw-fill" stroke="none" fill="#43dd93">
                    <g>
                        <path
                            d="M 106.0252 10L 58 27L 58 28L 154 28L 154 27L 106.0252 10ZM 154 28L 58 28L 58 168.399902L 154 168.399902L 154 28ZM 154 168.399902L 58 168.399902L 58 240.399902L 10 288.399902L 202 288.399902L 154 240.399902L 154 168.399902Z">
                        </path>
                    </g>
                </g>
            </g>
            <g id="g-root-cp_4_g-4_dkg7ks5lvs3u-fill" data-item-order="-555062"
                transform="translate(519, 224.60009765625)">
                <g id="cp_4_g-4_dkg7ks5lvs3u-fill" stroke="none" fill="#a6da37">
                    <g>
                        <path
                            d="M 58.0252 10L 10 27L 10 28L 106 28L 106 27L 58.0252 10ZM 106 28L 10 28L 10 145L 106 145L 106 28ZM 106 145L 10 145L 10 217L 58 265L 250 265L 106 217L 106 145Z">
                        </path>
                    </g>
                </g>
            </g>
            <g id="g-root-cp_5_g-5_9m6ak5lvqj0-fill" data-item-order="-555038"
                transform="translate(615, 253.39990234375)">
                <g id="cp_5_g-5_9m6ak5lvqj0-fill" stroke="none" fill="#ffe711">
                    <g>
                        <path
                            d="M 58.0252 10L 10 27L 10 28L 106 28L 106 27L 58.0252 10ZM 106 28L 10 28L 10 116.200195L 106 116.200195L 106 28ZM 106 116.200195L 10 116.200195L 10 188.200195L 154 236.200195L 346 236.200195L 106 188.200195L 106 116.200195Z">
                        </path>
                    </g>
                </g>
            </g>
            <g id="g-root-tx_65_18f2kbg5m2rrh-fill" data-item-order="0" transform="translate(537, 170.60009765625)">
                <g id="tx_65_18f2kbg5m2rrh-fill" stroke="none" fill="#a6da37">
                    <g><text style="font: bold 25px &quot;Roboto&quot;, sans-serif; white-space: pre;"
                            font-weight="bold" font-size="25px" font-family="'Roboto', sans-serif">
                            <tspan x="16.41" y="43.5" dominant-baseline="ideographic">65%</tspan>
                        </text></g>
                </g>
            </g>
            <g id="g-root-tx_78_90vuxo5lzzsz-fill" data-item-order="0" transform="translate(441, 147.2001953125)">
                <g id="tx_78_90vuxo5lzzsz-fill" stroke="none" fill="#43dd93">
                    <g><text style="font: bold 25px &quot;Roboto&quot;, sans-serif; white-space: pre;"
                            font-weight="bold" font-size="25px" font-family="'Roboto', sans-serif">
                            <tspan x="16.41" y="43.5" dominant-baseline="ideographic">78%</tspan>
                        </text></g>
                </g>
            </g>
            <g id="g-root-tx__v63yak5m8f7u-fill" data-item-order="0" transform="translate(753, 575.599609375)">
                <g id="tx__v63yak5m8f7u-fill" stroke="none" fill="#000000">
                    <g><text style="font: 15px &quot;Roboto&quot;, sans-serif; white-space: pre;" font-size="15px"
                            font-family="'Roboto', sans-serif">
                            <tspan x="15.48" y="28" dominant-baseline="ideographic">Working through social </tspan>
                            <tspan x="32.2" y="46" dominant-baseline="ideographic">and ethical issues</tspan>
                        </text></g>
                </g>
            </g>
            <g id="g-root-tx_87_4ot7bw5lykg1-fill" data-item-order="0" transform="translate(345, 131)">
                <g id="tx_87_4ot7bw5lykg1-fill" stroke="none" fill="#1ac3fb">
                    <g><text style="font: bold 25px &quot;Roboto&quot;, sans-serif; white-space: pre;"
                            font-weight="bold" font-size="25px" font-family="'Roboto', sans-serif">
                            <tspan x="16.41" y="43.5" dominant-baseline="ideographic">87%</tspan>
                        </text></g>
                </g>
            </g>
            <g id="g-root-tx_92_qn62qk5lx79j-fill" data-item-order="0" transform="translate(249, 122)">
                <g id="tx_92_qn62qk5lx79j-fill" stroke="none" fill="#4f91fc">
                    <g><text style="font: bold 25px &quot;Roboto&quot;, sans-serif; white-space: pre;"
                            font-weight="bold" font-size="25px" font-family="'Roboto', sans-serif">
                            <tspan x="16.41" y="43.5" dominant-baseline="ideographic">92%</tspan>
                        </text></g>
                </g>
            </g>
            <g id="g-root-tx__1hjg7rw5lvsp2-fill" data-item-order="0" transform="translate(357, 38)">
                <g id="tx__1hjg7rw5lvsp2-fill" stroke="none" fill="#000000">
                    <g><text style="font: bold 25px &quot;Roboto&quot;, sans-serif; white-space: pre;"
                            font-weight="bold" font-size="25px" font-family="'Roboto', sans-serif">
                            <tspan x="12.28" y="40.5" dominant-baseline="ideographic">Goals of hackathon </tspan>
                            <tspan x="53.53" y="70.5" dominant-baseline="ideographic">participants</tspan>
                        </text></g>
                </g>
            </g>
            <g id="g-root-ic_brai_8wijbw5lx6gw-fill" data-item-order="0" transform="translate(255, 359.60009765625)">
            </g>
            <g id="g-root-ic_1_147zpek5lyl1m-fill" data-item-order="0" transform="translate(351, 359.60009765625)"></g>
            <g id="g-root-ic_asce_144vbz05lzy10-fill" data-item-order="0" transform="translate(447, 359.60009765625)">
            </g>
            <g id="g-root-ic_mega_dcyijg5m2sjq-fill" data-item-order="0" transform="translate(543, 359.60009765625)">
            </g>
            <g id="g-root-ic_fema_1cu9lcs5m5log-fill" data-item-order="0" transform="translate(639, 359.60009765625)">
            </g>
            <g id="g-root-tx__diksbg5m71fl-fill" data-item-order="0" transform="translate(51, 515.599609375)">
                <g id="tx__diksbg5m71fl-fill" stroke="none" fill="#4f91fc">
                    <g><text style="font: bold 20px &quot;Roboto&quot;, sans-serif; white-space: pre;"
                            font-weight="bold" font-size="20px" font-family="'Roboto', sans-serif">
                            <tspan x="24.26" y="34" dominant-baseline="ideographic">Practical </tspan>
                            <tspan x="14.56" y="58" dominant-baseline="ideographic">experience</tspan>
                        </text></g>
                </g>
            </g>
            <g id="g-root-tx__i09pp85m6znn-fill" data-item-order="0" transform="translate(237, 515.599609375)">
                <g id="tx__i09pp85m6znn-fill" stroke="none" fill="#1ac3fb">
                    <g><text style="font: bold 20px &quot;Roboto&quot;, sans-serif; white-space: pre;"
                            font-weight="bold" font-size="20px" font-family="'Roboto', sans-serif">
                            <tspan x="12.2" y="34" dominant-baseline="ideographic">Networking</tspan>
                        </text></g>
                </g>
            </g>
            <g id="g-root-tx__m7ckm45m8flx-fill" data-item-order="0" transform="translate(411, 515.599609375)">
                <g id="tx__m7ckm45m8flx-fill" stroke="none" fill="#43dd93">
                    <g><text style="font: bold 20px &quot;Roboto&quot;, sans-serif; white-space: pre;"
                            font-weight="bold" font-size="20px" font-family="'Roboto', sans-serif">
                            <tspan x="46.08" y="34" dominant-baseline="ideographic">Career </tspan>
                            <tspan x="15.75" y="58" dominant-baseline="ideographic">opportunities</tspan>
                        </text></g>
                </g>
            </g>
            <g id="g-root-tx__v48j185m8g7j-fill" data-item-order="0" transform="translate(603, 515.599609375)">
                <g id="tx__v48j185m8g7j-fill" stroke="none" fill="#a6da37">
                    <g><text style="font: bold 20px &quot;Roboto&quot;, sans-serif; white-space: pre;"
                            font-weight="bold" font-size="20px" font-family="'Roboto', sans-serif">
                            <tspan x="13.67" y="34" dominant-baseline="ideographic">Prize pools</tspan>
                        </text></g>
                </g>
            </g>
            <g id="g-root-tx__1lsehy45m8f7t-fill" data-item-order="0" transform="translate(753, 515.599609375)">
                <g id="tx__1lsehy45m8f7t-fill" stroke="none" fill="#ffe711">
                    <g><text style="font: bold 20px &quot;Roboto&quot;, sans-serif; white-space: pre;"
                            font-weight="bold" font-size="20px" font-family="'Roboto', sans-serif">
                            <tspan x="13.93" y="34" dominant-baseline="ideographic">Solution of social </tspan>
                            <tspan x="49.82" y="58" dominant-baseline="ideographic">problems</tspan>
                        </text></g>
                </g>
            </g>
            <g id="g-root-tx__1d3mpng5m711g-fill" data-item-order="0" transform="translate(213, 551.599609375)">
                <g id="tx__1d3mpng5m711g-fill" stroke="none" fill="#000000">
                    <g><text style="font: 15px &quot;Roboto&quot;, sans-serif; white-space: pre;" font-size="15px"
                            font-family="'Roboto', sans-serif">
                            <tspan x="45.43" y="31" dominant-baseline="ideographic">Establishing </tspan>
                            <tspan x="12.25" y="49" dominant-baseline="ideographic">professional networks </tspan>
                            <tspan x="42.7" y="67" dominant-baseline="ideographic">and contacts</tspan>
                        </text></g>
                </g>
            </g>
            <g id="g-root-tx__8xrhi45m8g74-fill" data-item-order="0" transform="translate(585, 551.599609375)">
                <g id="tx__8xrhi45m8g74-fill" stroke="none" fill="#000000">
                    <g><text style="font: 15px &quot;Roboto&quot;, sans-serif; white-space: pre;" font-size="15px"
                            font-family="'Roboto', sans-serif">
                            <tspan x="18.38" y="28" dominant-baseline="ideographic">Receiving financial </tspan>
                            <tspan x="17.55" y="46" dominant-baseline="ideographic">rewards and prizes</tspan>
                        </text></g>
                </g>
            </g>
            <g id="g-root-tx__18mk9cs5m6znm-fill" data-item-order="0" transform="translate(21, 575.599609375)">
                <g id="tx__18mk9cs5m6znm-fill" stroke="none" fill="#000000">
                    <g><text style="font: 15px &quot;Roboto&quot;, sans-serif; white-space: pre;" font-size="15px"
                            font-family="'Roboto', sans-serif">
                            <tspan x="15.39" y="28" dominant-baseline="ideographic">Acquisition of practical </tspan>
                            <tspan x="22.88" y="46" dominant-baseline="ideographic">skills and knowledge</tspan>
                        </text></g>
                </g>
            </g>
            <g id="g-root-tx__1lqj2os5m8g7i-fill" data-item-order="0" transform="translate(393, 575.599609375)">
                <g id="tx__1lqj2os5m8g7i-fill" stroke="none" fill="#000000">
                    <g><text style="font: 15px &quot;Roboto&quot;, sans-serif; white-space: pre;" font-size="15px"
                            font-family="'Roboto', sans-serif">
                            <tspan x="36.34" y="28" dominant-baseline="ideographic">Expanding career </tspan>
                            <tspan x="12.61" y="46" dominant-baseline="ideographic">prospects and pathways</tspan>
                        </text></g>
                </g>
            </g>
            <g id="g-root-tx_49_dl2onw5m45qn-fill" data-item-order="0" transform="translate(633, 199.39990234375)">
                <g id="tx_49_dl2onw5m45qn-fill" stroke="none" fill="#ffe711">
                    <g><text style="font: bold 25px &quot;Roboto&quot;, sans-serif; white-space: pre;"
                            font-weight="bold" font-size="25px" font-family="'Roboto', sans-serif">
                            <tspan x="16.41" y="43.5" dominant-baseline="ideographic">49%</tspan>
                        </text></g>
                </g>
            </g>
            <g id="g-root-cp_1_g-1_1lxean05lvswc-stroke" data-item-order="-555134" transform="translate(-9, 176)">
                <g id="cp_1_g-1_1lxean05lvswc-stroke" fill="none" stroke-linecap="round" stroke-linejoin="round"
                    stroke-miterlimit="4" stroke="#2c2c2c" stroke-width="2">
                    <g>
                        <path
                            d="M 346 28L 346 27L 298.0252 10L 250 27L 250 28M 345.999969 28L 345.999969 193.600098M 250 193.600098L 250 28M 10 313.600098L 250 265.600098L 346 265.600098L 202 313.600098L 10 313.600098ZM 250 265.600098L 250 193.600098M 346 193.600098L 346 265.600098">
                        </path>
                    </g>
                </g>
            </g>
            <g id="g-root-cp_2_g-2_146qr8c5lvs3q-stroke" data-item-order="-555110" transform="translate(183, 185)">
                <g id="cp_2_g-2_146qr8c5lvs3q-stroke" fill="none" stroke-linecap="round" stroke-linejoin="round"
                    stroke-miterlimit="4" stroke="#2c2c2c" stroke-width="2">
                    <g>
                        <path
                            d="M 250 28L 250 27L 202.0252 10L 154 27L 154 28M 249.999969 28L 249.999969 184.600098M 154 184.600098L 154 28M 10 304.600098L 154 256.600098L 250 256.600098L 202 304.600098L 10 304.600098ZM 154 256.600098L 154 184.600098M 250 184.600098L 250 256.600098">
                        </path>
                    </g>
                </g>
            </g>
            <g id="g-root-cp_3_g-3_qvwpy45lvqiw-stroke" data-item-order="-555086"
                transform="translate(375, 201.2001953125)">
                <g id="cp_3_g-3_qvwpy45lvqiw-stroke" fill="none" stroke-linecap="round" stroke-linejoin="round"
                    stroke-miterlimit="4" stroke="#2c2c2c" stroke-width="2">
                    <g>
                        <path
                            d="M 154 28L 154 27L 106.0252 10L 58 27L 58 28M 154.000031 28L 154.000031 168.399902M 58 168.399902L 58 28M 10 288.399902L 58 240.399902L 154 240.399902L 202 288.399902L 10 288.399902ZM 58 240.399902L 58 168.399902M 154 168.399902L 154 240.399902">
                        </path>
                    </g>
                </g>
            </g>
            <g id="g-root-cp_4_g-4_dkg7ks5lvs3u-stroke" data-item-order="-555062"
                transform="translate(519, 224.60009765625)">
                <g id="cp_4_g-4_dkg7ks5lvs3u-stroke" fill="none" stroke-linecap="round" stroke-linejoin="round"
                    stroke-miterlimit="4" stroke="#2c2c2c" stroke-width="2">
                    <g>
                        <path
                            d="M 106 28L 106 27L 58.0252 10L 10 27L 10 28M 106 28L 106 145M 10 145L 10 28M 58 265L 10 217L 106 217L 250 265L 58 265ZM 10 217L 10 145M 106 145L 106 217">
                        </path>
                    </g>
                </g>
            </g>
            <g id="g-root-cp_5_g-5_9m6ak5lvqj0-stroke" data-item-order="-555038"
                transform="translate(615, 253.39990234375)">
                <g id="cp_5_g-5_9m6ak5lvqj0-stroke" fill="none" stroke-linecap="round" stroke-linejoin="round"
                    stroke-miterlimit="4" stroke="#2c2c2c" stroke-width="2">
                    <g>
                        <path
                            d="M 106 28L 106 27L 58.0252 10L 10 27L 10 28M 105.999985 28L 105.999985 116.200195M 10 116.200195L 10 28M 154 236.200195L 10 188.200195L 106 188.200195L 346 236.200195L 154 236.200195ZM 10 188.200195L 10 116.200195M 106 116.200195L 106 188.200195">
                        </path>
                    </g>
                </g>
            </g>
            <g id="g-root-tx_65_18f2kbg5m2rrh-stroke" data-item-order="0" transform="translate(537, 170.60009765625)">
            </g>
            <g id="g-root-tx_78_90vuxo5lzzsz-stroke" data-item-order="0" transform="translate(441, 147.2001953125)"></g>
            <g id="g-root-tx__v63yak5m8f7u-stroke" data-item-order="0" transform="translate(753, 575.599609375)"></g>
            <g id="g-root-tx_87_4ot7bw5lykg1-stroke" data-item-order="0" transform="translate(345, 131)"></g>
            <g id="g-root-tx_92_qn62qk5lx79j-stroke" data-item-order="0" transform="translate(249, 122)"></g>
            <g id="g-root-tx__1hjg7rw5lvsp2-stroke" data-item-order="0" transform="translate(357, 38)"></g>
            <g id="g-root-ic_brai_8wijbw5lx6gw-stroke" data-item-order="0" transform="translate(255, 359.60009765625)">
                <g id="ic_brai_8wijbw5lx6gw-stroke" fill="none" stroke-linecap="round" stroke-linejoin="round"
                    stroke-miterlimit="4" stroke="#2c2c2c" stroke-width="2">
                    <g>
                        <path
                            d="M 39 17.046C 39.001236 14.496061 37.183212 12.308131 34.676167 11.84241C 32.169121 11.37669 29.686619 12.765736 28.772001 15.146C 26.588905 14.515107 24.247351 15.355774 22.964066 17.231171C 21.680779 19.106567 21.74526 21.59362 23.124001 23.4C 21.285982 24.75639 20.528164 27.140614 21.245747 29.309294C 21.963333 31.477974 23.993698 32.939629 26.278 32.931999L 32.905998 32.931999C 36.267662 32.937527 38.996689 30.215666 39 26.854C 39 30.2141 41.7239 32.938 45.084 32.938L 51.712002 32.938C 53.997826 32.944828 56.028667 31.480539 56.74427 29.309605C 57.459873 27.13867 56.697838 24.753769 54.856003 23.400002C 56.259945 21.599421 56.339172 19.097887 55.051979 17.212076C 53.76479 15.326265 51.406342 14.488606 49.218002 15.139999C 48.303383 12.759735 45.820881 11.370689 43.313835 11.836411C 40.806786 12.302132 38.988762 14.490062 38.989998 17.040001ZM 38.989998 26.854L 38.989998 15.986M 44.287998 16.964001L 44.287998 18.024M 11 54.133999L 23.431999 56.133999C 26.020348 56.493832 28.654089 55.962006 30.9 54.625999L 43.916 46.888C 45.736935 45.805008 46.335094 43.450874 45.251999 41.629997L 45.251999 41.629997C 44.16721 39.814606 41.81731 39.220421 40 40.302002L 29.827999 46.346001M 11 44.152L 16.280001 41.014C 18.233887 39.852501 20.488028 39.29575 22.757999 39.414001L 28.016001 39.688C 28.995121 39.692146 29.929815 40.097141 30.60243 40.808678C 31.275047 41.520214 31.626879 42.476192 31.575998 43.453999L 31.576 43.453999C 31.48299 45.256763 30.062349 46.708267 28.261999 46.839996L 21.548 46.799999M 54.855999 23.4C 52.750771 22.207413 50.079124 22.898323 48.815998 24.961998M 49.217999 15.146C 49.657993 16.038246 49.773273 17.055943 49.543999 18.023998M 47.368 29.077999C 45.667744 29.077999 44.289104 27.700254 44.287998 26M 33.68 16.964001L 33.68 18.024M 23.112 23.4C 25.216625 22.207613 27.887634 22.89859 29.15 24.962M 28.75 15.146C 28.308514 16.037766 28.192493 17.055763 28.422001 18.024M 30.6 29.077999C 32.299797 29.076897 33.677795 27.699799 33.68 26">
                        </path>
                    </g>
                </g>
            </g>
            <g id="g-root-ic_1_147zpek5lyl1m-stroke" data-item-order="0" transform="translate(351, 359.60009765625)">
                <g id="ic_1_147zpek5lyl1m-stroke" fill="none" stroke-linecap="round" stroke-linejoin="round"
                    stroke-miterlimit="4" stroke="#2c2c2c" stroke-width="2">
                    <g>
                        <path
                            d="M 39 26.5L 31.868 28.844C 30.68845 29.224644 29.414577 28.633802 28.943264 27.487463C 28.471952 26.341125 28.961832 25.025124 30.068001 24.466L 36.978001 21.012001C 38.169174 20.420769 39.550751 20.344135 40.800003 20.799999L 51 24.5L 51 38.5L 38.987999 40.781998M 17 38.5L 22 38.5L 29.18 46.548C 29.928059 47.416908 31.137764 47.728642 32.212593 47.329483C 33.287426 46.930325 34.000423 45.90456 34 44.758003L 34 43.5L 34.358002 43.644001C 35.401054 44.060631 36.582829 43.932919 37.512787 43.303059C 38.442749 42.673203 38.999855 41.623184 39 40.5L 40 40.5C 41.136314 40.5 42.175106 39.857994 42.683281 38.841644C 43.19146 37.825287 43.081791 36.609055 42.400002 35.700001L 36 27.5M 31.104 23.938L 30.372 23.338001C 29.178362 22.453632 27.612026 22.250084 26.232 22.799999L 17 26.5M 11 22.5L 15 22.5C 16.104568 22.5 17 23.395432 17 24.5L 17 38.5C 17 39.604568 16.104568 40.5 15 40.5L 11 40.5M 57 40.5L 53 40.5C 51.895432 40.5 51 39.604568 51 38.5L 51 24.5C 51 23.395432 51.895432 22.5 53 22.5L 57 22.5M 34 43.5L 32 41.5M 36 37.5L 39 40.5">
                        </path>
                    </g>
                </g>
            </g>
            <g id="g-root-ic_asce_144vbz05lzy10-stroke" data-item-order="0" transform="translate(447, 359.60009765625)">
                <g id="ic_asce_144vbz05lzy10-stroke" fill="none" stroke-linecap="round" stroke-linejoin="round"
                    stroke-miterlimit="4" stroke="#2c2c2c" stroke-width="2">
                    <g>
                        <path
                            d="M 33 57L 33 50C 33 49.447716 33.447716 49 34 49L 41 49L 41 42C 41 41.447716 41.447716 41 42 41L 49 41L 49 34C 49 33.447716 49.447716 33 50 33L 57 33M 45 57L 57 45M 51 45L 57 45L 57 51M 33 46L 33 44.580002C 32.99649 42.892784 32.495609 41.244049 31.559999 39.84L 29 36L 29 31.5C 31.723997 33.155746 35.124527 33.231987 37.919998 31.699999C 38.497147 31.391245 38.926048 30.863554 39.110329 30.235485C 39.294613 29.607418 39.218826 28.931644 38.900002 28.360001C 38.383797 27.586893 37.376068 27.313612 36.540001 27.720001C 29.42 29.4 30.780001 23.720001 23.5 23C 16.219999 22.279999 11 29.200001 11 35C 11 36.104568 11.895431 37 13 37C 14.104569 37 15 36.104568 15 35C 15 33.900002 17 29 19 29L 19 35.599998L 16.219999 50.299999C 16.086203 50.967041 16.262806 51.658741 16.700001 52.18C 17.136883 52.699703 17.781059 52.999828 18.459999 52.999996C 19.488268 53.000164 20.389404 52.312023 20.66 51.32L 24 39L 26.120001 41.66C 27.337013 43.173683 28.000317 45.057747 28 47M 20 15C 20 17.209139 21.790861 19 24 19C 26.209139 19 28 17.209139 28 15C 28 12.790861 26.209139 11 24 11C 21.790861 11 20 12.790861 20 15">
                        </path>
                    </g>
                </g>
            </g>
            <g id="g-root-ic_mega_dcyijg5m2sjq-stroke" data-item-order="0" transform="translate(543, 359.60009765625)">
                <g id="ic_mega_dcyijg5m2sjq-stroke" fill="none" stroke-linecap="round" stroke-linejoin="round"
                    stroke-miterlimit="4" stroke="#2c2c2c" stroke-width="2">
                    <g>
                        <path
                            d="M 10 10M 11.188 49.063999L 14.546 54.124001M 10 10M 29.757999 26.530001L 42.52 45.756001M 41.849998 44.743999L 13.874001 53.112L 11.86 50.076L 30.427999 27.542L 41.849998 44.743999ZM 28.431999 48.756001C 29.472109 49.949284 29.762846 51.621738 29.186466 53.096031C 28.610085 54.570324 27.26211 55.602116 25.688461 55.77354C 24.114815 55.944965 22.576298 55.227612 21.695999 53.911999L 19.942001 51.27M 10 10M 17.176001 34.919998L 15.834 33.498001C 15.470802 33.112778 15.470802 32.511223 15.834 32.125999L 19.434 28.326L 18.234001 23.234001C 18.112358 22.718262 18.414135 22.197174 18.922001 22.046L 23.938 20.552L 25.431999 15.535999C 25.580299 15.0351 26.089161 14.732746 26.6 14.842L 31.690001 16.052L 35.489998 12.452C 35.875221 12.088802 36.476776 12.088802 36.862 12.452L 40.662003 16.052L 45.754002 14.852C 46.269737 14.730358 46.790825 15.032133 46.942001 15.54L 48.436001 20.556L 53.452 22.049999C 53.965611 22.201305 54.268909 22.730316 54.139999 23.25L 52.948002 28.32L 56.548 32.120003C 56.911198 32.505226 56.911198 33.106777 56.548 33.492001L 52.948002 37.292L 54.158001 42.382C 54.280846 42.898399 53.978817 43.420799 53.470001 43.571999L 48.453999 45.066002L 46.959999 50.082001C 46.807961 50.590012 46.285809 50.891018 45.77 50.768002L 40.68 49.568001L 36.879997 53.167999C 36.494774 53.531197 35.893223 53.531197 35.507999 53.167999L 34.785999 52.486">
                        </path>
                    </g>
                </g>
            </g>
            <g id="g-root-ic_fema_1cu9lcs5m5log-stroke" data-item-order="0" transform="translate(639, 359.60009765625)">
                <g id="ic_fema_1cu9lcs5m5log-stroke" fill="none" stroke-linecap="round" stroke-linejoin="round"
                    stroke-miterlimit="4" stroke="#2c2c2c" stroke-width="2">
                    <g>
                        <path
                            d="M 42.299999 27.2192C 40.900002 26.019199 39.900002 24.2192 39.900002 22.019199L 39.900002 18.419201C 39.900002 15.4192 41.700001 12.6192 44.5 11.819192C 49.099998 10.419192 53.5 13.819201 53.5 18.2192L 53.5 22.019199C 53.5 24.019199 52.700001 25.819199 51.299999 27.019199M 39.900002 21.41954C 39.900002 21.41954 44.5 22.41954 47.900002 18.019539C 49.5 19.81954 51.299999 20.41954 53.5 19.81954M 10 10M 49.299999 35.019402L 45.900002 25.81934L 54.900002 29.41934L 49.299999 35.019402ZM 10 10M 52.099998 32.2192L 56.5 36.419201M 11.5 40.875L 41.5 40.875M 35.900002 56.5L 16.9 56.5L 15.5 40.875L 37.5 40.875L 35.900002 56.5ZM 18.58276 36.138199C 20.100819 33.2174 23.06436 31.25 26.500059 31.25C 29.93576 31.25 32.8992 33.2174 34.4174 36.138199M 26.5 27.625C 29.8137 27.625 32.5 24.9387 32.5 21.625C 32.5 18.3113 29.8137 15.625 26.5 15.625C 23.1863 15.625 20.5 18.3113 20.5 21.625C 20.5 24.9387 23.1863 27.625 26.5 27.625ZM 20.50004 21.625C 20.50004 21.625 20.50004 29.225 16.10004 29.225M 32.5 21.625C 32.5 21.625 32.5 29.225 36.900002 29.225">
                        </path>
                    </g>
                </g>
            </g>
            <g id="g-root-tx__diksbg5m71fl-stroke" data-item-order="0" transform="translate(51, 515.599609375)"></g>
            <g id="g-root-tx__i09pp85m6znn-stroke" data-item-order="0" transform="translate(237, 515.599609375)"></g>
            <g id="g-root-tx__m7ckm45m8flx-stroke" data-item-order="0" transform="translate(411, 515.599609375)"></g>
            <g id="g-root-tx__v48j185m8g7j-stroke" data-item-order="0" transform="translate(603, 515.599609375)"></g>
            <g id="g-root-tx__1lsehy45m8f7t-stroke" data-item-order="0" transform="translate(753, 515.599609375)"></g>
            <g id="g-root-tx__1d3mpng5m711g-stroke" data-item-order="0" transform="translate(213, 551.599609375)"></g>
            <g id="g-root-tx__8xrhi45m8g74-stroke" data-item-order="0" transform="translate(585, 551.599609375)"></g>
            <g id="g-root-tx__18mk9cs5m6znm-stroke" data-item-order="0" transform="translate(21, 575.599609375)"></g>
            <g id="g-root-tx__1lqj2os5m8g7i-stroke" data-item-order="0" transform="translate(393, 575.599609375)"></g>
            <g id="g-root-tx_49_dl2onw5m45qn-stroke" data-item-order="0" transform="translate(633, 199.39990234375)">
            </g>
        </g>
    </g>
</svg>