<?xml version="1.0" encoding="UTF-8"?>
<svg id="Layer_2" data-name="Layer 2" xmlns="http://www.w3.org/2000/svg" viewBox="0 0 256 256">
  <defs>
    <style>
      .cls-1 {
        fill: #991a36;
        stroke-width: 0px;
      }
    </style>
  </defs>
  <g id="Layer_1-2" data-name="Layer 1">
    <path class="cls-1" d="m256,128.05c-.17,70.52-57.54,127.88-127.97,127.95C57.63,256.06-.49,197.86,0,127.79.5,57.04,58.05-.35,128.14,0c70.67.36,128.03,57.79,127.86,128.05Zm-55.14,70.12c-20.48-27.09-47.31-40.88-81.31-38.21-27.73,2.18-49.46,15.71-65.63,38.25,39.84,43.15,110.27,42.09,146.94-.04Zm-72.85-134.09c-21.66,0-38.41,16.7-38.41,38.32,0,21.68,16.65,38.28,38.39,38.28,21.77,0,38.4-16.57,38.4-38.27,0-21.64-16.71-38.32-38.39-38.33Z"/>
  </g>
</svg>